<mxfile host="app.diagrams.net" agent="Mozilla/5.0 (Windows NT 10.0; Win64; x64) AppleWebKit/537.36 (KHTML, like Gecko) Chrome/122.0.0.0 Safari/537.36" version="26.0.16">
  <diagram name="Page-1" id="NBDLBpkQ9ioCHyZj58A1">
    <mxGraphModel dx="1646" dy="1610" grid="1" gridSize="10" guides="1" tooltips="1" connect="1" arrows="1" fold="1" page="1" pageScale="1" pageWidth="827" pageHeight="1169" math="0" shadow="0">
      <root>
        <mxCell id="0" />
        <mxCell id="1" parent="0" />
        <mxCell id="kmTCp-gQ4Pqmv0-tDAnt-6" value="" style="group;fillColor=none;strokeColor=none;" vertex="1" connectable="0" parent="1">
          <mxGeometry x="-201" y="-270" width="392" height="1593" as="geometry" />
        </mxCell>
        <mxCell id="kmTCp-gQ4Pqmv0-tDAnt-4" value="" style="shape=image;verticalLabelPosition=bottom;labelBackgroundColor=default;verticalAlign=top;aspect=fixed;imageAspect=0;image=data:image/png,iVBORw0KGgoAAAANSUhEUgAAAYgAAAMZCAYAAAAa5qPpAAAAAXNSR0IArs4c6QAAAARnQU1BAACxjwv8YQUAAAAJcEhZcwAADsMAAA7DAcdvqGQAAJppSURBVHhe7f1fbBvZne+L/mi1M21bUqbToUimJ91qMxdJRFPS3plO0zayj0NdanCCcfsOJjc26GxgNzJ56OyHFoL7cIBMgH2B7I39cDFwHnb2Q5/HSEgHjTvtMwd3cCVvbc8Abkunk92SKCUzuE3FPj2JSFGZzsQS7W7/0f39VlWRq4pVxSJFSvzz/XTTZFWttWqt+vdbqyh+KkR/8f/eJwAAAEBj4t3/J4VGR0cRIAAAAFS483/9KxUgjpnTAAAAgA0ECAAAAK4gQAAAAHAF30GACs/++zfNT9789r9cNj8BAHoVfAcBOofzMzRz3vx8EF44T9+Y4bJmvkEvmLMU579B31AzXjCXz9A3zttSHBFmfYzKNc0LvP2+0YrtB4ADjCDA0SMBgq7RtVvm9EF54Rs08/IyXfvpXZ7goPGfv02f+Zt/R9f+SZ/fAdjq2QJaXR7oW6wRxMAf/uEf/gdzHgCNIRf2swP0fOJ5SmT+nP5waYk+4AvyzMzztDTw5/Sf//3z9KlPZejfZlL0qec5zb/NUOL/t0QbZ/hCdvYP6fnMv6fMwA1aohT/t0RLx3j+qwl6/vkMZRJbtPSHf2JP9/wM/ec/5zIHuMw/H6AbSx+YFdF44QV64eUv0yd//f+lDV58fuYs3fvve/SclP/7BKX+KMQH/TH64IN/MTOYcFtqypYLrtRnIEGZP0/Q1tIG/YtbOtXmP+d0z9MfHtugD/4wSL5jdP7VV+hL/5fP0qfub9HGMW6ra54UnXletsWrPtuT9wOnGZhyKa+yLV+t7Ktd3jCO1gNg43en/4Siv/k73GICVeQ7iHovnReek3//iZZ/eot++i7RS3Kb4/xL9Ju/NoYChb/5Kf30p39N/4N+w2n4898QfeaPeMGtn9Jf/5ro178pUPS56u2VF17+DNFvfk2//vVvOOHL9IJLusK7XM6ta/Q39BJflp1wcPijPyIphv9XF/2XOH1lYHKXy1v+J67xy/SfXe5pOcuW+vzmr2XeT+nau5+hPzOz1KT7hrT5mkp3izvvwfLdpVt//T+o8D/+mufd9cnDIytzROC5PRW15enb8ry2rzC+AEFBgAAV5Avoei+duz/li9fyH9Gf/ecZOn/rXfrNc+fpGy/xxavOFeiFb8zQy/90i24t/4YK5jzhj+SaJhfwf1qmv+aLJXmk8+Yu3b3FweqaRKtvSKzid+5dX4xS9KLxvcTdu5JmmS+yz9m/p3BB6vPrAFdTZ7qg+XSayeOHc1ve0veVmQaAeiBAgKY5zxfwb/wRd00Lv+G+6S1apov0r3+zHKiH+pmXv0Hf+LN/TVFzWrj117+hz7z2Z/TyH71Mf/aycRlzS+eFfFk78w35ovoikYwcrvFFUV5/U1C977vnv2Euf40+w8vr1VPq85L6QpvzceAzB0Y1qHR84ZV08t130Hw6zeSp4S4Pt/71n3EdXqjZlvZ9BUAw8CU1qOC8heSGcxShc54vcHxFrt7SaTsvcFD4I7LusvwTjzZ4gBCQg+QFoLexvqRGgAAt4AXuof4ZvUR/ffh/QSNfSpsf5fZRQxwkLwA9DAIEAAAAV/BDOQAAAL7geRAAAABqULeYLly4gAABAABAcefOHdxiAgAA4A8CBAAAAFcQIAAAALiCAAEA6Htik1dpejJkTvkTmpymyViIQqEYTU5PUixk5NOnY5PV+UIoNk1XeZmFTE9zGcbnSZq+epWu8mt6MmaWY0wbr+nqOjzKsZWn1UOfLzin69FVAUIaPj3zA/rBD2YaaqQTORh+cNW+A/1wprfqMTMdU9MAgO5ma2WW5lfc/17HuCgb53ooNEmZkW1apQnKZpOUCI8Y8/kir08XiiOUnlAfDSJhCo8l6KoVhGQ6YpSdTRPl5uZodnaWciOXKTtRoJX5WZpbLBGVFnn+PG3tm3XzKKfybjJi1sM5v2a6DrYAUT7/HXoUO0O7X/sB7WW+Z84l2j9+gh78qyvm1BESTdLYp39Jb33/hzS/1fwfXxWKi/TW4ioVohma+cFVmqwTKKz0lZ0EAOgpQtwJlIuuvM9wj31avU+qzuBEeowvymnVu6cJvvBur9L+1grNzeWIL+EK5zQV+POIHiH4Wn9zkUqJrO16E02GOQZUry2FhZtECXs+J27ltIuB0dHRyvMgHvyry3Ti5z8mevyIHj03SX/wj/P05OSn6MHZb9OJpTfMVAax6Rn6X15N0fj4n9Kf/uk4PfXLZdocmqaZ/+VV+tN0mtLjMXrq7jqVz7mnu/oXr9Jlnh5/6i4tl88FyHeX4pf/7/TFk2EaS8fon38Zoyuuef6U0ulxisVSdPlyNb9MT13mz7F/pl8O/in9u6/GKXbmj+kFR3mp8TSl4v9MS7mqPzR27i84/TD98m6c/kKt8zTnO0nlu+/SUn7XTAUA6FZC0XFKUo7/S1K8dJ3eXlmjB+NTFM3dptXSMMWPLdPbt7YoNp6iyGaO5LQPhYYonozQdm6T5CqgT9/bv0dD8XEKbZrLVPm36fp6lKbOlim396JaX3k0SXu3cxVbcSgUpWSSRxR8/QkNxSkZ2aacdo3xKkfqrd65IFu9uFNtza/mr0678bvf/c79eRBD/9v/g+5/+VX6+AvTNPi331fzjpX/mU7e/Cu698r/S03b2PkFvfnD/0J/v/NpNWyZSP8b+vQv36K//Mu/pLdKX6SxpOngdEn3xZKku0bX5rcC5ivQwpt/TzskI4g5Is88f0//hUcYMjoz8r/FOT5NtPFD+uFbvyTioZcxwirRoqM8+uXf082bnOaLF1xvYSXNdX7/+29yncyZAAAQkP2teVqkNGXMO0CrG44Bw0SCL01Fc8IbZzntouY7iMefjtPJWz+i0MP75px+Y4NuvnXTM8LuBNh5AIAeorBNNJamyViMCrlSoHv48l1FIrztelu6sLDI5X3RmFhdpI3E65UvpLOJDVpc8OneazjLKV0wyslmL1N4Y6Gy7vCFrFG++T2Kc9oPxy2mK/T02lt07F9+o6bLF75Lj595gUKP7tOTk8/S8Q/eVfOFoXiKvhwu0bvL2xRJfZlO3fnvdGP9KRr/2v+sbvuMhX5J/5+527Tnk07dzhn+JV1ffhAoX24vTqkvn6I7/z3Hwz6/dW0SVT7v0YvpMaJfcH4eXKVHy/SLUpjGZNl/47LT/xP9T+kY/eKnv6TRr/0b+uORERrhNBtchjWws9r6v79bpjP/89foT8dP06lPnyTCLSYAeoOCedvFelcfrVs/Bcot8efdXQrtlSk6fpbKm8ZtpHwuX7lOEH+ypkOTUxRdv6FuRSm0clW6pUVzepcXLVGO12W8CtXydvO220sKn3LyS1Y5/G6l4fRLXHc1X8pyTrug32KCasMF+WIqOhExb0URFYurtHWAL8UBAKBbgGqjDvv7W1QoFjkwGC8EBwBAP4IA4cH+1hYHBuMFAAD9CAIEAAAAVxAgAAAAuIIHBgEAAKgBDwwCAABgA3/FBAAAoC4IEAAAAFxBgAAAAOAKAgQAABwRlma8EbweWGQ8ZKi6bNqa1rTgkldEpM4HGnnRVQFCNTqgZMqPRp4eJQRNHzRdMwcFAAB4PrCIrymJ7Tmam9umRDpD4rbOLZjTWUMXq/Je+DdKNljzQCMPKgFCRH1OpffHn59W86zXkRNNUliesDR/sF83W0+P0p8U5UfQp001Wi4AoPuZ5E6r9NLlAnxVHjLEvXR5LOj01RntIURGx9ZIIx1Jo6cvhBMZnjYeUKQeE+qT3+uBRWIJ31gVTdAKbVCYIlQwbK5RTm8aqCeyI7QtjzMQCrUPNHJD2VzliXEfTXydw8VT6iFBFqH7H9Lxwjod/+Bn9OSTz9HxO7fNJUbEmpmK0fBAii5ODagH7KgL46U4xQbilJqK0876Ju25pVMbaYrTxWgotElFeYBQnXzL6yGaeOWrlBiN0PCDHdoMnfPIM07x2A6tD12imSucf5jzp8ZpOBaj+MUUxe+u0+bneGNHd+jYyy7lxVKUiu/YH9LB5V6NrtN6tE6dopdqyi2PX6JzZV7nnox+zlGZ62k9xGM9ZLbbZZ0AgO6gODBOU1G+4I5P0eDyDcq/n6edoShf505R4lSJlvdepHhpjmZv3aPYtKSZo3lOU+DTXR7goz+gaDCXo0LBJ7/HA4sGjacMKftsdHxcfS7KY1DTp2jx+pq6Nk7xem7wlUeuPWsF+wONdGoeGHT//GtK8f30e2+qR44KMmKQhwWFyh9S+dxr6qFBTkobC9xjnqWblFAR1Hh8nsybp7mNcGUIU5Muk+B0vJE43crWfqB8E9z01cVfUOkXizxvyycPb0hzhFG6uUALC4vEuXi4xZ9vcrSuuNxry6PSNm1vc0wOJz3vz/nVycBtnjtB1wkA6GBWN7g3nqFkmK8zfIWOTV+lZHGVVnOl6iNITSJ8ym9XdN3u+OX3osgJR6ISNGI0wrmK0Qxlk0X1POsCRdUIgxJZyl4IU/hCJvC1RgWIx8OfocfPnlaPHH342ZfUAnm6nCC3ngZ+bzwfoh5BGi840wXNp9NMHj+kvFJO7K05WuTAcxjPnz6KdQIAWovc1tmmMftDepIZysizrNVUldXFEiVez9puMbnhld/rgUVqfprzZNJEXA9Kct5wWt3OymYiVJzjjvPsLM3d5KDDHecCd2+9HmikowLEsfsfqoAgr0fRhHoOtSDBQgLH0+/9RE3XQzU+azQ+myjR4qq5wIFzIwXNp9NMnhq0J0VJeeHLaUpGkpROBvj2xkIro4LzCVTmjhtz7O2m1wkA6ChW5q/RrPk95db8LM3Oz9P8rPFI5f0VnjaXyaNCZ6/Jd5XG3RN92QpfwFf4gu2X3/juwBgByGMJ5nmEIBd5VS5/nue88j3oFtfnGpcnQWF2fqUSCCpl8ZCiFOCiCdWGC3hgEACgX4Fqow54YBAAAGh/5grs4IFBAIB+BwECAACAKwgQAAAAXEGAAAAA4AoCBAAAAFcQIAAAfYPS5jQoyjTsqbV2VN2e6px22lINP9ukOWVMi1XV+CzeJckrjibxNYml1Zg2XtOVsrzKsZWn8pteJ22+4JyuR1cFiKOyuR4mrWojAODgVOypBbsdVQKNbk+Va4o+TU5baiRM4bFENTjJdMS4YGfTXLb5S+fcyGXKThRoZX6W5hZLRCInNX8MV8nnUk7l3WTEtLw659dM16ESIGBz7RBa1EYAepUjsafubxkXadOO6rSnpp02VRdbaunmIpUS2coIRDCccquVAFAQYVzC36rgVk67UAFCbK6WpE/nqQ9+Riff+a/q5fQxGRuRhyvmhlbz5IKr5hnvxsZ3SefYaUHySc96QtwkY2mexzveM495YMjnGV7OQzWZNz3Nn2f4XdbHy65yGa7lydDOETTc2iBCLVWW6vFr6/dYp46tnrb1TtrqBACoZXXDuIYa0k++eK/M0+I2X8dLJQqLsY6xpJ1OMaixrCrclM60b/6RMI8G1Cw+V8WOSrS4EEQCV6BtGlHXhSoFWhBFUMZYh8Ad+iaccrXltAsVIGBzrW9zdbbBC/91VqkcgLb1jlAxoAkWgL7lCOyp0pGz7KjS23faUzcc02ZMqUGcSYuUpox5B8gKdhVkaGI+v8EPZzntQgUI2FyN8o7CrOpcbwubBEBPchT21KhmR1VfEjvsqRJc9Gk/W2qBO5A09kVjYnWRNhKvG+XyK5vYCDhCqS2ndMEoJ5u9bN82F7JmvY27Es5pP9QDgx49/xIN/u331cOCHnzpm+oBQaGH91WweHj6K3Ry6Q0KfXTPzGIgD7qQB09IBLceULFaitLUKyn1IKBUokyLN6oPx6lJ9y1O98B4YNDqr4LlKw7GKRnZVg/WKe7EfPNU6lccrDxUo7Kc/1Xv+SFKXnyZBu7ucB0GKXX5DA3uDNKZ00O8rLqT3NqaL0cplY5TNHqGxkbLtLGsle+2zmpxtvKkHbb1bp+qtBEA4E4hv1Q5p3bzci7nKZ9boiU5bwra+babp9wSn68F4wE9+rICn8fy0S9/aK/M5/xZ2l6Yoxtra3zqS9oC7Uq5Oc7DedWlwjEdmpyi6PoN9WAfhV4n2qX80qI5vcuLuC1Srnpx2SoNI2U6rwM+5eSXrHKq20bSL3H7jXobbbNNu6A/MAg2VxdkmNhKm2urywMAgHYBm2sdWm1zhR0WANCNIEB40GqbK+ywAIBuAwECAACAKwgQAAAAXEGAAAAA4AoCBAAAAFcQIAAAfU8jAk/D7mpodixrqpqvTcPmegRIw3vd5goAOHwsgacbxkXZuOZU7K40QdlskhKmNVV5mrTpQq/ZXIXy+e8oF9Pu135Ae5nvmXNJyfxEuXHkRI/G5ho0HQCgOzEEnqZwUxNzSqfUJtC07K5bKzQ3l6u4m5zT8ovlnrG5WoiP6amtdfrEP8zTkxPPqHlPTn5Kyfyefu8natrCzXCqLqRqnvGuhjhu6brI5upcb61q2Kon5+f1qWUeZQEAOh9fSahmd/VDfhzbMzZXCxH03f/yq/TxF6aVm0kQo6uYXN2eB9EPNlfZ0Xq6in1xwlANC0Y9uR43w4aG2KMsAEB/05U2V53Hn47TyVs/UrK+RgkaDZ3pmomizUVeb6S8QDZXpRqeoEzCUA27EbgsAEDnU9gmGkuTPHbUsrvWQ+4w9IzN1fysvmd4eu0t9WwIoXzhu/T4mRco9Og+PTn5LB3/4F01X+grm+teNV3h3vtUjl+hr5YX6Ub+nlpP+kKShoe5HqNGPfLcPq+yAAAdiGVJ1Wyplu2VPykjbGF3t2J3LW9u0r39e5TP5av2VTGqmtOwufYw8r2Dn31VvoeguTla4Qgt30FkaY5mPf4CAgAAugnYXOvgZV+VwCF/n5woLargAAAAvQxGEAAAACpgBAEAAKAuCBAAAABcQYAAAADgCgIEAAAAVxAgAACgC2i3cdaNrgoQ0jjYXAEA/UjbjbMu2AIEbK7B8MvXbJkAAOCHIRm1pKQiCJX31hpnnThUG5fpxM9/TPT4ET16bpL+4B/nlc31wdlv04mlN8xUBqqSUzEaHkjRxakBWsoVjIvjpTjFBuKUmorTzvom7bmlUybUKaXJENVGcah+vuX1EE288lVKjEZo+MEObYbOeeQZp3hsh9aHLtHMFc4/zPlT4zQci1H8Yorid9dp83O8oaM7dOxll/JiKUrFd2w/Q6+0Sy0boGNnXqrmi3K+8SGKpa5QauCurcx8wf2n7AAA0CgVfRD/Gy9dp7dX1ujB+BRFc7dptTRM8WPL9PatLYqNpyiymVOaj1BoqKoakjK0aVGFDMXHKbRpLLPQVRu2EQRsru4GVvuyESpq+fZ5/YvbHLBLJVlkKxMAALqZmu8gYHOtNbA6l+mrjU1fpWRxlVZzperQDQAADpMWG2ctbAFCvmeQ4KDbXGWeBI2B326qeX6sykMssln18JxsokTm4xJqUOleN9LJN+1B8+k0k6cGbaNKeeHLaUpGkpRO2u/L1SzT8gnhZIYycg9QJhzLAACgFeyvzCopqPUurMzOKi/c/v4KzV7jz1tbfA2S7xYy6i6IeOXmtUeW2qa1Z9p4AReTC/Klj5/NFQAAehW4mOrgZXMFAIB+AgHCg30eqm2ZLwAA6EcQIAAAALiCAAEAAMAVBAgAAACuIEAAAABwBQECAND3tNuUajjaJs0pY3qayzA+TxoSUn6JS8kox5g2XtPVdXiUYytPq4c+X3BO16OrAoQ0HDZXAECrabspNRKm8FhCyfYq0xGj7GyaKDc3R7Ozs5QbuUzZiQKtzM/S3GKJSOSk2g/dvMqpvJuMmPVwzq+ZroMtQMDmCgDoRw7DlFq6uUilRFb56CwMp9xqJQAURBiXsOdz4lZOu7AFiMfPnqanttbpE/8wT09OPKPmic31/vnX6On3fqKmLZwbUs2TC66aZ7yrIY5bOmVzlV68OVQLkM+5o7zzGCMM9XmGl/NQTeZNT/PnGX6X9fGyq1yGa3kytHMEDZWeh2zTMmxzWa/4mFS5aoTjUhev9rqsCwBwtPhKQkfCREUzoQ/yY9ttGlHXgioFWhBFUCZqTqsOfRNOudpy2oUtQMDm6mFzVaO1IpexSuSxXjesuri112tdAIDeZX9rnhYpTRnzDtDqhmPAMJHga0P9COQsp13UfAcBm2utzXVL7gfmIpR+PUvpFtTVb10AgA6jxabUAndaaeyLxsTqIm0kXld3GOSVTWzQ4kKwC4yznNIFo5xs9jKFuXNtrTt8IWuUb96tcE774Xhg0BV6eu0tm8318TMvUOjRfXpy8lk6/sG7ar5QeXgFtyU6Pk6Uy9FqKUpTr6TUg4BSiTIt3tik3WjSPd23ON0D44FBq78Klq84GKdkZFs9zKe4E/PNU6lfcbD6wAxrOf+r3vNDlLz4Mg3c3eE6DFLq8hka3BmkM6eHeFl1J8lfFIxzL//UKV7PYpledqy3UI5SKh2naPQMjY2WaWPZXhdVV0d7vdYFADgCCsa5WnlXH3NkfCxQbok/7+5SaK/M16OzVN40HriTz+W1h+3sVqZDk1MUXb+hHtqj0MpV6ZYWzeldXrTElzderl6Fanm7eduDyxQ+5eSXrHL43UrD6Ze47mq+lOWcdkF/YBBsri7IdwmwuQIA+hHYXOsAmysAALh8BwEMYHMFAPQ7CBAAAABcQYAAAADgCgIEAAAAVxAgAAAAuIIAAQDoe2BzdaerAoQ0HDZXf2CqBaBxYHN1xxYgYHN1J2i6o0Kvn9+BDgBwxxB4WpJN7mWrd9hcHaqNy3Ti5z8mevyIHj03SX/wj/PK5vrg7LfpxNIbZioDtSGnYjQ8kKKLUwO0lCsYF6pLcYoNxCk1Faed9U3ac0un7KZTSlch6oniUP18y+shmnjlq5QYjdDwgx3aDJ3zyDNO8dgOrQ9dopkrnH+Y86fGaTgWo/jFFMXvrtPm5/hgiO7QsZddyoulKBXfqfwMXR0g2nqHpi5RdH2diqoNUVofmDLryfW4EqeBZW6PtR0cZQn+28i7DNWeStu4ruNDFEtdodTAXXs7ope4beu0Hgq2LwAAfF5aah7+N166Tm+vrNGD8SmK5m7TammY4seW6e1bWxQbT1FkM6cUGqHQUFXjI2Vo06LhGIqPU2jTXKbKv03X16M0dbZMub0X1frKo0nau20pPaSMKCWTYhbi6+RQVS1k4VVORR/EBdnqpSl/qvmr027oqg3bCAI211rDqvyqWk9XsS9OSBtWVRqjnlyPm2G1zKsswb+t3mWI2Ndq2z6nW9zmjkypRDKS1Otn4b+e6r4AABwesLkG6JQ60wXNp9NMHj+kvECGVd6jMnTMJDjoeKzfr6yg9XaWoWeR508ki6u0mitVh7QOWr19AOhbYHM1gM3V3bAa2qumK9x7n8rxK/TV8iLdyN9T60lfSNLwMNdj1KhHntvnVZZXveuWsTdSaZsMXc9EohQ9M0aj5Q1aXgtV6lccNIacN2QIGmCbVmsGQB9jWVI1WypsrrC5uiLfO/jZXCc5+tLcHK1whJbvYrI0R7NefwFRpyyhXhkAAHBYwOZaBy+bq1zs5e+TE6VFFRyCADMsAKBbwQgCAABABYwgAAAA1AUBAgAAgCsIEAAAAFxBgAAAAOAKAgQAoO+BzdWdrgoQ0vBOtLn6lQe7KgCdD2yu7tgCBGyuzeF3cMGuCkDnA5urO7YA8fjZ0/TU1jp94h/m6cmJZ9Q8sbneP/8aPf3eT9S0hXNDqnlywVXzjHc1xHFLp0yo0rM2h2oB8jl3lHceY4ShPs/wch6qybzpaf48w++yPl52lctwLU+Gdo6gEWRd6uAy003yuq7yumUHVpap9FKGvBvbAQDQefhKQkfCRPVdeuoHsts0oq4VVQq0wKOCREbUmwbcoW/CmVZbTruwBQjYXBs1sFbXJVjpVubniYuuASZVAPob2FwDRENnumaiaHOR1xsprxUGVitdJMwTAIDuBzZXA9hcGzOwOtdlGFSNh/yMjpaoJA/+ca5Ta091DQCAI8WypGq2VNhcYXN1Rb7vqGdgrYdufAUAgG4BLqY6NGtglb+PVl9cX52hkQ0EBwBAd4MRBAAAgAoYQQAAAKgLAgQAAABXECAAAAC4ggABAADAFQQIAEDfYKlvGsGwt8YMDY+odEwLgmFcNXRBzmnYXI8AaXgn2lwBAL1Jxd5aIMotzNHc3DYlshMq0CS2zel0Rl1T9GnqNZur/Ira6Vv6+PPTap71OnKinWlz1WlHmQCAKvIjVCXCVNLPSdXDl1719NUZTYxpdCSdYlAhnMhUpJmql+2Tv2Jv3d8yLtJRni4VlTJpY1V+M7VCGxSmtGM6Uughm6vovEXz7eSpD35GJ9/5r+o18HtDv2HhZidVF0c1z3g3Nr5Lum6zuUp6OYBk2OZIZ2+Lf5kxflfrVyOh2joDAOpjCe4M6SdfvFfmaXGbr+OlEoVHDMOpJdJ0ikGNZVVppnSmffNr9lb1zAfu7QdzJRV6x+YqOm/xLz393puVQCEjBjG5hsofUvnca8ro6qRvbK5qtFbkMriL4Eg3YWvLlm+ZXiM7pxUWAOADR4jSSIZPRT6v+eIqHa9kcZVWc6Xq8xhMglyA/fJbSGcvmyxWbvcUOaHEEunsjXCuDce0l4+1K22uj4c/o54F8eBfXaaHn31JLRD1tyC3npyjBy+CRkNnumaiaHOR1xspz8vmuiX3A3MRSr+epbQjHY8mPevhLDOARh4AUAe5jbNNPFLXjaXJDGVk9K6mqqxKT5vPW+tuhRde+S17azTJy8JpdbdAfUks89OcJ8NDCq6HBBd9usBd2l6wuSrVhjw97tTCf1QzZORw6sZ/UqMHCRYSNE793V9VDK8WcmskS9zzXdmviOlWoxkegnHPnsNpmAPh4hxvqImse7rLnO5mibaLvHGpgXzJnOptq4juk8eq39xqlDLZJOW05XP8r7FsgrKvJ2jjzUWuQ7JSp/DINq9jxWyp8dcJIzwKUOvhfZLW0s3lRuxtKXiXqdLy8VMqhWlsrERv/tBeZwBAZyEjgkyGrx8L9k5jPeT6kynO0XyDks9OQFdtwMXkghwUB7W5AgBANwIXUx2atbkCAEAvgQDhwf7WFgcG4wUAAP0IAgQAAABXECAAAAC4ggABAADAFQQIAAAAriBAAAD6nkYEnobd1VDmWNZUNV+bhs31CJCGH7XNNTbNB4e24zsB2GkBOBiWwNMN46JsXHMqdleaoGw2SQnTmqo8Tdp0oddsrkL5/HeUi2n3az8g+XW1hcj8RLlx5HSBzfUo6LX2AHDYKCEnX3QNeSb3stV7rSS0YnfdWqG5uVzF3eScph6xuQ6Mjo7+B/Oz0mqc+PmPiR4/okfPTdIf/OM8PTn5KXpw9tt0YukNM5WB2pBTMRoeSNHFqQFayhWMC9SlOMUG4pSaitPO+ibtuaVTBtQpThejodAmFYfq51teD9HEK1+lxGiEhh/s0GbonEeecYrHdmh96BLNXOH8w5w/NU7DsRjFL6YofnedNj/HB0N0h4697FJeLEWp+A7l8rtmS40oL8sGYnF6eYx30DLX2WqrmX69bOSXNFMX+V3S6PUxl9cr3zXvEOcdH6JY6gqlBpZpYOoqRdfXqai2Y5TWB6Yaag8AwE4oOk5JyvF/SYqXrtPbK2v0YHyKornbtFoapvixZXr71hbFxlMU2cyRnE6h0BDFkxHazm2SnF369L39ezQUH6fQprlMlX+brq9HaepsmXJ7L6r1lUeTtHc7R5Z9KRSKUjLJIwq5Tg7FKRnZtl8rPMqReqt3LshWL+5UW/Or+avTbvzud7+j353+E4r+5u/sIwgR9N3/8qv08RemafBvv6/miZNJTK5uz4PoG5urua6V+XniLJV5NqurSxqhog1usHzByuvUETt1xwbB2wMAOBq60uaq8/jTcTp560cUenjfnBOcCF+TetHmqq8rEuYJ9W5Pr1tdrTQ6jZavU6MjduiO3fBbHwCgAQrcOxtLq+e9WHbXeshdkl6wuTpuMV2hp9feqphbyxe+S4+feYFCj+7Tk5PP0vEP3lXzBX2oEh0flzERD8V42PNKSt06SiXKtHjDPsSxpfsWp3tg3GJa/VWwfMXB6pCruBPzzVOpX3GwdrjF/6r3/BAlL75MA3d3uA6DlLp8hgZ3BunM6SFeVt1JxrqM2zWjo3yRXuY6cxv09DeWQzVpilp9pIxGytfzylD1TCRK0TNjNFreoKX8+zzvIo3emaN3CvvVtgZsDwDAQcE41yrv6qN166dAuSX+vLtLob0yX4/OUnnTuI2Uz+XVLSSD3cp0aHKKous31K0ohVauSre0aE7v8qIlvrzxcvUqVMvbzfN5Wy1d4VNOfskqh9+tNJx+ieuu5ktZzmkX9FtMsLm6IF9MHcTmaunJVzx67X7l18sLAADtRLe52kYQwGKX9kIh7i3s0R6/trbumfO9kb+NnplKUXx8ikIb/yvd4p69N/byC5GzDeQFAID2gREEAAAAV/A8CAAAAHVBgAAAAOAKAgQAAABXECAAAAC4ggABAABdQCuMs4Yl1ljmNM660XSAcKtsJ5pOW4HXjoFFFQBwWBzYOMvXq8T2HM3NbVMinSFyGmddsAWIRmyufpXtBfQN7tVWWFQBAIfFQY2zonnaWOXr+f4KbVCYIoVa46yTA9lcr0bXaT1UNZFaptPKL8GZqvU1TqkrPpZT3crqZXs1zaRiar06PkCxeJTKQ1N0yfw8FJ+i8fI6be7JcyPOUdk0vFbSbhYrP2OXIZhuSF0v6ussUzStmVGjvD5uKyyqAICjoqLU4X+bMc4OGppYdX029EW3aU8zzlq0zOYqeJlIdQwr6zzN3QxXzIW65dRpZXWzvdrMqWrEVKTcAodD7bObAzGqLdfFWU5Dqn2dWzYzqgUsqgCAbqXIlyS+1KkRxwiPK+o7Y12+g2jU5lrPRFoPPb+Fc57TTKqetpSLUPr1LEUW5iqfOT7WsKWl1b8fcRpS3epRAyyqAIBOJIBxVs1PZyiTSRNxp71AE57GWYsD21xvyIMrHCZS/dop6dIXkjQ8HKPUaK111c3Kmnexvepm0gG5lcQX+1Onylx+iuLm5+XlMp1JxykaPUNjvK4NrsvnOBBYadfNB3sITkPq9eVB2zqLhaoZtThoPJRjrVCARRUAcDRYJlfN6NqQcVbssPw5n8+RXJZqjLMmbXUx1ZhKRxKU3p6j2SP+QtvPoAoAAMCgrS6m/f0tKhTlFovxkpFPJ+CsF4IDAAD40/IAIexvbfEF2Hjtr8we+ejBQq8XAAAAf9oSIAAAAHQ/CBAAAABcQYAAAADgCgIEAAAAVxAgAAB9T+Om1BhNW2ZU8we4fqZUw9c2aU4Z09Oczvg8SdNXJa/UIab+JN8oy3pNV8ryKsdWnspvrF+fLzin69F0gIDNtbGDqlksQRcAoH00bEotEOXE4iBm1OyEOk99TamRMIXHEtVzWaYjRtnZNJc1N0ezs7OUG7lM2YmCYYtYLBGVFnn+fPXXzh7lVN5NRkyDq3N+zXQdbAECNtcq+kEBmysAvY3VEVNy0SCm1P0t46ItsrdSMZAptXRzkUoJu/LHcNFVPXGFhZuG8M0Ht3LahS1APH72ND21tU6f+Id5enLiGTVPbK73z79GT7/3EzVtUdmgcnGUYRWPHng71lDd4JxuxhhhGPM4P19UrfxquTmUkihtDLeM4VoljQy7JI+sm4dQ0zKM0j7LsEwNt3inTltl6Wm1DapsrjL/6ozRDts67QeF1dZJXq7qr9LywaPmO9I66qpTs07Orx+MbmksXNdttctnnQCAxjDkorN0kxI04ZRxjoR5dGCkk1tD0vtfXDC9FzYKtE0jtmuOzFvgUUEiEzWnVYe+vgOuhtpy2oUtQMDm2l6bq3Odgn4wSgBwSyNY65auiqxbbxf5rBMA0HqkI5hNFiu3f4KaUve3+PymNGXU+aud1xYyFOERST2c5bSLmu8gYHP14YA2V+c63fBMo9Y9QZmEsW69XWmfdQIADoiLKTWaHKNwOK3uOshInhowpRYWFrm8LxoTq4u0kXjdKIdf2cSGx4ikFmc5pQtGOdnsZQpzHax1hy9kzXoadxec037A5nqINlfnOpf3jHJlOxgP8MjRXjzpmkbWXY5foa+WF+lG/p66nWa1a3GR2w2DLADN06ApdZs7pjfW1viUlfO/QLv1TKlaucRXofzSojm9y4uWjHLUi8tSaRgp06la9Sknv2SVw+9WGk6/xHU36sllOaddgM2VOQyba6vXKd9D0NwcrWCEAABoE7C58uswbK6tWqcEGhkxJEqLCA4AgEOj5SMIAAAA3UtbRxAAAAB6AwQIAAAAriBAAAAAcAUBAgAAgCsIEAAA0AU0bpwVNU/V7Cr4GWfdaDpAdLLNVTaK0uce0Et0EFtrq7fFYZhjD4Llq+r0egLQrTRsnKUJymaTlDDNrnKO+hpnXbAFiJ6xuUaTFBZN7nzVo9QM7bC1NlKWnrajt7dGt9QTgG7D6oQ5JZ/SIXY1zm6tcDDIVZQ9QYyzThyqjct04uc/Jnr8iB49N0l/8I/zyub64Oy36cTSG2YqA1XZ6Dqth/gidilOA7E4vTxGtaoNacRUjIYHUnRxaoCWcgXjwsd5YgNxSk3FaWd9k/bc0ilz6ZTScCj9xVD9fMvrIZp45auUGI3Q8IMd2gyd88gzTvHYDq0PXaKZK5x/mPOnxmk4FqP4xRTF767T5uekjTt07GWX8mIpSsV3bD9Xt9qlb4ui1VaVfoCOnXnJs6z1zc9p7S1TNK2tN3rJtr3rbTsdZYgdH6JY6gqlBpZpPdrAPvHcNvYyc2ToU6RsWz1dthMAoHEqah/+N166Tm+vrNGD8SmK5m7TammY4seW6e1bWxQbT1FkM6c0H6HQEMWTEdrObdJgMql0PnJ1MNQ+t2kvPk6hzaqCSNBVG7YRRHttrlVjqZvB1TWdi9W1Xr4aPa9nHsMmqz7fXKCFhUXiXJRb4M83SXuoRnBbq9u2sKcfoaJPWRMBjLLe7bFvO50gFlnPcj22jZd11sLZNhhmAThaghpndWq+gzgMm2sgcyrjTBc0n04zefyQ8rzMqfq6rG3hTK9XxbmMR31169pMe4JYZBstt16ZzrbBMAtAG3ExzjpR8wMaZy1sAUK+Z5DgoNtcZZ4EjYHfbqp5TlblwRXZjHpYTSLsdfmxY+TJkjycJ5soUeXRCg5UuteNdPKte9B8Os3kqUHb+FJe+HKakpEkpZNmN9vEWJd9W9Sk9ylL5dfaq6e1MNbReHvCST4w5D6lOe2kmXL9yqxpNwDgQOzziF+kp9a7sDI7q/xs8r3C7DX+vLUlkUA9lkBG7eKDmzefWSHPkJDnV8zPm98Tms+W8aP9NtdDsKYeFZ3a1n7aBwCA1nKoNtdevjB1alv7aR8AANpHywOEsM/DnC3z1et0alv7aR8AANpDWwIEAACA7gcBAgAAgCsIEAAAAFxBgAAAAOAKAgQAoO9phSlVn3aaUg2v2qQ5ZUxPy2+d1OdJQy7KL3EpGeUY08ZruroOj3Js5Wn10OcLzul6NB0gYHP1p99srgB0Mwc2pfJFXp8uOE2pkTCFxxJKtleZjhhlZ9NEubk5mp2dpdzIZcpOFGhlfpbmFktEIh01f+hWyedSTuXdZMSsh3N+zXQdbAECNlc7sLkC0B8c1JTqnDZ+zWw3CJRuLlIpkbV1HA0H2molABREdpbwNw+4ldMuYHPtC5tr/W1bgGwV9DEHNaXK6aNP39u/R0OaKdUo/zZdX4/S1Nky5fZeVOsrjyZp77ZhWBVCoSgZ0lU+R4filIxs268xHuVYNmU59W314s6yNb+avzrtBmyuKk//2FyFetsWANB+xIe0SGnKmHeAVjccAwZ5aEOpvmfVWU67qPkOAjZXf6S8brO5utGqcgDoeQKYUp3ICN3LlFrgziiNfdGYWF2kjcTr5pfRVymb2KDFhWAnprOc0gWjnGz2MoW5Q2itO3wha5Rv3q52TvvhuMV0hZ5ee8tmc338zAsUenSfnpx8lo5/8K6aL1hDlRsy1HnFuE0yOlqqvcWkDWmMh1TkeMgmeVLq9kYqUabFG/ahkC3dtzjdA+M2yOqvguUrDlaHZsWdmG+eSv2Kg7XDMv5XveeHKHnxZRq4u8N1GKTU5TM0uDNIZ04P8bJqa4112beFtMGWfm3Ps6wbyyFbe4uF6nqLg8ZQ0tje9bdBtVY++0BbF24xgb6mYJwflXf10TqPCpRb4s+7uxTaK/M5dJbKm8ZtpHwurz1sZ7cyHZqcouj6DXUrSqGVq9ItLZrTu7xoiU9JXq5ehWp5u3nb7SWFTzn5JascfrfScPolrruaL2U5p13QbzHB5noAOrWt/bQPAACtBTbXFgGbKwCgl2l5gBBgcz16YHMFAByUtgQIAAAA3Q8CBAAAAFcQIAAAALiCAAEAAMAVBAgAAOgQLCdUIxh22RhNKwNsVRJqGGEN86xz2mmb9aKrAgQsrQAAUKVily0Q5RbmaG5umxLZCRVoEtvmdDqjrjP6NDltsx5UAoT8itrpW/r489NqnvU6cqKwtAIAOptJ7sRKJ9IQYk6qHr48w2H66oxmjDU6ukYa6SRWe/rhRKZik1XPdPDJX7HL7m8Zao0oT5eKSum0sSq/iVqhDQpT2jEdKdTaZt1Qqg3ReX808XUOF08pg6tF6P6HdLywTsc/+Bk9+eRzdPzObXMJL5NKwtIKSysAwEZxYJymonwBHp+iweUblH8/TztDUT43T1HiVImW916keGmOZm/do9i0pJmjeU4j56pocXSb7GAuR4WCT37dLivPpEifosXrazRoKGGVKkT0OuL0K2nTlLtNe5ptVqfG5nr//GvKv/T0e2+q50EIMmIQk2uo/CGVz72mjK5OYGmFpRUA4GB1g3vnGUqG+brDV+TY9FVKFldpNVeqPi/CJIg00y+/hXRis8li5eFCRU44EuX5oRgHhxJtOKbr+2INVIB4PPwZevzsafU8iIeffUktEPW3ILeeBn5vyPvqEdQQ6kzXjFm01TZSKQ+WVgDAQZHbONs0ZjeqJjOUkQcPqakqq4slSryetd1icsMrv2WXjSZ5WTitblepR5LK/DTnyaSJuB4SXPTpAne5vWyzOuoW06PnX1LPf5DbSw++9E11S0l03xIsHp7+Cp1ceoNCH90zsxjA0gpLKwDAnUK+alTdzcu1Jk/53BItmUZVa5kyti7lKF8wbjHpyyybrF9+yy67vTBHN9bW+BIgaQu0K+XmOA/nVZcyx3SNbVajrTbXXgCWVgBAv9JWm2svAEsrAADgh3KewNIKAOh3ECAAAAC4ggABAADAFQQIAAAAriBAAAAAcAUBAgDQt4iupjl7akj9elnJQyfFqWSKRJVXKVZjSzX8a5PmlDE9bf4wThQZel4pyzCvWq/pSlle5djKU/lNj5M2X3BO16PpAOFmIW216bRZKjvrgCK+TjWtem3nVrUbAOBOxZ5KGcomczQ/O0uzosyJmiJRnhaFTsFpS42EKTyWqAYjmY4YF+xsmig3N6fy5kYuU3aiQCvzszS3WCJSZRr6jEo+l3Iq7yYjYbEvMY75NdN1qASIRm2uHW0htXZWB1pf20qD7e6adgHgw1HYU5U7bTtCkzJSqPTIZdo8n1xsqaWbi1RKZG2dO8PBtloJAAURxiXs+Zy4ldMuDmRz1S2kuunU/BW4wtU4KhemAObSrrO+Ouv7Oa7v+BDFUlcoNbBMO+NX6VyZy92Tnv45Kpt1uTo+QLF4lMrlcbrkVba5zQIbZaNcT991lymubac8nBygSzkKe+p2JE1n9pbpxuoenf3WWSr/twX6VTlEe4NJ+oupIVpae5+GNFuqocW5TddFqXO2TDkuUzQ55dEk7d2uKnRCoSgZIla+/g1V1UIWXuVU9EGi0QgN1eqFzBXoeh4vWmZzFSwLqW46ddI31ldHfff5fXGbOxylEoVFpeiC6Nv5EOf1rhL5lW22I6hRtv667e0CoGs5Ansqn3hUKhZI7AbbpbDS38iPVwurOb6OjNjOXZ39LT4vKU0Z8w4QV90+YJAHOZTqu1ad5bQLFSAOYnPVN7hlOq1HkJ0kONMFzafTTB4/pLwg1lchyIG2JfcacxFKv56ldMCygxhlgx3kAHQ/R2FPLSxsUDjN5fB5ligt0upERt2WymQvq3r42VIL3BmlsS8aE6uLtJF4Xd32klc2sUGLC8EuWM5ySheMcrJmHSrb4kLWKN+8neyc9uPANlfDQmrc5rBMp3rz9CFNX1hftfruRZJ0JhKl6JkxGi1v0H/Lcd50nKLRMzQ2WqYN3laf4wNsnHsbp05x3RbLdOYgRtntU5V2y/C23rp3d6vtKuziFhPoXg7bnlrefIfeWVtTdlR1C4jLk/NV8qjritOWqteBdim/tGhO7/IizsPrNl6F6gN8pK6VAkx8yskvWeVUt4WkX+L2GpZXoy22aRfaanOVv6TpF+NoO9vaT9sRANA5tNXm2k/G0Xa2FeZWAMBR0/IAIfSTcbSdbYW5FQBwlLQlQAAAAOh+ECAAAAC4ggABAADAFQQIAAAAriBAAAD6nkbEnBWba6hqTVXztem+t7keBdLwo7a0wqQKQO/hJx81LsrGeV21uU5QNpukhGlNlYu8Pt1zNlehfP47ysW0+7Uf0F7me+ZcIpH5iXLjyIl2sKW1wbq1dN0tpFPrBUA7sZ4LYZhbuZet3idVx29ClBtjadW7t2yu+1srNDeXq2hsnNPyi+Wesbman5WL6cTPf0z0+BE9em5SqTeenPwUPTj7bTqx9IaZyqCvLK1muw7DpGpsV7MNZXud1jc/Z99ue/btGDrnbov1LE+2kc82huEV9AsV5Q7/q9tdo7nbtFoapvixZXr71lbF5iqXB5s1VcrQpu/t3+sdm6uFCPruf/lV+vgL08rNJIjRVUyuzudBCH1jaTXXdVgmVasNzjpNOLebY9oLr/KkZn7bGADQWrrS5qrz+NNxOnnrR0rW1ygRvv4EMac60wXNp9NMHj+kvE4zqTrXIWrJg2w3vzoDADwocG9vLE2TsRhZNtd6yF2SnrG5mp/V9wxPr72lng0hlC98lx4/8wKFHt2nJyefpeMfvKvmC/pQpS8srYdkUtW3q6xXX8eN5VDtdtOm89tcJ+d6tG3iLC+3N1JZVtnGMLyCfsSypGq2VMvuyp+UAVbOh6rN1biNlM/lq/ZVMaqa07C59jDyxdRhmVQPc10AAFCPttpce4HDNKnC2goA6FQQIDw4TJMqrK0AgE4EAQIAAIArCBAAAABcQYAAAADgCgIEAAAAVxAgAACgQ7CcUI1g2GVjNK0MsFWZqGGENcyzzmmnbdaLrgoQnWBzPQosg2y31RsA0F4qdtkCUW5hjubmtimRnVCBJrFtTqcz6tqhT5PTNutBJUDIr6idvqWPPz+t5lmvIyfawTbXQ6Bb6w1APzHJnVjp0BlS0knVw5dnOExfndGMsUZH10gjHb9qTz+cyFRssuqZDj75K3bZ/S1DrRHl6VJRKZ02VuV3Viu0QWFKO6YjhVrbrBtKtSE6748mvs7h4illcLUI3f+QjhfW6fgHP6Mnn3yOjt+5bS4xhkJ9Y3N1aYP4llzNqR7r1H/Vrna4r+2Vy3IzyHL5znrDuApAZ1EcGKepKF+Ax6docPkG5d/P085QlK97pyhxqkTLey9SvDRHs7fu8XVE0szRPKeRU1lUO7pNdjCXo0LBJ79ul5VnUqRP0eL1NRo0lLBKFSIaHXH6lbRpyt2mPc02q1Njc71//jXlX3r6vTfV8yAEGTGIyTVU/pDK515TRlcn/WJzFZxt8MJ/nQb1ba8yWKo1yBrAuApAR7O6wb3zDCXDfA3gK7KfvDOIcDOI/FM659lksfJwoSInlEuL3JYf4Vwbjun6vlgDFSAeD3+GHj97Wj0P4uFnX1ILRP0tyK2ngd8b8r56BLWLOtM1aiUVmsnjh5TnZXNtNUF2uN4+yyALAOh85DbONo3ZjarJDGXkwUNqqsrqYokSr2dtt5jc8Mpv2WWjSV4WTqvbVeqRpDI/zXkyaSKuh1xr9OkCd7m9bLM6KkAcu/+hCgjyehRNqIcECRIsJHA8/d5P1HQ9VGOzRmOziRItrpoLHDg3StB8Os3kqUHT+Ep54ctpSkaSlE7Wvzendoy5wceauH7rO9ytLKN9GfWXCQnuidjQ6g0A6DxW5q/RrPkI0635WZqdn6f52Wt0bV6eF8PT5jJ5rsPsNflu0biboi9bmZ2lFb6A++UXO6uMVmjhh3SN08tjS2fnV2hLyuXRxDznle8t1Xq0afmSQp5kVw/YXF1otWEVxlYAQLcAm2sdWm1YhbEVANCNIEB40GrDKoytAIBuAwECAACAKwgQAAAAXEGAAAAA4AoCBAAAAFcQIAAAoEMQrQ9srk3SrzZXAABwAzZXnS6zuTZSPgytAPQGsLkybobTnrW5tqK+US5fM7iuF/UyyxRNw9AKQC8Am6tJv9hcW1Ffp8HVXuaWLS0AoIuBzdWdoIZVZ7qg+XSayeOHlOdlc21FfZ07udX1BwB0Br1kc1W3mB49/xIN/u331e2lB1/6prqlFHp4XwWLh6e/QieX3qDQR/fMLAYyFEpSTkVIY8iSo9VSlKZeSanbJqlEmRZv8PAlmnRP9y1O98C4ZbP6q2D5ioNxSka21e2f4k7MN0+lfsVBiicjtJ3TlvO/6j0/RMmLL9PA3R2uwyClLp+hwZ1BOnN6iJdVr95qXc3Ud7da/l7kRToT4ZHDmTEaLW/Q9eVBW5nFQjVtYRe3mADoZgr5JXUtEHbzcq3JUz63REtyL6hgXCfMhZRbylG+YNxi0pcVzFtCfvlDe2W+3pyl7YU5urG2xpcdSVugXSk3x3k4r7qUOaZDk1MUXb9he5CZhX6LCTZXF2BfBQD0K7C51gH2VQAAwA/lPIF9FQDQ7yBAAAAAcAUBAgAAgCsIEAAAAFxBgAAAAOAKAgQAAHQIsLkegE60ubaqTu0kNl09aAAAvQNsrjrRDrS5tqhOAIDeADZXpq9srnq5ZT3dAB0785KrhTVwG33q6L2My9LNsFH7ttL3xUAsTi+P8TGzzHWw9o9LGwEArQE2V5N+sbkKVrn2dCNU9LCwBm6jTx29ljnNsCqtx75Ymee0v1BJ6rYRANACYHN1J6ihtBV21FbbUKU8L5urjjOdVxVa0UYvghww+voiYZ5Q78HaCABonl6yuaoAcez+hyogyOtRNEFPTn5KLZRgIYHj6fd+oqbroRqbNRqbTZRocdVc4MC5UYLm02kmTw0F7oaPpbkOMVVe+HKakpEkpZPe9+YaSXfQNvrhdcBYGOvLqL9sSHBPxpoXpO4AgIOxMn+NZleMi+/W/CzN8kh+fvYaXZuXZ8PwtLlsf2ueZq/Jd6LGnQZ92crsLK3wBdwvv5hdZbRCCz+ka5x+Vl7zK7Ql5fJoYp7zyvetaj3atHxJUQpwEYLN1YVmbK7N5AEAgE4DNtc6NGNzhQEWANBrIEB40IzNFQZYAEAvgQABAADAFQQIAAAAriBAAAAAcAUBAgAAgCuVAGG5mNRvHz4dV6/y+e+oeR+duWSmAgCA/uYg8kvD/zZpThnT0+YP5ESVocSfys0knqaYaWC1XtMV+4FXObbyVH7T56TNF5zTXqgAIQHg4Wf/WKk2jn/wLg3s5NXr5K0fqXkfn/6KSnzUSIOP2ubaSjNqqy2rrbTUAgAaw7ho17k2RcIUHktUld4yHTHyZtNEubk59WO33Mhlyk4UaGV+luYWS0QiBDU1GpV8LuVU3k1GwmJhYhzza6Y9UAHi8SefU7+iluAgiMVVXoLMk2X3v/yqmj5SOtHmanJUZelprXYBAFqLOs/kWQrcqUuPmfMm5dyzLKsxmhCzwVja6P2b6dUzGhzncunmIpUSWVvn0HCnrVYCQEHEawl/24FbOa1G2VzVB823JLeXhIHf5tW78OBL37SbXpXh1N0g2nM2V7NdNjOqHBwVo+rdg5VlbTcXQ6yzrPXNz2nbrkzRtLbe6CVu1zqth+pvT9kPAIBgxM6laHD5Ot1azdPOcJwGNzcdltVf0fXlYxQ/tkxv39pS6V8s36E72yEa4fNTzkG5CoitNUm36fp6lKbOlim39yJP56g8mqS924ZtVQiFomQIWfl6ORSnZGTbfh3xKCfH/6p3LigUGqJ4MkLbOV43d66t+dX81WmdGpvrwO9/rRYI8h3ERzJ6ePjAnONNv9hcrXXpZlS7UVU8R82XZU9vN8Q6y5qwbbst23otrHXU2w8AgGBE+DR0yi/rWVr9xJjiRlqkNGXMO0CrG44BgzzQoVTfueosp9UYt5iGn1MTghhd5XuHT2z+vTknOPpG9MOZLmg+nWby+OG3Q/V1HfTgcCvLmV5vlnOZ2PnqtVtfBwDg4LjJLwWbNLNB+WeBO6809kVjYnWRNhKvk/WFdDaxQYsLwU5iZzmlC0Y52exlu1H2QtYo37zl5Zx2Q91i+ij5f1PfNcjo4anCRuW7CB31wKBfr5hT9iGK8QCKHK2WeLjzSkrd/kglyrR4wz60saX7Fqd7YNxiWv1VsHzFwepQq7gT881TqV9xsHaYxf+q9/wQJS++TAN3d7gOg5S6fIYGdwbpzOkhXlbdOca6jNs8o6McEJY3aS+epDORKEXPjNFoeYOW10JNlyXbw5Z+bc+zrBvLIdu2KxaqbSgOGsPMGzLsDLA9q7UCAPiym+dTJk/5PJ9DS3l17uzK5zzPyy3Rkrr9U+BlfF7t8mdJz5/zBX7Xzn+xr8o5aLBL+aVFc3qXFy3xOni5ehWqD/KRsrTbSwqfcvJLVjn8bqXh9EtcHzVfynJOa+i3mJTNVf7EVf6K6fj/+X/Q0ys/NZMZSNCQUYX1fIh+oJVmVlheAQDdhG5zVSOIpwrrRMdP0MPRc3Ss/CHRJ06o6ft//G/p4emv8IjiZzyy4DR9wy7thUIU2tujPX5tbd0z5zdDK8sCAID2UjOCMOcDAADoc/A8CAAAAHVBgAAAAOAKAgQAAABXECAAAAC4ggABAABdQCMyTvFETYrdVTO6CoYd1lgWm6zO96LpAOFWWTc7aasMrDqwlgIA+g0/GadyvJnXWHHdZUa2aZUmKJtNUsI0uoo/L7E9R3Nz25RIZ4iKIxUNjxe2ACHPf3gUO0O7X/sB7WW+Z84l2j9+Qj0vQiewOTTaGgOrDqylAIB+Qy7wovdWolQxxar3SdUJ102yNMEBYXuV9rdWOBjkKiog0TttrPL1fH+FNihMkQIvG/GPELYA8fjZ0/TU1jp94h/m6cmJZ9S8Jyc/RffPv0ZPv/cTNW1RqaxELocG18JZcSvttJhQ+V2GN+I0Ug+6UCMNY56xAYxRh3NjqHKtdcu76HZlCKV/ttYjwykuo946AACgm/AVmY6EeXRgJvSlQNs04nubyRYgrOc+fPyFaRr82++recfK/0wnb/6VerKcG252Uov9fbtt1Msy6obNyuphIY2qkVORcgscFvXPDgOq13Mx9HUAAEAvU+TL4UjU6LiP8LgiSAyp+Q5CngUhT5ILPbxvzvHHzU7qRasto1vytKVchNKvZymyMFf5nJb4oBlQAwVTAADoVjSTbCFXcn1anJqfzlAmkybiTneBxx6J8HaNilzHFiDkewYJDsf+xXh4UPnCd9U8CRoDv91U85x4aXDdMNJm1S2mbKJEi9zZ1ys95h9fapBv5DMRHjqUSjSSyVY+LzpUuwdZBwAAdAL7K7M0u7JfeRdWZmdphS/w8r3C7DX+vLWlTK2lkYy6dSR3cebNR5XKsyPksaXz3LFW3+FOyLNl+CLsQ8tdTDJ8gb0UAAC6k7a6mCRiFYpye8d4ITgAAEB30vIAIezzMGfLfAEAAOhO2hIgAAAAdD8IEAAAAFxBgAAAAOAKAgQAAABXECAAAKBDsDRCjWCYW2OGWuiqIUw1tEIyLWLTWM10EJOr0HSACGpz1am3PCiwuQIAgPzuzDS3FohyYpMQU2t2oipJnZUfxW3VTBcCmFyFSoCQX0w7fUsff35azbNeOkdpVIXNFQDQqUxyL93oxU9yj31S9fCVSPTqjGZjNUShRhrp8MoowOj0hhMZnjbkpIZY1Dt/xdy6v2UoM0RQV7LkQhGaFLtrBW06gMlVGBgdHf0PovP+aOLrHC6eoj/4x3lzEUen+x/S8cI6Hf/gZ/Tkk8/R8Tu3zSXmUCi6TushrvylOA3E4vTyGNdteZN03ZIyuDqWF815sYE4pabitLO+SXvS6CsxGh5O0cXUOA3zkCl+MUXxu+u0+TlOPz5EsdQVSg0s03rUXDe/z0xxngHOMzVAS7lCZX2xWIpS8R3K5XfNmgAAQPspDozTVJQvwONTNLh8g/Lv52lnKMrB4BQlTpVoee9FipfmaPbWPYpNS5o5muc0Bb5UhaLjvOw6vb2yRg8kfy5HhYJP/vEURTZzJJe5UGySsulTtHh9je7d4zzlEO0NJukvpoZo6Z1b9um192koPk6hzU1yXiF/97vf0e9O/wlFf/N3xghCdN7iX3r6vTfV8yAEGTGIyTVU/pDK515TRlc3/GyugttyL6tr6eYCLSws0i+oxMMl/nyTo2lEHCScd5sDZalEYdERajhNr1K2bnINcp8NAABaxuqGciElw3wd496yPG4gWVyl1Vyp8mwGiyACU7/8FtIxziaLyrVkyffkh8qF1RxfTw2lt3M6CCpAPB7+jHoWxIN/dZkefvYltUDU34Lcehr4vSHvc6OezdVteaNW1yAbyELK1k2ufqZCAABoNSLO26YxCnPn1br+hJMZysizcdRUFSUwfd0QmFq3mNzwym+ZW6NJXhZOq9tVcjsqZt6WymQvq3oUJjL26QAmV0HJ+uTpcacW/qOaISOHUzf+kxo9SLCQoHHq7/6qYni1kFtMWZqjuWKGhzV8US6FKTxWoo0f8mhBW6mKbI7lq1HJw6OIDW5cgmhxThqQNcpbjXIjkpTT5i2OZCnNoaEUHqOx0pv0w+20kZb/lXcxG8p9P5qbM8q+zGXflNHGNs3Or5g1AQCA3kL+OimT4evlQmOdYbl+Z4pzNO/iytNlfbC5AgAAqACbKwAAgLq0PEAIsLkCAED305YAAQAAoPtBgAAAAOAKAgQAAABXECAAAAC4ggABAOh7GhGAGvZUw5g6KT9KM3+VrE87balKAcTLLGR62vxhnCgynObVSWVmtV7T1XV4lGMrT6uHPl9wTtej6QDRjM1VUA4nzgcjKwCgU/ATgBoXZUNyV7Gn0gRls0lKhEeM+eJB0qZrbKkR+aFwoqrylumIUbb8kDg3N6dMq7mRy5SdKNDK/CzNLZaIlIG1qs/wKqfybjJi1sM5v2a6DrYAUT7/HeVi2v3aD0h+XW0hMj9Rbugc1KjaSH59BwEAQKuxOq7yPsM9dsumKr3xCVFcjKVV775iT91aobm5XEX945x2s6WWbi5SKZG1daINL91qJQAURECX8LesupXTLmwBQnxMT22t0yf+YZ6enHhGzXty8lNK5vf0ez9R0xaVDSoXb3lIBY8eeDvW4KazFZz51cMuRH9bbwcBAEAb0QWgE1Sg1cVfUOkXizxvi6IjYSLLpu2D/GB4u0aKV6AFcS9lqsJR7tA35KUzqC2nXdgChAj67n/5Vfr4C9M0+LffV/PEySQmV+fzICzq2lwzCV4+xxt3nlZcflXttK9Kk/12EAAAdCv7W3ydpDRlzDtAqxuOAcNEgi+A9SOQs5x2UfMdxONPx+nkrR9R6OF9c44/egSsZ3N1Q5br9tWGgykAALSTwjbRWFo91tOyp9ZD7px42VILC4tc3heNidVF2ki8bn4ZfZWyiQ1aXAh2FXSWU7pglJM1ja3WusMXskb55m1657QfNlmffM/wic2/r5hbyxe+qz4f/+Bd+ujzf6ICh4XcCgpsczXtqtvFBVqNmNZW08Sq8mv21bntRK2hVb4Qej1BG28u8igEowgAwNEgt7yD2FPl+uhlS+10YHMFAADgCmyuAAAA6tLyACHA5goAAN1PWwIEAACA7gcBAgAAgCsIEAAAAFxBgAAAAOAKAgQAAHQBrTDOGpZYY5nTOOtGVwUIaazS4h5Q3AeTLACg2ziwcZave4ntOZqb26ZEOkPkNM66YAsQjdhcj4RoksKiv50/2J/PWhu6lZbYVpYFAABOKoJTfm/GOCuap41V+a3aCm1QmCIuxlknA6Ojo//B/MxB4DKd+PmPiR4/okfPTdIf/OO8srk+OPttOrH0hpnKQFVyKkbDAym6ODVAS7mCcZG8FKfYQJxSU3HaWd+kPbd0yvA6xeliNBTapOJQ/XzL6yGaeOWrlBiN0PCDHdoMnfPIM07x2A6tD12imSucf5jzp8ZpOBaj+MUUxe+u0+bneENHd+jYyy7lxVKUiu9QLr9rttSjrTyEuzo+RLHUFUoN3LWVVR6/ROfKvJ49GfGco7KzbmXvdQEAgBuh6DglKcf/JSleuk5vr6zRg/EpiuZu02ppmOLHluntW1sUG09RZDNHclkJhYYonozQdm6TBpNJolxO+e6i4+P8+TbtxccptLlJ+hXod7/7Hf3u9J9Q9Dd/Zx9BNGpz1a2r4ia3zK5ibp3bCFeGLzXpHIbXIPlqtLueeeYqI4zSzQVaWFgkzqXcKaJar4q2asvTrbLOe3PONuzzehe3OVCXxCElrqz6xlmrbvXWBQAArabIl5uRqASNGI3wNTGAtbz2O4hGba46Qd3mznRB8+k0k8cPp1XWT8QlxKavUrK4Squ5UvUhIQFpdF0AAOBLAOOsmp/OUCaTJuIOb4G73V7GWQtbgJDvGSQ46DZXmSdBY+C3m2qeH6vyEItsluThQNlEiRZXzQUOVLrXjXTybXrQfDrN5KlB26hSXvhympKRJKWTdb65MQkneWPLvT+ZcO4gc0eMqYV2mlkXAKC/2V+ZVZZr611YmZ1V9mz5XmH2Gn8WvZH6biGj7kyIG2/efGSpPENCHl86P29+2T0hd3L8L5wtt7n2AjDSAgD6lbbaXHsBGGkBAKDLfgdxmMBICwDodxAgAAAAuIIAAQAAwBUECAAAAK4gQAAAAHAFAQIAAIArXRUgOsHmGpueVqqNZgm67k43zlriMJhxAegsGhGH1ktbkfXJL6bvf/nfKUGfxcefn6by+dfUu7z0ZUdBKHaOUoPLB7a57hZylC+YG+dcuSFZ3lA8ToObm0p41QzWut3Q6+OXrhOwxGHvrKx1dD0B6DcmL130lJDuxA2RaPncVX7foaF0VTKaLxjXQV3WpwKE6Lw/mvg6jyeesgWB0P0P6XhhnY5/8DN68snn6Pid2+YSXsY9x76xuZrtGojF6eUxotIy19lqq5le1nd1fIBi8SiVN6N0SW8fr0+v19XoOq1HrfZx/a9w2ctliurti5rpQsG2qY7dNLusrSvAvvLcZvYyxSgpAULKttUThloAjpTijmZ2PZeiF8t36M52iEb42vKr68sUeeVbdKb8v9Pbq1u2tBY1Ntf7PEoQ/9LT772pngchiL1VTK6h8occbV5TRlcn/WJztda1Mj9PnKUyT08vCnbeNbyeVSJH+wS9XhZG+7j+N8OUmLDXxyLItnHe8rKbZqNqXuB95bHN3MrU8dt+AICjwSkGbXSwrwLE4+HP0ONnT6vnQTz87Etqgai/Bbn1NPB7Q95Xj6CGVWe6oPl0msnjh3ND6oZDfV2RME+od3v6lflZmstFKP16ltItrFsz7Qximm203Hpl+m0/AMAh4iMhjYrJdfGHtEhpmo5xJ05L64YKEMfuf6gCgrweRRPqIUGCBAsJHE+/9xM1XY+ghlWVrotsrsa6MjTNF8lE2Lg8OtPLs14zER5GcA97UdJr7fMifIHTTGv1d9lZzbbTZpp1oZly/cr0234AgMNDN7sqgyt/ljsFs/MrtCUm1639yrvNAusCbK4uHIbNVb7DydJcRdt7EGCfBQC0Cthc69BtNlfYZwEA7QABwoN221z1h360AthnAQCtBgECAACAKwgQAAAAXEGAAAAA4AoCBAAAAFcQIAAAoAtoRIwpuh35DZb8Cfzk9GTFbCC/17p61VgWm6zO96KrAkQ32lxbZTuFNRWA/mZrRX7w5v6Xj8qtZl4XxXWXGdmmVZqgbDZJibDyAKnfXiW252hubpsS6QxRcaSi2PHCFiDK57+jXEy7X/sB7WW+Z84lEpmfKDeOnGiSwqXFA9tcrQ2tb9RWopfrt1Od+NWnkXIAAL2HpdhXolQeBUyr90nVcZ4Qw8FYmufx9UPEcNurtL+1wsEgV1HjTCSINlbld1MrtEFhihR42Yh/hKjovgVxMZ34+Y+JHj+iR89NKrOraDcenP02nVh6w0xlAJurWecamyuv/8wYjTqtrG5GVR4GVg2pd+31iXJ9HEbWajlmG8vedQYA9BaWYl9MyvHSdXp7ZY0ejE9RNHebVkuawXU8RZHNHMnlIBQaongyQtu5TRpMJolyOSXsi46P8+fbtMfXq9DmJulXjhqbq4W4mO5/+VX6+AvTNPi331fzxOgqJlexuzoJbAh1putpmyuvx8XKKji3g92QKj6jaj4/e6rVRr86AwCATpEvE3IpkRHHCF8Ti+Z8P2q+g3j86TidvPUjCj28b84JTlBDqDNdM8bSZvL44Wcj1dcVxOZa57ZeBT9DalAjKwyqAABd9Fnga0a1I1xFzU9nKCNGV+6sFvhKlQhv+143bAFCvmeQ4CDPhhDKF76r5knQGPjtpprnR1BDqErXwzbXYh2Fro7NkOrIF8TICoMqAP2BpefRNT0rs7O0whd4m5VVfbeQUXcUxNM2PzuvgoAyu/LneTG5Sv4JuZPjf+GEzdUF2FEBAP0KbK51gB0VAAC67HcQhwnsqACAfgcBAgAAgCsIEAAAAFxBgAAAAOAKAgQAAABXKgFCfu8gv5Z++NmX1O8e5CVuJpn30ZlLZioAAACdTqNSUS9UgJAA8PCzf0xPv/cmHf/gXRrYyauX/GhO5n18+isq8VHTCTZXNyyJllu5QXaUlR8AANpJo4JSFSAef/I55WGS4CB8/Plp9RJknuVoOnI63OYK4yoA4KhQ1zN51gN3StNj5jwRgk5Pcsd6hjuhduurlV4MEV7XwYrNdeD3hl5DkNtLwsBv8+pdePClbyq7q0U/2VwnedQSXV+noqp3lNYHxm2mVbErimWxYlwNGe3xs7/abLGmpdHKBzsrAKBRYudSNLh8nW6t5mlnOE6Dm5tUKPDnoShfc09R4tSv6Prysar1ldO/WL5Dd7ZDNMLXQbmGyhWnxuY68Ptfy5tCvoP4SEYPDx+Yc7zpF5vr6gZRgss36r3qa1oVrLr52V/dzKtB0gAAgBtuUlE/6WcQ2adxi2n4OTUhyDMh5HuHT2z+vTknOHoF/XCmC5pPp5k8fvhuLI4QIr9KhjnQ8DrrmVb1unnZX912RpA0AADghptUVPASggaRfaoA8fD5l9SEjB6sL6qdPFXgbnQdjAr2ns1VTInbxBuYRzTWRdvPtGrUzd/+6kaQNAAA4IZua529Nq8sr1vyeZ7nzV6ja/Nb6lpmWV9Vev4sd2Fm51fMUuwom6v8iav8FdPx//P/oKdXfmouMpCgIaMK+aK6X2i3zRW2WABAp6LbXNWX1E8V1omOn6CHo+foWPlDok+cUNP3//jf0sPTX+ERxc94BMFp+oZd2guFKLS3R3v82tq6Z85vFe0uHwAAmkP/khrPgwAAAFABz4MAAABQFwQIAAAAriBAAAAAcAUBAgAAgCsIEAAA0AU0IhkVB5P8xkz+pH5yerJiZZgU75L4mnhZbLI634uuChC9anMFAIB6+MlAdfGouO4yI9u0ShOUzSYpER4x5vP1KbE9R3Nz25RIZ4iKIxVFkRe2ACHPf3gUO0O7X/sB7WW+Z84l2j9+Qj0v4siBzRUA0KdYHVElShULq3qfVB1n3dJKExwQtldpf2uFg0GuogOaSBBtrBpmiA0KU6TAy0b8I0TF5irIL6ZP/PzHRI8f0aPnJpW99cnJT9GDs9+mE0tvmKkMYHNtoc210lZuyxXOJ+l5iKivQ8q22gbLKwD9h2V9lutNvHSd3l5ZowfjUxTN3abV0nDV0jqeoshmjuQyEQoNUTwZoe3cJg0mk0S5HIkmLjo+zp9v0158nEKbhsXVosbmamE99+HjL0zT4N9+X807Vv5nOnnzr9ST5ZzA5to6m6vRVm7LzbBal9s69LYBAEAjFPnSI5cSGXGM8DWxaM73o+Y7CHkWhDxJLvTwvjknOEENq850QfPpNJPHD1+T6iHZXHXqrQMAACpo4tECXzOqHeEqan46Q5lMmog7pAXudifC277XIluAkO8ZJDgc+xfj4UHlC99V8yRoDPx2U83zI6hhVaWDzdVG+AK3ZdreFr91AAD6i/2VWZpd2a+8Cyuzs8raqltaORKoDq3cpdjf36L52Xl13dJtr+q70gnjjogfcDG50G7bak35IwlKb89VdjoAABwVcDHVQaJuoSi3g4xXq1XczvJlIAMAAJ0GAoQH+zxU2zJf7UAvXx8yAgBAp4AAAQAAwBUECAAAAK4gQAAAAHAFAQIAAIArCBAAANAFwOZaB2lsp9hcrTIsgdZhc1TrBQAcDbC51qODbK5BzK2ttsUCAPoXq1Oo5J6wudrzHaXNtdpW3bYqZaxXTa6mwbVanzLF3errWj7nrTG3OraZI4213oEpp2l2itMNUCwepXJ5nC55rBMA0F3A5uqT7yhtroLTtuqktj7By3c3t1bbLtvMyyBrmWYtr0pUjSaL3F7uKtRpEwCgf4DN9QA0alt1Uq8+fuUHMbd6plGm2QnKJAzT7Nb8LM3lIpR+PUvpA7YJANAlwOZqp5k8NQS0uQputlUd1/o0Un4Ac6tbGrmfmKMLNFbKqR0tf6WQifAwgkcai3XWCQDoHmBz7RDabVutKf+Atlh54h3NzakDBQAADgJsrnVot221VbZYCTQyYkiUFhEcAAAtByMIAAAAFTCCAAAAUBcECAAAAK4gQAAAAHAFAQIAAIArCBAAANAFwOZaB2lsP9tcW1FvAEB3AptrPXrU5ho0XSvqXY92lg0AaB6rM6rkobC52vP1qs1V7Vw9XZTrXWkD53FYXuvV27fd1nbW0/ps43wB9lcAOgXYXH3y9arNVX5VracTrDa4G1z9y5VUXu12TeuzjQEAvQNsrgfAz7YahHr1aab8IJZXZ7l+m6SRtACALgI2VzvN5KmhU2yuWjonrpbXBuqtEyitT10AAEcHbK4dggzBusnmCgAArQIupjp0i80VAADaCQKEB/s8VNsyX/qQrlXo5QMAQCeCAAEAAMAVBAgAAACuIEAAAABwBQECAACAKwgQAADQBcDmWgdpbD/YXNtRJgCgu4HNtR49anNtBNhWAehPrI6jkofC5mrP16s2V6FmewwGK7M8fonOlbk9ezKyOkdl5zYoe68TANBdwObqk69Xba6Cc3tY1CvTC2sb1GsTAKB/gM31ADhNp4dpc/XKe9A2HrRNAIAuQZNswubKNJOnhgasqO20uaq82vawqFemvsPHOBg4qdcmAED3AJtrh1BjW4XNFQDQJ8DmWgfYXAEAoMt+B3GYwOYKAOh3ECAAAAC4ggABAADAFQQIAAAAriBAAAAAcAUBAgAAugDYXOsgje0Em6slzQIAgMMCNtd6dJDNtR3A1AoA8MLqmCp5KGyu9nxHanO12mUt23vRbls15/uu02qjntanffkCzKsAgCqwufrkO0qbq3NZ1Ge+1zpd0/q0DwAAWglsrgfAz3zqXGat1mu+G42kBQCAhoDN1U4zeWpowLbqtswvj5NAabX6AACADmyuHQJsqwCAfgU21zrAtgoAAF32O4jDBLZVAEC/gwABAADAFQQIAAAAriBAAAAAcAUBAgAAgCsIEACAvqfdplTDszZpThnT05zO+DxpSEj5JS4lo1xj2nhNV8ryKsdWnlYvfb7gnK5HVwUIaThsrgCAVtN2U2okTOGxRPW6IdMRo+xsmig3N0ezs7OUG7lM2YkCrczP0txiiUjkpOYP3Sr5XMqpvJuMmPVyzq+ZroMtQMDmerR41afT6glAr3EYptTSzUUqJbLKR2dhOOVWKwGgIPK2hL+Vwa2cdgGba4fbXNUBqs0fmrpE0fV1KqptGKX1gSmzHN4OV+I0sMzb01lfrS0AgFrabUo1yr9N19ejNHW2XLmGlEeTtHfbyCeEQlEyiuLr5FCckpFt+7XIoxypt3rngvR67XKn2ppfzV+ddgM2V0V32FzlV936/NUNs4OheVSMcng73AyrZX5tAQC0nqCmVPEhLVKaMuYdoMr5bCFDkVJ9z6qznHZR8x0EbK4dbnPlI0qGrpkEByCPQvzaAgBokBabUgvcgaSxLxoTq4u0kXi98oV0NrFBiwvBrg7OckoXjHKy2csU5jpY6w5fyBrlm7epndN+OG4xXaGn196y2VwfP/MChR7dpycnn6XjH7yr5gv6UMUYUuV4KMbDnldS6tZRKlGmxRv2IY4t3bc43QPjFtPqr4LlKw5Wh1zFnZhvnkr9ioO1wy3+V73nhyh58WUauLvDdRik1OUzNLgzSGdOD/Gy6k6SddmW7Y2o/Dd4mOc2322dnmn19u1W61PY1YaVe9r8e+9TOX6FvlpepBv5e6qd6QtJGh7mOo4a2yHP29erLQAAFwrGuVh5Vx+tWz8Fyi3xZz4nQ3tlPl/PUnlzk+7t36N8Lm88bGc3z6dwnvL5HMnpFpqcouj6DXUrSqGVy4kpv7RoTu/yoiXOy8vVq1B9eI+U6bw97FNOfskqh9+tNJx+ieuu5ktZzmkX9FtMsLm6IMPEo7S51lv/JEd/mptTml/5LihLcxX9LwAAHATYXOtw1DZXr/VL4JC/j06UFlVwAACAdoIRBAAAgAoYQQAAAKgLAgQAAABXECAAAAC4ggABAADAFQQIAEDf0wqbqz7d9zZXtw0am+YNp22Uo0I20FFbX4NuC9fteID1AgAa58A2V77I69OFfre5+m3QIyfaPdZXt+3Y0dsWgB7koDZX57T8YrkXbK62APH42dP01NY6feIf5unJiWfUPLG53j//Gj393k/UtEVlg8rFUx6SwT1m3o41ODe4mmfmmeahmjV8ck2njKXSmzaHdAHyOXeodx5jhKE+z/ByHtLJvGlux/QMv8v6eNlVLsO1PBkCOoKG27Zwpq9pk1qH+c7DwmkZGlrzArQXANBafCWhI2HyNPFpyI9dt2lEnbNVCrTAo4JExtJ9qg59E0652nLahS1ANGpzFYwIuMBDonni7ehKjc3VzNOL1lfntnCmn3C0ySKqRoRFXv8qr9EgSHsPoxcBAGgNfWdz1SNgJMwTAQgaNZ3pmom2zUVob6Q8P+urc1s405NHfbbknmMuQunXsxzkDFpddwBAEwSwuTqROwWwuZqW0qlXjIfTjI6WqLS8WekBC/1mfXVuC2mDnv7GcsjWpuKgsY6B8as0zqOBU6fKtF46RS/yPGPb1m9vtQYAgKawLKmaLbUhm6titzINm6sH8h3AUZpQD5N+aisAoD9oq4vpqE2oh0k/tRUA0H+0PEAI+1tbfLE0Xr1OP7UVANBftCVAAAAA6H4QIAAAALiCAAEAAMAVBAgAAACuIEAAAPqeRgSZhs01ZuhzRK1j2gwMA6uh0Ol7m+tRIA0/aktrPayy9bo2s7521tEPyw0FQD/RsM21QJRbmKO5uW1KZCfUeZPYNqfTGaJ+t7keCdHOt7RWDjStrkHtrHp9WmV0bUcbAeg1dGlmIJvrPp/XctEWiVqpqBRKG6vy26gV2qAwRQq9YXN1qDYu04mf/5jo8SN69Nwk/cE/ziub64Oz36YTS2+YqQzUhpyK0fBAii5ODdBSrmBcjC7FKTYQp9RUnHbWN2nPLZ0ymk4phYTSTQzVz7e8HqKJV75KidEIDT/Yoc3QOY884xSP7dD60CWaucL5hzl/apyGeUgYv5ii+N112vwcHwzRHTr2skt5sRSl4ju2n6FP8kggur5ORVXvKK3vjNvSqnVp660pOyrz1mm96Gj357jd40MUS12h1MBd9zyhYNtURx3s4wMUi3OdzozRqN82c+4LU/2xM36VLg2taz/rB6B3qSh3+N946Tq9vbJGD8anKJq7TaulYYofW6a3b21RbDxFkc2cUmioZ0CkT9Hi9TUaTCYr2htDgXOb9vj8C21uKnWGUf5tui76nLNlyu29qNZXHk3S3u2qLicUipJRFF8nh6rKIAuvcipaIC4oFBqq1QaZK9DVR17oqg3bCKJRm2u/WFot46JR79WatCLd1dfrLNvC2e59fl/c5g5JqUQyInTNE3Cb6lTNsNzmOtvMWScF907S2zz6acEIBoBeRN0aShYrt3+KfCkY4QuBjDhG+Hrj5WPtO5urTiSgfdSZLmg+nWby+CHleVlaZS+WRjKUDHOg4XU60wathrPOsemrlCyu0mquVH3QiINm2ulmhhXcyvIsv80HHgBdg4vNNZoco3A4zaNv+Z5xkrv8PD+doUwmTcSdtwKfebC5mkOVXre0yohgKH6RRu/M0TsF7i3wum1p90Zq17tXras1T9lZtXbvRZJ0JhKlqNwGKm/Q8lqoUp/ioDF0bMboKn8BUTHD3t6mF7U2OsvKO/aFusVUmqO5vVfo6rj9VhsAPYtlSdVsqX421+2FObqxtsanHqfna8WumFdzecrncySXDthcexgZJnaTpbXb6gsA6FzaanPtBbrN0gqrLACgHSBAeNBtllZYZQEArQYBAgAAgCsIEAAAAFxBgAAAAOAKAgQAAABXECAAAH2D5VxqhCD2Vuc0bK5HgDS8022ujXCY9WjmxACg3wlqb5VzuadtrvIraqdv6ePPT6t51uvIiXa+zbUe+joPUo+jqDsAnYDIM6UXb0g/J1UPX3rV01dnNCOr0ZE00khHrNrTDycyPC1pzF62T/6g9tZ0L9tcRef90cTXOVw8pQyuFqH7H9Lxwjod/+Bn9OSTz9HxO7fNJbxMNmKf2Fytdg3E4jR1kd+XNynEQ8BzZS5rT0Y156is1s/pKnbWZVqP1mmDMrY2UA9uHyytoN8pDozTVJQvwONTNLh8g/Lv52lnKMrXlVOUOFWi5b0XKV7iHvmtexSbljRzNM9pCnwqifZGt7UO5nJUKPjkD2hvlf56SZvuKZvr/fOvKf/S0++9qZ4HIciIQUyuofKHVD73mjK6OukXm6u1rpX5eeIsntjtrOJ49W+DQQP1UKNGWFpBn+OQZ/pJLyMBZJdBpJnSSfSzt244pnvK5vp4+DP0+NnT6nkQDz/7klog6m9Bbj0N/N6Q99UjyM4QnOmC5tNpJo8fUp6XzVVfVyTMEx4EOdDq4VcPWFoBMG7jbNOY3ViazFBGHuyjpqqsLpYoweeLfovJDa/8Qe2tcs73rM310fMvqec/yO2lB1/6prqlJLpvCRYPT3+FTi69QaGP7plZDPShis3S2oM2V2Ndxm2f0VG++C9vUr4cpVQ6TtHoGRobLdMGz+MV2e2s1vBPb8NudZ2WsTVoPWBpBcCgkK8aS3fzcg7lKZ9boiU5rnXjqRhRl8Swatxi0pdZtla//EHtrWo9sLn2BzJM9LKjxqanKbKwQCsuPYNW41cPAABoB7C51qFT7KiwtAIAjhIECA+87Khb8/OHMnqwgKUVAHBUIEAAAABwBQECAACAKwgQAAAAXEGAAAAA4AoCBACgb1C6mgallW4214o4lF9iYBVgcz1iKjvlgJK6VltUmznoWslRrx+AXsXL5kpRUxw6K8LNLXUOwuZ61Fg7pYttrkHo1HoB0Al0gs3VIEKT5ujBaXeFzVU2Yp/YXOWAjK6vU1HVO0rrA+M2a6ul7lgPme0wy9iJX3IxvlbrqK9DjQJgagWgLp1gc713j/OUQ7TH595fTA3RHZGcSVlcP9hcTfrF5moZF416c2+C1+m0tgrOMrxGcnodLWBqBSAgHWBzFeTHq4XVHF9fZFQBm2tdguwMwZkuaD6dZvL4IeV5WVSDHpDOMurv5iowtQIQjE6wucbM21IZ05zaqzZXJevby3yPTi38RzVDRg6nbvwnNXqQYCFB49Tf/ZUaYejILZEscU+Ye6xyC4bm5mg1muEhGPd4N3hjcSBcnOMNNZF1T3eZ090s0XaRNy41kC+ZU71v48sd7zxW/eZWo7wTeVClLZ/jf41lE5R9PUEbby5yHZKVOoVHtnkdK2ZLDSanZyix/UNVtgSINIeGUniMxkpv0g+300Z5xWq7pIy53Ij6AqpUCtPYWIne/KG9jjryVwsjPPIw2rLNgUKrl7Odzu0X0do1cvDvaAAABjIiyGT4+sEje7eLvRdy/ckUeZTfhf40XdYHm6sLclC026J6GOsAAIBGgc21DodhUYWpFQDQ6SBAeHAYFlWYWgEAnQwCBAAAAFcQIAAAALiCAAEAAMAVBAgAAACuIEAAALqG2LRhU61HM0JOpbsx8xgGV/E9aWZU/qwbXS2c83vF5Cp0VYBQO0I2WoBfAPrRapvrYdHueusnCADdjCXkbIaKwZUmKJtNUsIyozI2o6uGPr/QIyZXwRYgyue/o1xMu1/7Acmvqy1E5ifKjSOny2yurShfL+MgBz0A3Yo6B6R3zqOH9Jh9nuq58/nhtLZanR15n5kx0omhdZrLmJ7hd5VGzq2qxbWCZXDdWuGLfq6i03E3urrM7xGTq6BsruZnpdU48fMfEz1+RI+em1Rm1ycnP0UPzn6bTiy9YaYyUBu+T2yuQeo7xAeg3dxaprhW37yoJE3UtvOsG5ddMcXetdcxeonrvV5jjVVttdpdPlorLQCtJnYuRYPL1+nWap52huM0uLlJobMperF8h+5sh2iEz49j0VEKOaytylrK/8bvXKfr75RoODlIuesLtPYgSanBHK2t1FpcJU9pRDO46mZUrotudNWPepvpdf8eDXWpyVWosblaiKDv/pdfpY+/ME2Df/t9NU+cTGJydXseRL/YXIPW1469fCdedbObYsXBVVuGs67ik7Xa7deOw7DSAtBqInw4WnLKSJgn1Dsff5oYUyx7jco7g1hcdaQD7DS6Cl7znXSbyVWo+Q7i8afjdPLWjyj08L45Jzj6jvTDmS5oPp1m8vjhPOD0Hd2K+gYlyEHrrKteFb92HIaVFoBWo4ys2Yy6TZTgY9eaF76c5l52ktLJCSNNAGurEzeLq2VwdeI0usotL1lXjemVR+i9YHIVHLeYrtDTa29VzK3lC9+lx8+8QKFH9+nJyWfp+AfvqvmCPlwxHpCRo9USD31eSalbMalEmRZv2Ic5tnTf4nQPjFs2q78Klq84WB12FXdivnkq9SsO1g65+F/1nh+i5MWXaeDuDtdhkFKXz9DgziCdOT3Ey6o7Sq2rTn0L5Sil0nGKRs/Q2GiZNpZ5fbvV8gu7zqGie91+dSpJZyJRispDg8obtLwWqpRRHDSGlDd4iGmr696IUR5XWerq1Q4Z1QzFL9LonTl6p7CvhsG2dZlDVmf5t3Oh2rZp2xqAtrKb59M/T/k8H29LeaNDJPOWcpQv8Lsc49q0uptbMI9N6512Kc9lqLPQnLcr5eW53NwSLcmtHHN+aK/M15yzVN7cVLeLrHy7eU7H16GcvHid0XicimubtOWYvzc5RdH1G+oWlaJSB4HrsbRYqVOB163yqVfBqJ8g7dFuLyl8yskvWeXwu5WG0y/xNjHqZbTPNu2BfosJNlcX5K+lWmlabXV5QTmq9QIAuhfYXOvQatPqUZlbYYwFABwEBAgPWm1aPSpzK4yxAIBmQYAAAADgCgIEAAAAVxAgAAAAuIIAAQAAwBUECABA39CMkNIwu9aaXA3ravWHefp0rxhduypASMNhc21NvYNqk3Ws9TdzkgHQjVTMrgWyGVvlHEhsm9PpjDo39GnqEaNrJUDIr6idvqWPPz+t5lmvIycKm2u7ba5+dYZNFnQCIp2Uzo0h0ZxUPXzdyqpkmGZH0ml5FcKJDE9LGrOX7ZO/YnZ1GFtFm7SxKr81WqENClPaMR0p9IbRVak2ROf90cTXOVw8pQyuFqH7H9Lxwjod/+Bn9OSTz9HxO7fNJbxMNiJsrl1lc7X2z0AsTi+P8YG2zG2x9plKP0DHzrykrY/L0myv61HZbuuk2yMBOGyKA+M0FeUL8PgUDS7foPz7tVbWeIl75Lfu8UhZ0tgtr/HSdXp7ZY0eSP5cjgoFn/zjmtlVM7YOGtpVpf0QFZD010vaNOVu016XGl1rbK73z7+m/EtPv/emeh6EICMGMbmGyh9S+dxryujqBDbX7rK5WvVemed1/KI6r5p+hIra+rxsrwAcKQGlk0KED+96Ys0ggkzpXOnG1iInlFNCbnuPcK4Nx7SX4LLbjK4qQDwe/gw9fva0eh7Ew8++pBaI+luQW08DvzfkffUIsjMEZ7qg+XSayeOHlNfrNle93l7aZL2sIHUB4LCR2zjbNGa3lrpYWYWgllev/JbZ1WlsJZmf5jyZNBHXQ84RfbrAXdpeMLqqW0yPnn9JPf9Bbi89+NI31S0l0X1LsHh4+it0cukNCn10z8xioA9VYHPtDpursc2M20mjo3zR5zrKvrClX9urrG8v8qKr7RW3mMBRU8hXraVeVlZzobvlVX00bu345bfMrtsLc3RjbY0vQ5K2wOc2l2saZtUp5pgOdbHRFTbXOsgwETZXAEA/AptrHWBzBQAA/FDOE9hcAQD9DgIEAAAAVxAgAAAAuIIAAQAAwBUECAAAAK4gQAAAuoagkslmxJaiwLEkeIbBVXxPmhmVPzuNroJzfq+YXIWuChBqRwT8BaAf3WRz7aa66ugnGwCHzUHEkhWDK01QNpukhGVGZXSjq44+v9AjJlfBFiDK57+jXEy7X/sB7WW+Z84lEpmfKDeOnGj/2VxhUAX9jjqPpHfOo4f0mH2e6rnzOea0tlodFCXGnDHSiaF1msuYnuF3lcbokVsW1wqWwXVrhS/6uYpmxml0taiZX+gNk6ugVBvmZ+ViOvHzHxM9fkSPnptU6o0nJz9FD85+m04svWGmMlAbHjbXNttcqwZVeXduRx3XbW/NM9u0E7/kqOMmfY5Pmuj6OhVVG6O0PjBV3YY+ZlhRLtvzjdvqbek4nOZZtzro+83r5/+gf4mdS9Hg8nW6tZqnneE4DW5uUuhsil4s36E72yEa4XPsWHSUQg5rq6WFid+5TtffKdFwcpBy1xdo7UGSUoM5WluptbhKntKIZnDVzahcF93oqh+p+vx7+/doqEtNrkKNzdVCBH33v/wqffyFaeVmEsToKiZXt+dBwObabpur3aDq3I46bnVytsltdGnZJI02rqp5Qcywznxe9Q5SB0HfbwDoRPgQqieZFMteowLNRmWU0gnTja4WXvOddJvJVaj5DuLxp+N08taPlKyvUfQd6YczXdB8Os3k8cN5wOk7uhX1DUqzBlW3Ojnb5HroOdTJOn7bxJnPq96B6gCAD8rIms2o20QJPt6seeHLae5lJymdnDDSBLC2OnGzuFoGVydOo6vc8pJ1OefHeFTdCyZXwXGL6Qo9vfaWejaEUL7wXXr8zAsUenSfnpx8lo5/8K6aL+jDFdhc22hzdRlGWtujWkPL1GqvU95har2dC9XU8d5+gYfDF2n0zhy9U9i37Vc/M6yMkPR8MqR2q7fTPOtWB32/AVCDZkrNLeWN416ztKrjUpu2WVsr9tNdynMZ6iw053lZXC2Da3lTzo97lXy7eU4nFlR58Tqj8TgV1zZpyzF/r4tNrgJsrnWQv5bqdJtrO8r047DXBwA4GnSbq20EASx2aS8U4p7EHu3xa2vL/iyMxml1eUI7yvTjsNcHADgKMIIAAADgCp4HAQAAoC4IEAAAAFxBgAAAAOAKAgQAAABXECAAAH1DMxJJw+xqN7YKhnW1+sM8fbpXjK5dFSCk4bC5dh5BFcw6VruaOWEBOCwqZtcC2Yytctwmts3pdEYdz/o09YjRtRIg5FfUTt/Sx5+fVvOs15EThc21m/BrPyy1oFlEFCkdEkOiOal6+LqVVckwzY6k0/IqhBMZnpY0Zi/bJ3/F7Oowtoo2aWNVTK4rtEFhSjumI4XeMLqqH8qJzvujia9zuHhKGVwtQvc/pOOFdTr+wc/oySefo+N3bptLeJlsRNhc+9bmaq1vIBanl8f4oF3m7WJb3wAdO/NSdftGuSyXdukKEQCCUBwYp6koX4DHp2hw+Qbl36+1ssZL3CO/dY9Ht5LGbnmNl67T2ytr9EDy53JUKPjkH9fMrpqxddDQrirth6hvpL9e0qYpd5v2utToWmNzvX/+NeVfevq9N9XzIAQZMYjJNVT+kMrnXlNGVyewufavzdVa38o81/cX1XnV9CNU1Nrv1y4AGiKgKFKI8CFZT6wZRJApHSLd2FrkhHIYy23vEc614Zj2klJ2m9FVBYjHw5+hx8+eVs+DePjZl9QCUX8Lcutp4PeGvK8eQXaG4EwXNJ9OM3n8kPJgczXnmQTdJl4KZr24ZtsFgBO5jbNNY3ZrqYuVVQhqefXKb5ldncZWkvlpzpNJE3E95LjWpwvcpe0Fo6u6xfTo+ZfU8x/k9tKDL31T3VIS3bcEi4env0Inl96g0Ed2944+VLFZWmFz7Qubq7E+43bS6Chf9Lks2a+29Gt7lfbvRV6s2y4AglLIV62lXlZWc6G75VV9NM4hv/yW2XV7YY5urK3xaSdpC3xuc7mmYVadFo7pUBcbXeFiqoMME2FztXPY6wMAHA2wudYFNtdaYHMFoB/ACAIAAIArsLkCAACoCwIEAAAAVxAgAAAAuIIAAQAAwBUECABA1xBUDNmM5FIUOJYEzzC4htSfd1fMqPzZaXQVnPN7xeQqdFWAUDsi4C8A/Wj04Am63oOYV4Mc+H7lH2TdOlY5zW5r/SQD4Kg4iAyyYnClCcpmk5SwzKiMbnTV0ecXesTkKtgCRPn8d5SLafdrP6C9zPfMuUQi8xPlxpETPSKba8D1tttQ6le+27Kg7dPTVcpp0bYG4KCo41N659yJSo/Z56meOx+7Tmur1VFRYswZI50YWqe5jOkZfldp5LivWlwrWAbXrRW+6Ocqahin0dWiZn6hN0yugu2HcuJiOvHzHxM9fkSPnptU6o0nJz9FD85+m04svWGmMlAbvg9srtKTtq03yuVW1uFuKFXv4wMUi0epvFkk6wft6oDU04eMdtuMqNIG33q7m13VCWFbN9dRtBZ1633Xvh04nXPb6CZaUS3b7a/jtjZZ6gyrbX4mWX1/ef3sH4DYuRQNLl+nW6t52hmO0+DmJoXOpujF8h26sx2iET5Oj0VHKeSwtloql/id63T9nRINJwcpd32B1h4kKTWYo7WVWour5CmNaAZX3YzKddGNrvoRq8+/t3+PhrrU5CrU2FwtRNB3/8uv0sdfmFZuJkGMrmJydXseRD/YXKV34LSyWuvwMpRKR4KoyOus9g4EZ3qrDboRVfCvt4GX2bW6bs4XqN7i+bKnc24bHaf91XMbOLan18hW318AuBHhQ6meGFIse40KNBsVSEoHWDe6WnjNd9JtJleh5juIx5+O08lbP1KyvkbRd6QfznRB8+k0k8cP5wHnt6MtvA6wLbmHmItQ+nX7UNCZXm+DdeAfFH3d+rGncyCzakDVsnN71j/sAXBHGVmzGXWbKMHHnTUvfDnNvewkpZMTRpoA1lYnbhZXy+DqxGl0lVtesi7n/BiPrnvB5Co4bjFdoafX3lLPhhDKF75Lj595gUKP7tOTk8/S8Q/eVfMFfbjS6zZXfbint1uGkW6G0oHxqzTOgeHUqTKtm0NTwZn++vJgjRG1aNXRr97Wu75tzDS2dd/ephfN9hUHzeGoW73XQpXtUEm3VzvENbDbX722wQ0eBtczyer7CwBPNFNqbilv3JLRLK3qXNWmbdbWiv10l/JchjqazXleFlfL4FreFNvxvUq+3TynEwuqvHid0XicimubtOWYv9fFJlcBLqY6yPcOrTCXtqqco6QX2gAACA5cTHWQ7x0KRbk9YryavSC2qpyjpBfaAABoDgQID/a3tvhiaLwOQqvKOUp6oQ0AgMZBgAAAAOAKAgQAAABXECAAAAC4ggABAADAFQQIAEDf0IxM0jC72o2tgmFdrf4wT5/uFaNrVwUIaThsru5pjsLmGlS9rFMpn98bPVEBOGwqZtcC2Yytcvwmts3pdEYd1/o09YjRtRIg5FfUTt/Sx5+fVvOs15EThc21G2yufutt9zYCvY8II6VjYkg/J1UPX7eyKpGo2blxWl6FcCLD05LG7GX75K+YXR3GVtEmbazK74RWaIPClHZMRwq9YXRVqg3ReX808XUOF08pg6tF6P6HdLywTsc/+Bk9+eRzdPzObXMJL5ONCJur3c7aBzZXax/b6mztd7XtBujYmZe08ty3ka4LAaARigPjNBXlC/D4FA0u36D8+7VW1niJe+S37vEoV9LYLa/x0nV6e2WNHkj+XI4KBZ/845rZVTO2DhraVaX9EN2N9NdL2jTlbtMen4PdaHStsbneP/+a8i89/d6b6nkQgowYxOQaKn9I5XOvKaOrE9hcPUymanTXmzZXtzrbt90IFbW8XtsIgKYJKIwUInxo1pN6BpFXSsdIN7YWOaEcztKBHOFcG45pLzlltxldVYB4PPwZevzsafU8iIeffUktEPW3ILeeBn5vyPvqEWRnCM50QfPpNJPHDykPNtf6uNXZue303XKQdQHghtzG2aYxu7XUxcoqBLW8euW3zK5OYyvJ/DTnyaSJuB5yfOvTBT77esHoqm4xPXr+JfX8B7m99OBL31S3lET3LcHi4emv0MmlNyj00T0zi4E+VLFZWmFz7Wmbq7Hd7XWW/Wnbdmt7lfL2Ii+6biPcYgIHoZCvWku9rKzmQnfLq/po3Nrxy2+ZXbcX5ujG2hqfapK2QLuaYVZdKhzToS42usLmWgcZJsLmatALbQAABAc21zrA5loFNlcA+hcECA9gc60CmysA/QkCBAAAAFcQIAAAALiCAAEAAMAVBAgAAACuIEAAALqGoILIZuSVSldj5jEMruJ70syo/NlpdBWc83vF5Cp0VYBQOyLgLwD9aPTgCbreRsq1DvRmDuRm0U8AAHqZg0ghKwZXmqBsNkkJy4zK6EZXHX1+oUdMroItQJTPf0e5mHa/9gPay3zPnEskMj9Rbhw50d6zucJuCoA/6jyV3jl3qtJj9nmq587nsNPaanWGlFR0xkgnhtZpLmN6ht9VGqNHbllcK1gG160VvujnKooYp9HVomZ+oTdMroJSbZiflYvpxM9/TPT4ET16blKpN56c/BQ9OPttOrH0hpnKQG142FxdTaWeNldz+zjtrZJnYOoqRdfXqai2TZTWd8Zt9VHt0drmVr5okG1lDHAZWv0svYVlkbXK3olfonNl3i57MlI6R2XHtvT6ST4Ah0HsXIoGl6/TrdU87QzHaXBzk0JnU/Ri+Q7d2Q7RCJ+bx6KjFHJYWy2lS/zOdbr+TomGk4OUu75Aaw+SlBrM0dpKrcVV8pRGNIOrbkbluuhGV/2s0Off27+ndDbdaHIVamyuFiLou//lV+njL0wrN5MgRlcxubo9DwI2V3dTqZfN1aqz094qWFZHY9us1tRHSrfW61W+swzP+jnK9hp16tsSgKMiwodrPUGkWPYalXc2KpKUDp5udLXwmu+k20yuQs13EI8/HaeTt36kZH2Nou9IP5zpgubTaSaPH84Dzm9HWzRqc9XrXGNvdSiMnfXRm+pVvrMMr/o5y65/SAJwdCgjazajbhMl+Ni25oUvp7mXnaR0csJIE8Da6sTN4moZXJ04ja5yy0vW5Zwf4xF8L5hcBcctpiv09Npb6tkQQvnCd+nxMy9Q6NF9enLyWTr+wbtqvqAPV2BzDWZzdTOhWhbWtUKBy7tIo3fm6J3Cvkprq8/eSGW98lcObuXLqEgvw6t+N3iIqpd9OxeiVDpO0egZGhst0wbXyzk8BeDI0EypuaW80VnSLK3qXNWmbdbWiv10l/JchjpXzHleFlfL4Fre3FS3i6x8u3lOJxZUZUItUDQep+LaJm055u91sclVgM21DvK9QzfYXNtdPgCg/4DNtQ6tMpi224Ta7vIBAP0NAoQH3WJzhWkVANAuECAAAAC4ggABAADAFQQIAAAAriBAAAAAcAUBAgDQNzQjrDTMrrUmV8O6Wv1hnj7dK0bXrgoQ0nDYXIMRVIusY9UF1lcADCpm1wLZjK1yjiS2zel0Rp07+jT1iNG1EiDkV9RO39LHn59W86zXkROFzfWg+LUZZlnQDYiUUjo/hvRzUvXwdSurEomaHTqn5VUIJzI8LWnMXrZP/orZ1WFsFW3Sxqr8FmmFNihMacd0pNAbRlel2hCd90cTX+dw8ZQyuFqE7n9IxwvrdPyDn9GTTz5Hx+/cNpfwMtmIsLl2lM3VtXxrn6hyBujYmZe0trjXX7dDAtBpFAfGaSrKF+DxKRpcvkH592utrPES98hv3eORtKSxW17jpev09soaPZD8uRwVCj75xzWzq2ZsHTS0q0r7ISog6a+XtGnK3aa9eHcaXWtsrvfPv6b8S0+/96Z6HoQgIwYxuYbKH1L53GvK6OoENtfOsrm6lW8vZ4SKWlu86g9ARxNQSilE+PCvJ/UMYnWVzpdubC1yQjllpAM5wrk2HNNeAsxuM7qqAPF4+DP0+NnT6nkQDz/7klog6m9Bbj0N/N6Q99UjyM4QnOmC5tNpJo8fUl6321zdyvcrJ8iJAUCnIbdxtmnMbi11sbIKQS2vXvkts6vT2EoyP815MmkiroecQ/p0gbu0vWB0VbeYHj3/knr+g9xeevClb6pbSqL7lmDx8PRX6OTSGxT66J6ZxUAfqsDm2hk2V7fyZVvbylnbq7R5L/Kia/1xiwl0OoV81VrqZWU1F7pbXtVH49aOX37L7Lq9MEc31tb4MiRpC7SrGWbVpcIxHepioytsrnWQYSJsrgCAfgQ21zrA5goAAPihnCewuQIA+h0ECAAAAK4gQAAAAHAFAQIAAIArCBAAAABcQYAAAPQNzYgoYXPtEqThR2Fz7SRgaQXg8IDN1QQ219bT7vJ1/NYFSyvoJWBzrS2nXagAITZXS9Kn89QHP6OT7/xX9XL6mIyNyMMVc0OreXKRUvOMd2Pju6Rz7LQg+WT0MCGulLE0z+Md75nHPDDk8wwv56GazJvmnvf0DL/L+njZVS7DtTwZ2jkutEHqK14jVbYa5cg8e/k6QbaJjrW+SW4DF2mbZ9R30t4WqZfjgK/0OADocpxiSzfpZEVs6RCDGsuqElDpTPvmHwnzaEDN4nNObK4U0JVUoG0aUdeGKgVaEDdUpirG5A59E0652nLahQoQsLl621yFoPW1Yy/fSb1tomOtD5ZWABjYXGFzrUdzkdcbKc/L5tqK+tbDr0x9GSytoN+BzdUANldHvqOyuap11alvoRylVDpO0egZGhst08Yyr2+3Wn5ht2pO9Nx22jqUedIEllYA7MDmKsDmeiTIMLGVltRGy2v1+gEAICiwudah1ZbURsuDpRUA0AkgQHjQaktqo+XB0goAOGoQIAAAALiCAAEAAMAVBAgAAACuIEAAAABwBQECAND3NCLwDGJ3hc31CJCGd7rNtV7Z7Vy3G42uz/I2HXY9AThK/ISWxkXZuOaIMy2I3bXnbK5C+fx3lItp92s/oL3M98y5pGR+otw4crrA5lrPnHrYZtVm19dIvnZsRwAOE6tj5BRpSqfUJt0MaHftFZurUm2Yn5WL6cTPf0z0+BE9em5SqTeenPwUPTj7bTqx9IaZykBtyKkYDQ+k6OLUAC3lCsaF4lKcYgNxSk3FaWd9k/bc0ilz6ZRSVYhWojhUP9/yeogmXvkqJUYjNPxghzZD5zzyjFM8tkPrQ5do5grnH+b8qXEa5iFh/GKK4nfXafNzfDBEd+jYyy7lxVKUiu/YfoZeaZe5rH7Z67Qe5ffxAYrFo1QemqJL+mdZHgq2rXSUpXV8iGKpK5QaWKaBqasUXV+notqeUVrfGXct06qPtW1sbXPui0FDx6Hqr9dTb7vPfsnrjhAAuoSK/ob/jZeu09sra/RgfIqiudu0Whqm+LFlevvWFsXGUxTZzCmFhmF3PUWL19doMJlUyhw5Yw19zm3ai49TaHNTqTOM8m/T9fUoTZ0tU87U35RHk7R328gnhEJRMori6+RQVS1k4VWOrtEJhYZq9ULmCnTNjxe6asM2ghBB3/0vv0off2FauZkEMbqKydXteRB9Y3N1LBM/qn/ZRseCx5m8jLsV2mdrvwTdVjpOS6tTe+xVpoW+bSz8LLKCa9t99gsA/YC6NeRjd+0pm6vO40/H6eStHylZX6NE+FoSxHLqTBc0n04zefyQ8vxsrl7mVC+25B5iLkLp17MUkXuV5mfrWGim/jWWVof2uB3bsZm2A9BTFLhXNpZWX0wHtbv2lM3V/Ky+Z3h67S31bAihfOG79PiZFyj06D49OfksHf/gXTVf8DSS9qjN1bZsb6Ru2QPjV2mcRwCnTpW5LimKm5/XS6foRV5+Q4aIAdpcrQWP8HjIqltal/Lv87yLNHpnjt4pcC/Gb5uY9ZKydZymWusWk5Ve6unadq2ORQ9rLQBdg2VJ1Wyplu2VPykjrBzbQe2usLn2MDJM7ASbajvq0SltAwB0JrC51qFTbKrtqAdMsQCAoCBAeNApNtV21AOmWABAEBAgAAAAuIIAAQAAwBUECAAAAK4gQAAAAHAFAQIA0DXEpqv2VD+akU1aPibjs2FllT8Lr5hR+bPT4Co45/eKyVXoqgChdkTAXwD60U5Tab2yD9uS2uj6rJPksOsJQCs5iBSzYmylCcpmk5SwzKiMbnDV0ecXesTkKtgCBGyuB6fegXmQA7cZml1fI/nasR0tGi27nXUBR4Pap9I759FDesw+T/XceX8b0knp1Jg9f7Ojo6SiM0a6GVnOZUzP8LtKI8eK9OBnqhddwTK2bq3wRT9naG0Yp8HVomZ+oTdMrgJsrrC52vdFC22u6hjx2k7N7PMo7yOt/UabgtUFdC+xcykaXL5Ot1bztDMcp8HNTQqdTdGL5Tt0ZztEI7y/j0VHKbQ8R/Pv50l2e0W1w//G71yn6++UaDg5SLnrC7T2IEmpwRytrXB5Q1E+B05R4lSJlk0zamlEM7bqZlSui25w1Y8uff69/XtKi9ONJlcBNlcFbK5Cu22uXtspSPudZTvbXy896A0imlAyEuYJ9c77XpNIkpYmKDXyyzpIR1E3uFp4zXfSbSZXoeY7CNhcYXPVaabtQWhJ+0FfsLpYokQ2o24TJfhYt+aFL6e5l52kdHLCSMPnl3WLKSjhZIYy8kAgc1qwjK1OnAZXueUl63LOj/GovBdMrgJsrrC5ts3m6rcPgrZfL3sv8qKt/dYtgSB1AV2MZkrNLeWNc0LmLYk5VYynPEebVncWLetpxX66S3kuQx0R5rxdKS/P5eaW+FziJeZ8y9ha3txUt4usfLt5TsfHmGFCLVA0Hqfi2iZtOebvdbHJVYDNtQ7y11KwuTZOp2w3AEDz6DZX2wgCWOzSHvf4Q3t7tMevra175vzDph31aGfbOmW7AQCaBSMIAAAAruB5EAAAAOqCAAEAAMAVBAgAAACuIEAAAABwBQECANA1wOYKm6snakc08CtAL9ppKq1X9mFbUhtdn3WSHHY9O4lO24egcQ4ixYTNtYotQMDmenDqHZgHOXCbodn1NZKvHdvRotGyW1GXTtuH/Y7ap7C5KmBzDWr2hM0VNtcGbK6dsg9B48DmauBVjq7Rgc0VNlfYXJuwuXbKPgSNE+FdZ4kdYXOtLaed1HwHAZsrbK46zbQ9CC1pfwM004527EPQOLC51nJYNldbgJDvGSQ46DZXmSdBY+C3m2qeH8aONHZSNlEi7tS64tyZQfPpNJOnhgJ3R8fSXIeYKk8/4HT8lnkhf4mQiXCI597uSCZb+Wz1D5qtv35A7++v0DbxZ/OAaHo7+pxYgdqubcegBK6ro2y3E9qGR10CtcNBu/YhaAzpMUvvfJ4D9uw1Hunysa7mXZPvgvh9fsU2LSPhfR7Bza5o7/tbNG/28K150gGYnedyZ6/RNR5ZW/ON7xAy6i6Cnm9rntPNchp58TqFIl/PnfMLPBKQEb1FpVz5LOVd+8tKnVZ43Sqfeq1ULuyqPY7Rvl8589escvjdSsPpr/E2MepltE+fDgJcTC7IX0vB5to4nbLdhE6qCwDdBGyudYHNtTk6yeYKsywAzQCbKwAAAFdgcwUAAFAXBAgAAACuIEAAAABwBQECAACAKwgQAIC+pxEBo2F6NcWh/BILq2BYWI3fE/WK0bWrAoQ0vJ9trq1qvw7srQD4CxiNi7JxzlVNr6Y4dFbybanzKLFtGl3TGaIeMbraAgRsrgenrSbQBtrfaNsaqVc7thsAR4nVUVKCSbHEqvdJ1SmbkF/uj6V5Hh/zpunVIEKT5uhBNEobPFvsBhsUpkiPGF1hc3WW16E2V3Wg+plNi/o2LVM07WE1baO9FYBuxWZ/LV2nt1fW6MH4FEVzt2m1NEzxY8v09q0tio2bptetPO2UQ7TH589fTA3RHbE55gwza3R8nD/fpr0uNbrC5qroLpur+Fb8zKb2bWpPq9NueysA/cIWn2eF1RxfA/gE59NFBMPSkRvhCS8nq9PE2ulG15rvIGBz7Vybq47TbBq0vHrpmmkrAD2NJoC0TK/Ww4Yypj1VzsNwOkOZTJqIpwt8pveC0dVxi+kKPb32ls3m+viZFyj06D49OfksHf/gXTVf0IcqxpAqx0MxHva8klK3L1KJMi3esA9xbOm+xekeGLc5Vn8VLF9xsDrkKu7EfPNU6lccrB1u8b/qPT9EyYsv08DdHa7DIKUun6HBnUE6c3qIl1V3kqzLtmxvpG7ZA+NXaZxHAKdOlbkuKYqbn9dLp+hFXn5DhogB2lytBbdJG3LKA0nORHjkcGaMRssbdH150LZNi4Vq2wq71SGq2m56OvMWk1VvqZdrW/X9sOteNgBdS8E4xivv6qN1/hUot8Sf+VgP7ZX5PDhL5XcW6B2+RuRzS0b63TyfGnnK53Mkl47Q5BRF12+ohw4ptHI5MeWXFs3pXV7EZfC6jFdB3ZJSSJna7SWFTzn5Jascs04Cp1/iuqv5UpZz2gW4mOogw8Resbl2SlsAAN0BXEx1kPv9haLcZjFeR3VBbUU9OqUtAIDuAwHCg/2tLb6YGq+jpBX16JS2AAC6CwQIAAAAriBAAAAAcAUBAgAAgCsIEAAAAFxBgAAAdA2x6elADqJm5JOWj8n4bFhZ5c/EK2ZU/jxtGVu1Ojjn94rJVeiqAKF2RMBfAPoBm2sV66ToNZtrO7YV6B4OIsWsGlsnKJtNUsIyozI5sSKIsTWr+zHs8ws9YnIVbAECNteDA5vrwWi0bM/0bdxW4HBR+0d65zx6SI/Z56meO+87Q0IpnRyz5292fJRUdMZINyPLuYzpGX5XaWS/Sw9+pnrRFUxj6/7WCl/0c0plI8hvitTFWkRrmi+pZn6hN0yuAmyusLkqlUYrbK7qmPDaLs3sY2cbuY5B6nKQbVUev0TnylzfPRmBnKOy87gqex8noD3EzqVocPk63VrN085wnAY3Nyl0NkUvlu/Qne0QjfC+OxYdpdDyHM2/nyc5DCqqHf43fuc6XX+nRMPJQcpdX6C1B0lKDeZobYXLG4ry8XKKEqdKtGyaUUsjprFVytHNqFwXuSWUTZ+ixetrVSUGo8+/t39PqXC60eQqwOaqgM21HTZXr+0SpL3Osp1trJfeolXbSsc6rvyOE9AeIrzJLcFkJMwT6p13gyaVJC1NUJzCy3pIRzGbLNpv+zBe8510m8lVqPkOAjZX2FzbYXNtpr2NnsBeNLut3HBuH78LAmgNq4slSmQz6jZRImwcCTIvfDnNvewkpZMTRho+v6xbTEEJJzOUkQcCmdOCZWx1Ek1yunBa3cqSW1Nyy0vW5Zwf41F6L5hcBdhcYXO11fsgNle/bR60vXrZe5EXbW20bgEEqkuT2yq/zcdBOk7R6BkaGy3TxrK9njXHgnacgDahmVJzS3njnJB5S2JOFeMpz9Gm1Z1Gy3pasZ/uUp7LUEeIOW9XystzubklWpJbOeb8irF1c1PdLrLy7eY5HR9zhgm1QNF4nIprm7TlmL/XxSZXATbXOsg9bNhc69Mp20nopLoA0M3oNlfbCAJY7NIe9/hDe3u0x6+trXvm/MOmFfVoZ1s6ZTsJnVQXALoXjCAAAAC4gudBAAAAqAsCBAAAAFcQIAAAALiCAAEAAMAVBAgAQNcAmytsrp6oHdHArwC9gM21inVSwOYKegnYXBnH/JrpANgCBGyuBwc214PRaNme6du4rcDhovYPbK4K2Fxhc7VtKwvpETdrKIXNNfi2OojN1Tgn3NOtb37Ott1D567WrKdaEtCBzdXAqxzYXF3Mnd55YHOFzfXobK5e6SbqbHfgTYQ3pSVXhM21tpx2UvMdBGyusLnC5uqNc/t4XRCc6Zq5gAED2Fxrgc3VJR9srrC5Bq7LEdhc9XPCme7Gcsi2zvw2b2fnesxygAPYXA18yoHN9RCRe9iwudanU7aTcBR16aT2A9AqYHOtC2yuweh3m2sntR+A1oARBAAAAFdgcwUAAFAXBAgAAACuIEAAAABwBQECAACAKwgQAIC+oxE5pafZ1fyBm1hYBcPCaqTtFaNrVwWIyk45oFit1ebSwzahWiKywyCoXvkgBFlHq/a9Tq8ZbEFw/OSUxkXYOM48za5RUwY5K+VsqXMysW0aXdMZoh4xutoCBGyuzXEgQysIRov2vQ72W/9idbKUYFGssOp9UnVEJkS9MZZWvXkvs6tBhCbN0YNolDZWxQO2QhsUpkihN4yusLk6y/O0dEpdeF1X4jSwzHV2rKvG4Foep0te5VnbycOYqltcBTcDazoRraS/u17ktnOZNeZTu1l0IBanqYtm/R11cKufpH95jA9Il/T+29etLvb2BVmHVSd10tbZ90M8JPe1sLpsY3WR8DPvOvbhTtzf9OqnLwCdRUWLwv/GS9fp7ZU1ejA+RdHcbVotDVP82DK9fWuLYuPuZtd79/K0Uw7RHp+LfzE1RHfEyJkz1DiGBuY27XWp0RU2V0Vwm6tg1IXXdTNcCfD6ugSbwdWnPOe6nMZUZ8/AzcCqp5cmuZtPq2ZR2VYr85zmF2qRb3uDpPcz2tazsOrHSpA6Oe2sVl7nvnfDdjx4bGMv865zH3qNzJ3HAegPtra2qLCa4+OfDxo+RORQl87MCE94OVm7zeha8x0EbK7+lk4/dINr2qc857rqNSNIW/3Mp3p+L12ys3710vtVJ4iFtdE66eh5W4GXede5D+uftqAnKHDvZixNkzwq9jK7Wg8bypj2VDnWw+kMZTJpIp4ucJe2F4yutgAh3zNIcNBtrjJPgsbAbzfVPD8MLa+h3M0mSrTInTA3nGreoPl0mslTg3YgSHm6PtiJbFR5GpXfuuQvDzIR6U1wGp/y6q3LiXN7eeGmLhaMbeWvS9ZpNL0bXnWxOMg6jLz2fa9OZPMEHfNaqQf6fhvJZD334UHWATqLfR5Jzq7sV96FldlZWuGLqnyPMHuNP/MIQQyopZGMGs3KSHbe/MJYRsmz8ys8fc0oh3v08mXyPHc21PdaPBKQ7xYs9PWocq79pZGPP69IGbxu47VSubCrMh0jU79y5q9Z5Rh1Umk4/TVui5rPZTmn6wEXkwsyTLRZOkcSlN6eq2z0Rqkpr471s9H0jTDJPQeam1MngkU719csnVgnAPoB2FzrYrd0FkLV5xA0R6PWz9ZaQmU4PDOVovj4FIU2/le6VXBeaDvRSgpTKgBHAWyuAAAAXIHNFQAAQF0QIAAAALiCAAEAAMAVBAgAAACuIEAAALqGoPLIZkSMlp/J+Gz85kj+3NpmcJ2WH7TZ6+Cc3ysmV6GrAoTaEbLRDijYg801OLC59hadsj/bzUFEjJ4GVyYnv7QXY2vW/kNOfX6hR0yugi1AwObaHLCCHgJ9aHNt9Phs1fHcaah2Se+cA096zD5P9dy5zYbQUgI+p5NetdmJUqLNGSPdjCznMqZn+F2lke0lPfgZe4fLw+Aqv1ZWF2uRd2m+pJr5PWJyFWBzhc3Vs36wuTZvc1XHjNf2aeZ4j3KbfbapM32+cPT7s1W6rNi5FA0uX6dbq3naGY7T4OYmhc6m6MXyHbqzHaIRbvOx6CiFludo/v08SdNtttY71+n6OyUaTg5S7voCrT1IUmowR2srXN5QlI+vU5Q4VaJl04xaGnE3uMoWlVtC2fQpWry+pqYt9Pn39u/RUJeaXAXYXBWwufrVr1562FyreNlcvbaPV/31+jmP93rb1JleJ8i2bsf+bBURrmo9saNIvxoVOAaRSupIEMwmi/bbPozXfCfdZnIVar6DgM3V3yTqB2yuBrC5+tNM/Ru9mOkE2dbt2J+tIojYUaUJILR04iaV9DK4RpOcLpxWt7Lk1pTc8pJ1OefHeMTfCyZXwRYgYHP1NonC5tpYnWFz9cat/q5ox6dQb5s601scZFtbNLM/W4VuSp29xqNovvipedfkOyTDqqpPyyjbsp5W3sV2avbwrXnSMZjlEY8YWa/xCNCa72Vw3ZrndMqWKvlWVN2KfD13zi/0iMlVgIvJBbnnDZvr0R4WnVgnPzqpvt227UBnAZtrXWBzPXq6zebaSfXttm0HOgnYXAEAALgCmysAAIC6IEAAAABwBQECAACAC0T/f3ufWInkvT6kAAAAAElFTkSuQmCC;" vertex="1" parent="kmTCp-gQ4Pqmv0-tDAnt-6">
          <mxGeometry width="392" height="793" as="geometry" />
        </mxCell>
        <mxCell id="kmTCp-gQ4Pqmv0-tDAnt-5" value="" style="shape=image;verticalLabelPosition=bottom;labelBackgroundColor=default;verticalAlign=top;aspect=fixed;imageAspect=0;image=data:image/png,iVBORw0KGgoAAAANSUhEUgAAAYcAAAMgCAYAAADImK4BAAAAAXNSR0IArs4c6QAAAARnQU1BAACxjwv8YQUAAAAJcEhZcwAADsMAAA7DAcdvqGQAAJKUSURBVHhe7b1bbCPXnf/5Y9Pt6Yskw3EokjE8kZv+I/mLIsVBYpuW4UWHgrhAdts9DwN0D5UBEnjz4Ly4EexbJsD/If+3QdB+yUv+wP8lEuJBHtyLAQKoe4VGFo6lXGCxKWUnQEh3x8iKFJU4cYtU37Xnd+rCU1cWKUoixe+nwWZdzq1OFevUOaX6VOh/+98v7hEAAACgEDp//jwaBwAAACa3b9+mE/o0AAAAYILGAQAAgAM0DgCAgSKez1MmFNLnvIln5imfaR9OJSTizOtxQhmRTzxEoVCcMvkMxUWePJ3PizDz1jLYl8czWniDUDxP8yINA57Pi7S16Qzl5zkulzeu56fNa5+8mZZXOpb01PIqyxn7vB8D1zjIncAVlo/rS7qjmwPHj16n1w71ID5ogv4Y90OQPHq171UOe7+Bw2NzbYGW1rq7pRoKZWhufIuKNE2FQoqSkXF9DVHp+iItLm5RsjCtL9FQl1dr45RTV0cjFJlMtn6zPB/VTtaFnIi7uEgLCwtUGr9EhekqrS0t0OJynai+LJYv0eaevh0e6ZjfOuNGeW3LHfM+OBqH5uvfoUfxKdr5+g+oMfc9fSnR3snTdO8fLutzR0gsRRGusKVNfUF3GAcO75xenGz2cyCCgPRo36v0+37r9Pjs1fHcb8jt4qtycRGRm7Quk1fsYpv5hK5dfYtwfDWtX0Dx95UrWrgrvF6kkb8ivmUYri++cr9ivdiaFifXrSLtba6JE36JxGlasre3qZ2oY2J9vaYvdVleFXHGrY1H/eYy1ZMFy0VQLBUR5/+iefKvXr9JlLTGs+OWzkEQnpiY+G/6tOTeP1yi07/9CdHjR/To+Qz93e+X6MmZz9G9175Np1d+rIfSkJU+G6excJYuzIZppVTVdtjFBMXDCcrOJmh7vUINt3ByR86KcHEaDVWoNto+3up6iKbf/BolJ6I0dm+bKqEZjzhpSsS3aX30Il25LOKPifjZNI3F45S4kKXEnXWqvCQOnNg2nXjVJb14lrKJbSqVd/QtVbdV5HU5QeFVUWZbXvOxdVqPiXTTYYonYtRspumiV3pGPenrZFltdaTiqK+RFOWSMTP8nfWa2HaRZnqU4tnLlA2vyrKY5Wtq2xaOJ2j2gl5+WxncysfhXxU/xrpLeP/6dSuLdfuC5GGUiXsN7fb9qPjxzzRF3g3uYcxQ0+14sJdBrHfst9FZuuixD7cTF33zcBwzXvXTzfEeE9vsU6f28OWq/fi1Hgvmfqy8ZDm2QjPOemyldDTEZ7I0snqNPiiWaXssQSMVUc7XsvRi8zbd3grRuNjmE7EJCq0u0tIfysSbHoqlKUUl8S9FidvX6Nov6zSWGqHStet0616KsiMlurUm0huNiePrLCXP1mm18aKMUx/PUrRSIt6dodAoJVJR2ipp9cDDQIXcWVq+dstSL+ryu3t3aTSRppAop4wjy/IhXVuP0exrTSrp+TQnUtT4sETGrz0UilEqJXoSfGyOJigV3bIeUx7p8DbKb5GQpbzigspY3orfmvfir3/9q7PnMPp//Z+0+8q36MGX8zTy8+/LZSeaf6EzN39Id9/8NzmvUt+4Lq68FugmJWVLprWEvGyJFjciZtfKEW4uKcKJHSnCrW3uBYonOmtUXP4d1X+3LJZt+sQRXTT96rJ+8zpdv75MIpbo9olp0TC3ulXO9Ki+RVtb4johkrKMGTJaWUReNyNm467mxfCFA1FN5FUk8knPnldMLLPXkYq9vhg1PG/Snli3vCUueOp1ioxziq3yGXW1tiTC/E6u8t3eIOFlmT3q170s1u3rpEx8ZRZk37thOR486tiy33z2oVeP3H4cGHjVj1f51fLZj/d2dWoPb0c9FtRtmnY5tvqNqCjyln5Ci0bEjPwWm1GqUa1WomVRl6SECUpcXFCkakUqlupm78APvqAppGrWoR6B13I7e5tiH1KO5uQxRlTcsHUUppNio1o9Ei/s6RwErvccHn8+QWc++BGFHu7qS4Kj7kQ/7OGCxlPpJo4f9oPNbyd7scljhaUo5d4pUM4nPXte7TYjyLb6HehqfK8fl7187cL7FSfIj67TMqmocXuBut+iPHbssQ/b/2yD0U35Oz2ReWGv425OqodNcblOycKcHBpKRrSt52WRSzlxdS160alpLYzYZ8awUlAiqTmay01yNZhURR27jc3HUiJcJCeHr3g4ioe5OC/78rjo6ScjW67Hb1VcLNDkf9Vmisu0kXxHiyc+heQGLV8PtjPs6dTPa+kUCpcoIi4ajLwj5wt6ubThRvu8Fy7DSpfp1K2f0Ym//X9yvnn+u/T42S9S6NEuPTnzHJ385NdyOaN2UWLpNPeFqFgX3Z03s7KLmk02afmGtWtjCfeWCHdP68oWPw4WrzbS6mrVtuO+cczy1Uac3Szxv/wuj1LqwqsUvrMtyjBC2UtTNLI9QlPnRsW61k7itHLnUzQ2JvKa8M4rnJ6ntLgiPXtWhFlu0pRHelx2S16NcTMtY1tbobXwan3xsJI9fCORoqlojGJTkzTR3DC7yBxGqyttKGFiQpxcVkWdi33gtb2Bwhtldqnfj896l8V6rAQvk9rNdtv31aaIm0tQLDZFk2IfbYj0XI8HpQw1fb2630KxLCU89uGHpZBvHip+x98NHhYIcrzvtI7PRvTFtnWqhq/u2IcjtLD2Y+/GashybJW3XOpRT+fI2CmLzStTuSy2YaWs/TZ42UqJylXxzceJMi9H1Kra9prfYivKIg25LfqyHU6vLNItrdAKD9/oy0ONpqjT16hZqcghIiPeTlmEE/Vc4o/IM5ZIUO1WhTZtyxuZWYqt35DDUhKzDIwox8qyWaaqyFvGk5+qVj6Gt0cZUpL4pFNeMdIR30YYEX5F1IlWLm37LPMe8LASnpD2gMe4Y9NRcxihNp6k3Jbolnf91w+29MQV4KZPF77T8J2QEVcNtLhIa8pVzUHm1y39WCY/+qm8g1Z3oL/gJ6QdPQdgsEMNcfUYajSoIT7VUOsqrTus6W1u3tWXe9FpeH/4rzKuzIor4vQshTb+B31QtZ8oeptfb+jHMvnRT+UdtLoD/QR6DgAAABzArQQAAMAVNA4AAAAcoHEAAADgAI0DAAAAB2gcAABA0ImE0c3YKpcr84NuZh24xoE3GlZWUQ8iv8Oysraj3bbvp256tb9VDntfgcHAT8KonZC1Y9DL2CrdSsr8oJtZHY0DrKzdMcxW1nbbvq+66dH+VhnmfQW8MS64pKSQba/yOyMvUKZZrzGZE8vEucLL2Gqb56eRB9nMCisrrKzBy+dblz5mU57m9aH2+1jdbvmjHDATKxhcTMWI+D9Rv0bvr92ie+lZipU+pGJ9jBInVun9DzYpnvYxtirzg2xmhZXVJT0vSymjlUXkNSRWVkf5fOvStu3KtHEMGmXw28fqdg+qiRUAPwbFzOp6zwFWVn8jqB/HycraSfkYL7OpcdwH2QY/9hvfzmGbWMEAUxVXXZM5yoges5ex1Q739gfZzOpoHPi+AjcMqpWVl3GDEf5zRS7zQ1PrFoi1uYVknZbFhZgbdr1u0Hgq3cRxoOx0Tk9VANvhCuW3SPnlxX9hMBcVTbm4el/2Sa9dXnbs9eWFm36Y0erKX3ms0mn5GHXbx+cK5rRxctXK0P3+cosvf6g5sc1zOZq0b3QbvMpr32/7yQMMDnuid8liTeObWVtYkILKvb01WrgqpjdFT1HeS5iTPW3u3S4pN4st86IHwPcSDNR0Zbir/6rlJ6bXFq7Km9HaZ62Vnugd2HunfuksXTXSEd9GGBH+qii7XC7Sss97AbeSBzzebbFawsp6KPRLOQAYZmBl9cVqtYSV9bCATRSAowZWVgAAAA5gZQUAAOAKGgcAAAAO0DgAAABwgMYBAACAAzQOAAAg6ETICCtrH8IbDSurqAf2Ax1ifn602/b91E2v9rfKYe+ro+Ig6u444ydk1E7IWj3Cygora0cMs+mz3bbvq26G0Mra6THpGb6DuuvV72CQMS64pGQTVlZYWWFl7aB8sLK65uE4TrzqqZtjPCa22bFPvcOXq1pZHHVnT6emHk9NiuVaYZtp5/a2tvD4AitrC1hZXdLzspQyWllEXrCyutSlbduVaeMYNMrgt4/V7WZXzCBaWb3qKcj2249x933qHd7AXnf2dKzHkzUsOFhgZW2DPVzQeCrdxPGD0/OylAYFVlZYWb3opvx++7QT7On0ui6PPbCywsrqZyKFldUfWFn9Cbz9yjHJeO1TE1t4L9R0ZFnU48l+8htCC61hO1Wtp7CyAgc8Zgsr6+EfGv1SjqD0U3kHre5A/wIrqy+wsh4Ng2Zl7afyDlrdgX4FVlYAAAAOYGUFAADgChoHAAAADtA4AAAAcIDGAQAAgAM0DgAAIOhEyAgrax/CGw0rq6gHkR+srN1x2PsKDAZ+QkbthKwdg7CywsraEf1u+jxI2m37vuoGVta29OoYHnaMCy4pT4SVFVZWWFk7KB+srK559KOVldGOWev+N/dn5SXL8RSacdZjK6XhAFbWFrCyuqTnZSlltLKIvGBldalL27Yr08YxaJTBbx+r282umCD7241ht7IaqPtf3aZpl+MJHA6wsrbBHi5oPJVu4vjB6XlZSoMCKyusrF50U/5eWVnt+5Pte72sy2MPrKywsvqZSGFl9QdWVn8Cb/8BWFnt+1OWRTmehtXEqmLYTlXrKayswAGPd1sMl7CyHgr9Uo6g9FN5B63uQP8CK6svVsMlrKyHxaCZRfupvINWd6BfgZUVAACAA1hZAQAAuILGAQAAgAM0DgAAABygcQAAAOAAjQMAAAg6ETLCytqH8EbDyirqQeR3kFbWg04fgH7DT8ionZC1cw6srLCydkS/mz4BAP4YF0RSWAgrK6yssLJ6lE83N26nYesEwwGsrC1gZXVJz8tSymhlEXkNgZUVAHAwwMraBnu4oPFUuonjB6fnZSkNynGxsgIAFIbQyuoyrHSZTt36mcXK+vjZL1Lo0S49OfMcnfzk13I5o3ZPYuk094NE90t0dd7MyuGPbLJJyzes3RpLuLdEuHvaMEnx42DxaiOtblZtO+4bxyxfbcTZxRL/y+/yKKUuvErhO9uiDCOUvTRFI9sjNHVuVKxr7SBOK3c+RWNjIq8J77zC6XlKiyvws2dFmOUmTXmkx2W35NUYN9MytrUVWguv1hcPK9nDNxIpmorGKDY1SRPNDVo1upsijFZX2hDSxIRoPFZFnYt94Le9HPfDigiTS1AsNkWTYrs3RDwMK4FjSVX7rZjfctL4HVaptCKmd3Yo1GiK39xr1KxoQ0flUln5TeyY86HMLMXWb8jhJ4mSrgy3sqzP74hVK+InLNbLT7WV3k5Znuss+KRTXjHSEd9GGBF+RZRdLue07PMuwK3kA9+EshguYWUFAAwJsLL6YjVcwsoKABgW0HMAAADgAFZWAAAArqBxAAAA4ACNAwAAAAdoHAAAADhA4wAAAIeI5nPrfzvrwDUOvLFHYWX1C9+rMvlx2NbXdhyFtbXf6gAMJ9pJOdhv3TVs1N2qymH7yc5qaRz46Wi7P+nBl/JymfE5cmJHY2X1ta72qEx21LINi/XVb3/AfAv6AdXQKo9XNrjy1b04bllhw1fj2rfN5qowCHZW8yE4VnLfn/4n0Vw8JU2sBqHdT+lkdZ1OfvIbevLM83Ty9of6GrFOXMkNk5XVsK4eXJlEHZhW1TvWssV062soWP2qBK5rn7rS0hfhDSOtrg4xy6PaZb3SMfL1MNE66jIm6tJmmW3tA6tt1m2fAXAQ1LYVQ+tMll5s3qbbWyEaF8ftx9dWKfrmWzTV/A96v7hpCWugqWn6285qsbLuvv629Cmd+ug9+T4HhnsKbGQNNT+l5szb0sxqx2Fb1e2ffnbVQbWyGhxUmaxWVfZotdI1CFq/KoHr2qeutPRFeMVIy9jrTNplPdJxDetTl26WWQPVNguzLDgqojZ5pct51pN+t7OajcPjsS/Q4+fOyfc5PHzhZbmM9d0MDzeFP9NEfO3gygpiSrWHCxpPpZs4fth3dDeW0v2Uyc+qatCLeuplvdnrzC/ZTsIyQesDZllwqCiG1uKyuHC5lBNX9SnKpabFhViOaPldebKWN3uVsG70s53VbBxO7H4qGwP+PIol5Qt+GG4ouNE49dFP5Xw7uLKShQLlM3mxcXVaLuorbMhw72jh+F2sQeOpdBPHgc+O7ob9limSmqM5HqfkGZcDq+t62mdd80GUzzvDd1JngcLattlSHy50kj8AvWBvb40Wri6IXrjo3Yqrdp7mXvXC0ppU9i+J3rnxrYY12BM9ZUPgube3SUtX/1XO8/TawlV5M1r7iPT0k7rMx3ZP0y+dpatGOuLbCCPCXxVlkctFWvZ5O3AreTDIltJel53vtxSoeyMtAGCwgFvJB259qzUertA+g6SvHuSyAwD6A/QcAAAAWEDPAQAAgCtoHAAAADhA4wAAAMABGgcAAAAO0DgAAMAhovnDYGXtOb0yoPaD4fO4mk2PYrsAOCy0k3Kw849r2Ki7TZXDwsq6H47IyjpI+G0TzKYA7A9YWXVgZdUYVrNpKCPys8V37EtbGMMKGZ6dp9j6OtVk3cVoPTwrwoUpnohRs5mmix55AtDPwMoqgJVVadWH1GzqFt++L73yMC2T01x3RYrJ3m1NbE+RyCdPAAaFKB/GsLIOt5W1F+X1wp6vX7KdhGX2azYNEt8zjDja6+PTNJcUDZwoKMvIFktRyr1ToJxPngD0NbCywsqq0ovyDqrZtF18xi0MGylLdJ4m6yV5cPJfXcxFxeWN6GEsd7DNAPQTsLIOOcNqNu31dmfEVQktLtIaegYADAxwK/kwrGbTXm238ffZyfoyGgYABhD0HAAAAFhAzwEAAIAraBwAAAA4QOMAAADAARoHAAAADkx9BsMPu+2+8k060fyU6OnTtHfmc2LZP8sH4+jkaXpq6/d6SAAAGF7i+Ty9VKl09ES0gVQMzYxSqazF5vn8aIXYjCGtrBdnKZtOUzy8TZXaKGXyF2k2m6a0WJZOx6WqhyUaXumwYsdMT/7V4EsUqtSooeSjhncz11j0GfenLtLDF74q9RknP/k1hbfL8nPmgx/JZQ/OvaGHPFr6wcrKB8ZBiK78gOkUgP5HnrDbnZui7jZVjtuXVtbHzzwvn47mhoFhGyt/GF7G63Zf+ZacP1L62Mray7QAAP2F/H3PiwtDcXGYm9SXZfg3z+9guCJO0lYLqxHeMLaqDJSVlVH9SY8/n5Df4T+X5Tdz7yvfsBpbpQHVZujkCnGzldrDDZqVVd+ucDxBr4oDo85WVT4wTBvpneBpWeLBdArAIMAG1pHVa/RBsUzbYwka4WGlqpgejYnz2VlKnv2Yrq2e8DS2msNBg2ZlDX/2J31K8ynd517Dw3v6Em8ctlXZ+rnYSu3hBs3Kque1trREIorEaiNlR1GwtGA6BWDwiIqflyHbjEY0i5ifmJLD+8klB8jK+rw+xTemL8n7DE9XfqEvCY5agX7YwwWNp9JNHD/8dqaa134PDJhOARg8NNnmnBwmSkZav0qLdDKgyNOgn62s5rDS/dQ/ynsL3Gt4qrph3ntQkS/7+dOaPmftlsTSae7/ULEuujhvZuVwUTbZpOUb1u6MJdxbItw9bVip+HGweLWRVveqth33jWOWrzbi7FqJ/+V3eZRSF16l8J1tUYYRyl6aopHtEZo61/orAEbLSxuymZgQJ+zVCjUSKZqKxig2NUkTzQ1avRUKlNZoIm2NZ3QHle10pK2HuVWtUjNxmb7WXKYb5bvSX5QWPYSzZ8X2LzdpyiNPAMA+2SmLn2aZymXxW10py+GfHZ4ui2WlFVqRQz5Vsa5E1R0xzeHFdLkqvtXfYlX7rWvsUHllWZ/fEatWRB5ivfxU5TCUhNOyDxP7pFNeMdIR30YYEX5FlEcu57Ts8wo8rGS6lfjPWPmvlU7+8Vd0au3fZQADbjC4N2G832EY6KWdFKZTAMAgwW4ls+fwVHVdPsvwcGLGfM6B53e/+i/08NwboifxGy3M0LBDDXFFHmo0qCE+m5t39eXd0Ju0tL9ZvkhJ0Wu4LnoNAABwEFh6DgAAAAADKysAAABX0DgAAABwgMYBAACAAzQOAAAAHKBxAAAAQScyTtbbZOIh/S8IM6aNQJ2PZ1rLGc29ltHntPm8SEObZj+T9vCb9DLJdLR57ZNv5eGRjiU9pRzqcsY+78XANQ680bCyAgB6jSHjdEM7IWvnHPbCzY1vUZGmqVBIUVK3nvIJXp2v1sZNpY8k6m5R5bT7ycZq4Ggcmq9/hx7Fp2jn6z+gxtz39KVEeydPywfljpwYrKwAgN5jXIBJoSjbVOV3Rl6QqrZVmhYn3a0i7W2u0eJiydTb2Of5CWRW3agMgo3VwGJlZfhJ6NO//QnR40f06PmMtLA+4Zf+vPZtOr3yYz2UBqysYtmAWFlb+0rU1WWxHY7yG+XQ6s7+OD0Axx1TtyP+T9Sv0ftrt+heepZipQ+pWB9r2VbTWYpWSvrLdBTrKaehzN/duytVOaGKvs7DotpPNlYDi5XVwHhvw4Mv52nk59+Xy040/0Jnbv6Q7r75b3JeBVZWcRExIFZWLQ9RVzcjMg33crTqDgDQe/rdxmrges+B3+XAb4ALPdzVlwQnKs5PsLL6p9UvVtYg5QAACBTbalX8XoKM2fPoSDKy5fo77Gcbq4HLsNJlOnXrZ3Tib9qLf5rnv0uPn/0ihR7t0pMzz1lsrWr3BFbW/raycl3kzqdobEzU1YRWV6JSPMsBwNBhWE4V22lV/Ba1yZZtNdRoit/pa9SsaENH5VJZDhtp7JjzocwsxdZvtN7RrKQrw/WhjdUAbiUf+CbUIFtZHXmOJym3tUgLHn+NAQAABnAr+bC3t0nVGg/RaJ/9nMx7lRaf8LmnkKwvt9V12/PkXjEAAAQFPQcAAAAW0HMAAADgChoHAAAADtA4AAAAcIDGAQAAgAM0DgAAcIhoDrb+t7MOXOPAG3vUVtbDpFfbCwDoDdpJOdjv0TVs1N2qymH7yc5qaRz46Wi7P+nBl/JymfE5cmL9a2U9EHq0vQCA3qAaWuX5gw2ufHUvziOspOGrce3bZnNVGAQ7q6nPYCX3/el/Es3FU9LEahDa/ZROVtfp5Ce/oSfPPE8nb3+orxHr3GyrXFmuplRbuEGzstrL+5Ior2I03U7P00xTpNvgK/0ZauplCW5M1cvcVMsQphNTL5vla6Yv+udRqbUeuwcAHAi1bcXQOpOlF5u36fZWiMbF7/Tja6sUffMtmmr+B71f3LSENfCyqvaTndViZd19/W3pUzr10XvyfQ4M9xTYyBpqfkrNmbelmdXO0FhZbeX1sqaqdGZM1cpsLcM41ZTyuaHm0U60BwDoLVGb7NLlPOtJv9tZzcbh8dgX6PFz5+T7HB6+8LJcxvpuhoebwp9pIr52cGUddysrE8Ro2o0x1V6Gdpun5nEQXUsAgA3F0FpcFheHl3Liqj5FudS0uIjMES2/K0/W8mavEtaNfrazmsNKj/7+Zfn+Bh5SuveVb8hhJFZ2c0Px8NwbdGblxxS6f1dGMlC7JUNhZVXK2xAHg2o0/b9LIm4uQbHYFE1ONGljtUIviQYkqDHVKDPnYynD1llzextNsc4nj3XePj1NAMBB0TK0SmuqmC5X2Z5aFbPaS4CMb0tYgwGws8LK6gP/lVAvTaoqB5k2AADsF3YrOd7nAAzElbq4Ig81GtQQn81Na69pfxxk2gAAsD/QcwAAAOAAVlYAAACuoHEAAADgAI0DAAAAB2gcAAAAOLD8tRI/7Lb7yjfpRPNToqdP096Zz4ll/ywfjKOTp+mprd/rIQEAYHiJ5/P0UqXS0RPRBlIxNNN61onn86MV+VyEtLJenKVsOk3x8DZVaqOUyV+k2Wya0mJZOh2XmiB+KsErncqokp60sr5EoUqNGko+anjbIw4Siz7j/tRFevjCV6U+4+Qnv6bwdll+znzwI7nswbk39JBHSz9YWfnAOKinkWFhBWBwkSfsdr/dqLtNleP2pZX18TPPS10GNwwM21j5w/AyXrf7yrfk/JES618ra0/S6tH2AQB6i/x9z4sLQ3FxmJvUl2X4N8/vYLgiTtJWC6sR3jC2qgyUlZVR/UmPP5+Q3+E/l+U3w1oNi7FV2kSHxMqqb1c4nqBXxYFRXxVl5gPDNLPeCZ6WWkZYWAEYCNjAOrJ6jT4olml7LEEjPKxUFdOjMXE+O0vJsx/TtdUTnsZWczjIw6bat1bW8Gd/0qdI+pTuc6/h4T19iTdDY2XV81pbWiIRRWI1s7LvKlhaDCysAAwWUfFTNeSb0YiYEfgJODm8n2xzgKysz+tTfGP6krzP8HTlF/qS4KgV6Ic9XNB4Kt3E8cNvZ6p59eLAMLCHa7c5sLACcDSwgTVZmJPDRMlI6xcfSc3RHA8n8YyPsdWNgbCy3k/9o7y3wL2Gp6ob5r0HFfmynz+t6XPWbslQWFnf1IZ/JiZEY7BaoUbCamZdvRUKlJZab7CwAjAgsBm1VKZyWfx2V8ryQo7tq6WyWFZaoRU55ONtbDUZNCsr/xkr/7XSyT/+ik6t/bsMYMANBvcmjPc7DAO9NKfCwgoAGCQsVtanquvyWYaHEzPmcw48v/vVf5Hvc+D3O8gwQ0MvzamwsAIABgdYWQEAADiAlRUAAIAraBwAAAA4QOMAAADAARoHAAAADtA4AACAoBMZJzuVMvGQ/DP1TD5jGhDU+XimtZzR3GsZfU6bz4s0tGn2M2kPv0kvk0xHm9c++VYeHulY0lPKoS5n7PNeDFzjwBt91FbWg6JX2wYA6BxDxumGdkLWfpfshZsb36IiTVOhkKKkbj3lE7w6X62Nm0ofSdTdospp95ON1cDRODRf/w49ik/Rztd/QI257+lLifZOnpYPyh05sf61su6bHm0bAKBzWIjJJ1wpxmSbqvzOyIs21bZK0+Kku1Wkvc01Wlwsmeoc+zw/gVwft2ozBsHGamCxsjL8JPTp3/6E6PEjevR8RlpYn/BLf177Np1e+bEeSmOYrKzsUfI1pDbTdFGJK/PWy6GmAyMrAP2JqbUR/yfq1+j9tVt0Lz1LsdKHVKyPtWyr6SxFKyX9ZTqK9ZTTUObv7t2l0USaQhV9nUy/v22sBhYrq4Hx3oYHX87TyM+/L5edaP6Fztz8Id1989/kvMqwWFndUA2pZIsbE2vUcqjAyArA8NLvNlYD13sO/C4HfgNc6OGuviQ4UXG+O45WVjdUQ2rOFjdIsez5tYsDIysAR4RiW62W6oHG7Hl0JBnZcj2P9LON1cBlWOkynbr1MzrxN+3FP83z36XHz36RQo926cmZ5yy2VrV7ctytrO0MqcvLTZpS4zbGzXKoqHUGIysAfYRhOVVsp1VxztEmW7bVUKMpzkevUbOiDR2VS2Xlt7hjzocysxRbv9F6R7OSrgzXhzZWA7iVfOCbUL0wqfYqHQAAOCwsVlZgp1cmVRhZAQCDBXoOAAAAHMDKCgAAwBU0DgAAABygcQAAAOAAjQMAAAAHlr9W4mccdl/5pvkO6T3WZvzDP0ulBr9P+qmt3+shAQBgeInn8/RSpRLoYVc7UjE003qOiufzoxVNx8F21ouzlE2nKR7epkptlDL5izSbTVNaLEun41ITxE8neKVTGVXSC7Gd9SUKVWrUUPJRw7s96mDRZ9yfukgPX/gqnfroPfmgW3i7LD/8pDQve3DuDT3k0dIrc+l+rKx8YBzkE8qGAMytjEHy7kfjLADDgDxhtzs3Rd2tqhy3n+ysZuPw+JnnpVfJeAL6wZfy8sPwMsO5dOTE+tfK2su0GD+FsB01707iAQCCIX9j8+LiTFyg5Sb1ZRn+3fG7GK6Ik7TV3mqEz/N7GWznhUGws1qGlcKfacoMhv1KTPjPZfnN3PvKN6Sl1WCYrKzGdoXjCXpVHBj1VVFmPjDSoxTPXqZs+E7gtDKi5xNbX6earIMYrYfTSjqrptpjPcZlXKf1UId5xy5a4rXbFwCA9sRnsjSyeo0+KJZpeyxBIzysVBXTozFxPjtLybMf07XVEy17qwj/YvM23d4K0bj4bZrDQR5W1X6ys1qGlcKf/UmfInr4wst0n3sND+/pS7wZFiurkdfa0hKJKJI9ke/yFtFWvc5S1cBpGRZGrQ6KtnTY52ql07wNvOvHui8AAO2Jip+0IfqMRsSMgFX+qVqRiqV66z0OOhzeT+TZ73bW1rDS2PP6lPZOB77P8HTlF/qS4KgV6Ic9XNB4Kt3E8cNvZ6p57fvAEEdBfXyOUhHRYIk0/dJhOs3boNf1A8AwU1yuU7IwJ4eJkuK3axBJzdEcDyfxjGJv5fCRSzlxxZ+iXEo967foZzurOax0P/WP8t4C9xqeqm5Y7KsGT555nk7+aU2fs3ZLjruVVctLGyaamBAn5NUKNRIpmorGKDY1SRPNDVq9FQqUFvdYRhMXaOL2Iv2yuidfCGJJx9Y9vMHdxg7yro1o8bV47etULRkAwAM2pJbKVC6L389KWf5udni6LJaVVmhFDvm07K0yvJguV9msqvzKBsDOanEr8Z+x8l8rnfzjr+jU2r/LAAbcYHBvgm9KDwu9tKnCzAoAGCQsVtanquvyWYaHEzPmcw48v/vVf6GH594QPYnfaGGGhl7aVGFmBQAMDrCyAgAAcAArKwAAAFfQOAAAAHCAxgEAAIADNA4AAAAcoHEAAABBJ8JKdipl4iH5Z+qZfMY0IKjz8UxrOaP5zzL6nDafF2lo0+xn0h5+k14mmY42r33yrTw80rGkp5RDXc7Y570YuMaBN/qorawHCYysABwNfsJK7YSsnXPYCzc3vkVFmqZCIUVJ3XrKJ3h1vlobN5U1kqi7RZXT7icbq4GjcWi+/h16FJ+ina//gBpz39OXEu2dPC0flDtyYv1rZe0lMLICcLgYF2ZSKMo2VfmdkRekqm2VpsVJd6tIe5trtLhYMvU19nl+Ark+btVmDIKN1cBiZWX4SejTv/0J0eNH9Oj5jLSwPuGX/rz2bTq98mM9lMYwWVnZZTTTFPEa3HOZoaae13w6TPFEjJrNNF1U4sq89XKo6cDICkB/Yup2xP+J+jV6f+0W3UvPUqz0IRXrYy3bajpL0UpJf5mOYj3lNJT5u3t3pRonVNHXeVhU+8nGamCxshoY72148OU8jfz8+3LZieZf6MzNH9LdN/9NzqsMi5XVjZjstdVEukUiW1x2q6rlMICRFYDhpt9trAau9xz4XQ78BrjQw119SXCiAU2g9nBB46l0E8cPTs9PsWtnk8cES1HKvVOgnC2uZ7FgZAVg8FBsq1XxuwsyZs+jI8nIlut5pJ9trAYuw0qX6dStn9GJv2kv/mme/y49fvaLFHq0S0/OPGextardk+NuZW00RR65BMViUzQ50aSN1Qq9JE7SaXH1ffasyHu5SVNq3Ma4WQ4rMLIC0JcYllPFdlo1fyMt22qo0RS/n9eoWdGGjsqlshw20tgx50OZWYqt32i9o1lJV4brQxurAdxKPvBNqF6YVHuVDgAAHBYWKyuw0yuTKoysAIDBAj0HAAAADmBlBQAA4AoaBwAAAA7QOAAAAHCAxgEAAIADNA4AACCAldXKwDUOvNH9aGWFTRWAwQZWViuOxgFW1v0BmyoAgwmsrFYcjcPj587RU5vr9PR/LtGT08/KZWxl3X39bTr10U/lvIG9EuUyPuHJZdq37Na4hZNWUr5a1rtnAeLZd5J3HK1nIaeviPWie8bL8uIKPn9FfHN+Yt28SMM1Pe7O2RoMtqnyjtDKLcrCeYpuW37+SqsFF2jptrYnI/IUWejr1Di2vG3x2tUfAODg8BV+jkfYt9mWvb1N2qJx+RtuUaXrojeQnGtJNsWFfBceNGc6vcbROMDK6m5lhU0VANALYGVtgz1cN61ndy2uN5yep5UVNlUAhhdYWWFl9bKyci8DNlUAjjGG7VSxnsLKChzw/Q3YVAEAwwjcSj7wzaRqjYeYtA8aBgDAMIHGwYe9zU3RKGgfAAAYJtA4AAAAcIDGAQAAgAM0DgAAABygcQAAAODA8pwDP+Ow+8o36UTzU6KnT9Pemc+JZf8sPpeITp6mp7Z+r4cEAIDhhWWaL1UqXT1vJBU5M63nqHg+P1qRz0NIO+vFWcqm0xQPb1OlNkqZ/EWazaYpLZal03HaXq/I5yC80qmMKulJO+tLFKrUqKHko4Z3e9SBn3Mwew73py7Swxe+Sqc+ek8+6BbeLssPPynNyx6ce0MPebT0q5XVYFDsqobLqdPyGvEAAE7kCbvduSnqblXluP1kZzUbh8fPPC+9SsYT0A++lJcfhpcZzqUjJ3Y0Vtag4Q7K9qrSy7RhgwUgGPJ314lMUw/vJvIcBDurZVgp/JmmzGDYr8SE/1yW38y9r3yD/u73S/ocV8w8XZmN01g4Sxdmw7RSqmoVcjEhukQJys4mZBeo4RZO2k1npSaC9Rk10RVqF291PUTTb36NkhNRGrsnulyhGY84aUrEt2l99CJduSzij4n4ols2Fo9T4kKWEnfWqfKS2GGxbTrxqkt68SxlE9vmo+XSBqvmGxPpmnmIOOlRimcvUza8Suux9un6lsuoBzWsTx2Uq60+obY/9HI17Xlay2loPrTyrmvf6TDFEzFqNtN00aUeGENJsh6yltPrMXwAjgvxmSyNrF6jD4pl2h5L0AgPK1XF9GhMnCPOUvLsx3Rt9QQlTqzS+x9syvAvNm/T7a0QjYvfqzkcJH9DH9I1VuW81qSSrt5pTqSo8WFLjRMKxSiVYluOOF+OtrRBBl7pmGogkVAoNOpUB+kZqPojO5ZhpfBnf9KniB6+8DLd517Dw3v6Em+GwcrKT0vbDapGHu52Vv90OZRXuVzD+tSBHaNcjnSK1/0tsrLnWRNlKRJ51IOKV10BcFyJikO+E5kmh/cUeQr63c7aGlYae16f4hvTl+R9hqcrv9CXBEetQD/s4YLGU+kmjh/tdqYbQU2rarp+Re4krB/2dGiu4FvOTR7XLEUp906BcgHqoZu6AmCQKfL7EwpzcpgoGWn9iiKpOZrj4SSeUeytHD5yKSeu+FOUS7kPD/WzndUcVrqf+kd5b4F7DU9VNyz2VYMnzzxPJ/+0ps9ZuyXH3coaarTCGQZVzsPTzuqXbmNcC+NSLrayuoZV62CnlTZbIg3U/cF1o6bzMY37WmTD6XlKi6v/s2dFPS43acqrHvQ8HOW0GGwBOIawIbVUpnJZ/G5WyvLCbYeny2JZaYVW5JBPy94qw4vpcpXNqsrvYwDsrBYrK/8ZK/+10sk//opOrf27DGDADQb3Jvim9LAwCFbWwyjjINQDAKC3sJXV7Dk8VV2XzzI8nJgxn3Pg+d2v/gs9PPeG6En8RgszNOxQQ1xJhxoNaojP5uZdfXk/cRhlHIR6AAD0ErzPAQAAgAO8zwEAAIAraBwAAAA4QOMAAADAARoHAAAADtA4AACAoBMJJTuVMvGQ/FPvTD5jGgLU+XimtZzRnGgZfU6bz4s0tGn2M2kPv0kvk0xHm9c++VYeHulY0lPKoS5n7PNeDFzjwBsNK+v+6dbKCsBxxU9CqZ2QtXMOe+HmxreoSNNUKKQoqVtP+QSvzldr46bSRxJ1t6hy2v1kYzVwNA7N179Dj+JTtPP1H1Bj7nv6UqK9k6flg3JHTgxW1l6mDSsrABrGBZMUWLJNVX5n5AWpalulaXHS3SrS3uYaLS6WTB2NfZ6fQK6PW7UZg2BjNbBYWRl+Evr0b39C9PgRPXo+Iy2sT/ilP699m06v/FgPpQErq9N2euytrOY+EXV+OUHhVbHvWFtsqwOjHI5H/gHoU0z9jPg/Ub9G76/donvpWYqVPqRifaxlW01nKVop6S/TUaynnIYyf3fvrtTrhCr6Opl+f9tYDSxWVgPjvQ0PvpynkZ9/Xy470fwLnbn5Q7r75r/JeRVYWYfPyqqVR9T5zYi8wHGrA3UfAABa9LuN1cD1ngO/y4HfABd6uKsvCU5UnFdgZbViT9evyJ2E9cOeTq+trCpB6gCAgUaxrVbFcR5kzJ5HR5KRLdffTz/bWA0cjQPfV+CG4cTftBf/NM9/Vy7jBiP854pc5oemtS1QPpMXG1mnZXEh6oYMJ05EHI7v+geNp9JNHAdBFbtKODsWZa9Bh+peg0Bhfcpi4JaOazl1+C8j5qLiEkRc/S+3KQMfWPm8tc790gZgENgTvfOFtT3zm1lbWKA1cYLd21ujhatielP0huW9hDnZo+ZRhSXlZrFlXvQA+F6CgZquDHf1X7X8xPTawlV5M1r7rLXSE70Dew/cL52lq0Y64tsII8JfFWWXy+Voh3XeC7iVPOD7DLCyuuQxnqTc1qJ54AEAjh9wK/nArXC1xkMr2qcfNdWHUUZ7HtxpAQAcf9BzAAAAYAE9BwAAAK6gcQAAAOAAjQMAAAAHaBwAAAA4QOMAAACHiOZG638768A1DryxsLK645d3r+rNj34zvBoitcMEltvjj3ZSDvY7cg0bdbeqcth+srNaGgd+EtruT3rwpbxcZnyOHFhZPdP2Naz2qN7sqGUZFsOr376F5fb4oxpa5bHABle+uhfHBKtk+Gpc+7bZXBUGwc5qWllZyX1/+p9Ec/GUNLEahHY/pZPVdTr5yW/oyTPP08nbH+prxDpxlQQrq9V2etRWVsOwenD1Jspnbu8d63aKepH5h4IdAyqBjwef/amlL8IbtljdRmmW5wDqvxJz2//GPnA35MJUO9jUthVD60yWXmzepttbIRoXx8TH11Yp+uZbNNX8D3q/uGkJazAIdlaLlXX39belT+nUR+/J9zkw3FNgI2uo+Sk1Z96WZlY7sLL2l5XV4KDqzbq97HBylsU7/VaZ7Fc6gY8Hn/2ppS/C67ZYg4Osf/f9r+FlyLVbbsHgEuVd26Uos9/trGbj8HjsC/T4uXPyfQ4PX3hZLmN9N8PDTeHPNBFfO7iyYGW1Yk/Xr8idhO2W/dRb0O3d777cTxntdFKnnYRlutn/QY4r0Mf4SDVjczmi5XflyVre7G0jyexnO6vZOJzY/VQ2Bvx5FEvKF/ww3FBwo3Hqo5/K+XZwZcHKKgiaro1AYdsccO3Yb71ZttelLN2kL+Ps83hws8UygepUJ1BY2za3M9J2kj/of1RDq7SmimnusS4srUn1/ZLo+RrfFpurzqDYWeFW8oDvM8DKenD0uux8v6VAi+YPAQDQPXAr+cCtL6ysB8cglx2AYQA9BwAAABbQcwAAAOAKGgcAAAAO0DgAAABwgMYBAACAA1OfwfDDbruvfJNOND8levo07Z35nFj2z/LBODp5mp7a+r0eEgAAhpd4Pk8vVSpdPaQqFUMzo1Qqa7F5Pj9aITZjSCvrxVnKptMUD29TpTZKmfxFms2mKS2WpdNxqZJhiYZXOqyAMdMLsZX1JQpVatRQ8lHDu9lcLPqM+1MX6eELX5X6jJOf/JrC22X5OfPBj+SyB+fe0EMeLbyx/WBlPQrjpx9GeTrdrn7bDgAGGXnCbnduirrbVDluX1pZHz/zvHw6mhsGhm2s/GF4Ga/bfeVbcv5IOSIrayccRJpBgRUUgINB/q7n8+JKPE+5SX1Zhn/r/A6GK+IkbbWwGuENY6vKQFlZGdWf9PjzCfkd/nNZfjP3vvINq7FVXHXaTZuyQgIYOQfJyso4yjtiM36aZWhSQiljM32RZpoivwb3eGaoaS+jj7FTq1/3cHYbrGFiVK2g8+kwxRMxajbTdNErD93MaDeXwhwKgBU2sI6sXqMPimXaHkvQCA8rVcX0aEycH85S8uzHdG31hKex1RwOGjQra/izP+lTmk/pPvcaHt7Tl3hjN2162jTt4QbIysrYy2vgLIM1TS+CGju9wsWK1z1toExM9iRrYpuLRG3yYNqVA4BhJyp+IoYMMhoRMwI/8SKH9xMuDpCV9Xl9im9MX5L3GZ6u/EJfEhy1Av2whwsaT6WbOH747UyvvPZbBr88VezhaK7gawNl8ddiKUq5dwqUC5BH0HIAMKxoMsg5OUyUjLR+dV4iyiDCxX62sprDSvdT/yjvLXCv4anqhnnvQUW+7OdPa/qctVsSS6e5/0PFuujivJmVwy/ZZJOWb1i7M5Zwb4lw97RhmuLHweLVRlrdq9p23DeOWb7aiLNrJf6X3+VRSl14lcJ3tkUZRih7aYpGtkdo6lzrrwAYmZdSXmNY6QZ36exl2GmlWd4SaeYSFItN0eREkzZWrWXkdL3yVOvXHu5jGqepaIxiU5M00dygVVuXMpyep7S4+j97VpRpuUlTbfLg7fAqBwBAsFMWp6Aylcvid7ZSlsM/OzxdFstKK7Qih3yqYl2JqjtimsOL6XJVfKu/p6r2m9bYofLKsj6/I1atiDzEevmpymEoCadlH+r1Sae8YqQjvo0wIvyKKI9czmnZ5xV4WMl0K/GfsfJfK53846/o1Nq/ywAG3GBwb8J4v8MwcBTG08PI8yi2CwAwWLBbyew5PFVdl88yPJyYMZ9z4Pndr/4LPTz3huhJ/EYLMzTsUENceYcaDWqIz+bmXX35QXIYeR7FdgEABglLzwEAAABgYGUFAADgChoHAAAADtA4AAAAcIDGAQAAgAM0DgAAIOhEWslOpUw8JP80PJPPmEYBdT6eaS1nNOdaRp/T5vMiDW2a/Uzaw2/SyyTT0ea1T76Vh0c6lvSUcqjLGfu8FwPXOPBGw8rqpFsrKwBAw09aqZ2QtXMOe9bmxreoSNNUKKQoqVtP+QSvzldr46bSRxJ1t6hy2v1kYzVwNA7N179Dj+JTtPP1H1Bj7nv6UqK9k6flg3JHTgxWVj9gZQWgO4wLLCm8ZJuq/M7IC1LVtkrT4qS7VaS9zTVaXCyZ+hr7PD+BXB+3ajMGwcZqYLGyMvwk9Onf/oTo8SN69HxGWlif8Et/Xvs2nV75sR5KQ7OGwspqLcOAWVnNOhblv5yg8KrYNtYQK2lzWkY57I/ZA3BcMHU14v9E/Rq9v3aL7qVnKVb6kIr1sZZtNZ2laKWkv0xHsZ5yGsr83b27NJpIU6iir5Pp97eN1cBiZTUw3tvw4Mt5Gvn59+WyE82/0JmbP6S7b/6bnFeBldVehsGzsmp1LMp/MyIvWPbEtD1ttU4BAN3T7zZWA9d7DvwuB34DXOjhrr4kOFFxHgpiKbWHCxpPpZs4fnB6w2plVfHTEAMwlCi21ar4XQQZs+fRhmRky/X31s82VgOXYaXLdOrWz+jE37QX/zTPf5ceP/tFCj3apSdnnrPYWtXuCaysShkGzMqaO5+isTGRvigfl19UlnvarWgAHD8My6liO62Kc4422bKthhpNcT56jZoVbeioXCrLYSONHXM+lJml2PqN1jualXRluD60sRrAreQD34QaCivreJJyW4u0gJvYAAAduJV82NvbpGqNh2K0z2ForQ8jT3se3FsGAAA76DkAAACwgJ4DAAAAV9A4AAAAcIDGAQAAgAM0DgAAABygcQAAgENEc6/1v5114BoH3thhsbL6lbFX9eBHvxleD6PO7cByC+xoJ+VgvzvXsFF3qyqH7Sc7q6Vx4Kej7f6kB1/Ky2XG58iJDY+V1dew2qN6sKOWfVgMr377C5ZbYEc1tMpjhw2ufHUvjiFWz/DVuPZts7kqDIKd1dRnsJL7/vQ/iebiKWliNQjtfkonq+t08pPf0JNnnqeTtz/U14h14qoKVlZ7uXtrZTUMqwdXD6L8poH1jrU+Yhe1/B3b6L5PVQLvX5/9o6Uvwhu2WF07YpbHNNT6bJ+RrxrWry5jVtutarkNss/A8ae2rRhaZ7L0YvM23d4K0bg4hj6+tkrRN9+iqeZ/0PvFTUtYA02L0992VouVdff1t6VP6dRH78n3OTDcU2Aja6j5KTVn3pZmVjuwstrL0Fsrq8FB1YPVwMruLmfZvdNvlcl+5RJ4//rsHy19EV63xRrY64y9sV7puIb1qUs3I61Bp/sMHH+ifCgoUkuX86wn/W5nNRuHx2NfoMfPnZPvc3j4wstyGeu7GR5uCn+mifjawZUVxFJqDxc0nko3cfyw72jVpuiV137L4JdnUPZThiAG1m7St8fZbz2p2OvML9lOwjJB62O/+wwMMIqhtbgsLiIu5cRVfYpyqWlxUZQjWn5XnqzlzV4lrBv9bGc1G4cTu5/KxoA/j2JJ+YIfhhsKbjROffRTOd8OrqxkoUD5TF5sXJ2Wi/oKGzLcO1o4fhdr0Hgq3cRx4LOjVezlNXAtg13vm5ujOXHQTIqTih2/PIOy33qIpET5eGyUZ1wO5m7St9dXN2nwgZvPO8N3UmeBwtq22VIfLnSSPzh+7O2t0cLVBdEjFj1NcdXO09zDXVhak6r8JdFTNr7VsAZ7otdqiC7ZdbZ09V/lPE+vLVyVN6O1j0hPP6nLfGz3F/3SWbpqpCO+jTAi/FVRFrlcpGWftwO3kgcOe+kxsbIeFL0uO99vKdCieWADAA4PuJV8sNtLj4uV9aAY5LIDAJyg5wAAAMACeg4AAABcQeMAAADAARoHAAAADtA4AAAAcIDGAQAwUMTz+UAuoW6kiarcMaQ/o8N/pm2aTVl4yR6leWsZ7MvjGS28gebv6n8Tq8rANQ5yJ3g80dcJvbZtHra98ygMpQcFzKfgINiPNJHdYHPjW1SkaSoUUpQ0zKaC0vVFWlzcomTB+gCkurxaGzcVMZKou0GVT9b9ZGJVcTQOzde/I91KO1//ATXmvqcvJSnmY43GkdOnVtZhtHei7sBhIY81vioXvYbcpHWZYUTVZI98oaFf8esXUPx95YoW7gqvF2nkr4hvGUa7Es/PX7FebE2Lk+tWkfY218QJv2SqVPh5Hnmijon1ivfIsbwq4oxbG49BMLGqmFZWA3Yrnf7tT4geP6JHz2ekoZVVGvde+zadXvmxHkpDVrrNzCl3WACD58BZWc2yKJZQW16GvXM+HaZ4IkbNZpoueqVn1JOHLbSt5XQkRblkzAx/Z70mtl2kaTOK2k2i4XiCZi/o5beVoZPyOW2mvN7dWtqK25u6A8MH209HVq/RB8UybY8laKRSodBrViPqidgEhVYXaekPZaqKw8W0jor/E7ev0bVf1mksNUKla9fp1r0UZUdKdGtNpDcaE7+vs5Q8W6dV3WxaH89StFIiPuwsZlNRFh4GKuTO0vK1W3LeQF1+d+8ujSbSFBLllHEGwMSqYrGyGrBbafeVb9GDL+dp5Offl8vYzMpGVrf3OdjNnJ72TXu4AbOyMm6WUDUvhi8ciGoiryKRT3r2vOy2UPtVgZsVVg3Pm+RmFFVNolxXa0sizO/kKt/tbVc++75gvKylrbi9qTswfETF4WCIG6MRMSO/xSGiCBBZhtWp3DGIaFGFL5oKqZp1qEfgtdxOv5tYVVzvOTz+fILOfPAjCj3c1ZcER92JftjDBY2n0k0cP+wHm99O9oKFW4ulKOXeKVDOJz17Xu02I8i2+h3oanyvH9d+yqfSbdygdQeGD03cOCeHhpIR7ei2CxBlGBc5ZjvcRItSmOkyNh9LiXCRnBy+4uEoHubivOzL46Knn4xsuR63/WxiVXEZVrpMp279TL7bgWme/y49fvaLFHq0S0/OPEcnP/m1XM6oXZRYOs19ISrWRXfnzawc/sgmm7R8w9q1sYR7S4S7pw2TFD8OFq820upq1bbjvnHM8tVGnN0s8b/8Lo9S6sKrFL6zLcowQtlLUzSyPUJT50bFutZO4rRy51M0NibymvDOK5yep7S4yj17VoRZbtKUR3pcdktejXEzLWNbW6G18Gp9GS8bUsM3EimaisYoNjVJE80Ns4vMYbS60oZpJiZE47Eq6lzsA6/tDVK+2k6r7moj1rzscXtZd2AI2SmLQ65M5bI4ZlbK2m+Dl62UqFwV33x8KPM8rMTj/nx8md+0Q2WRhhyk0ZftcHplkW5phVZ4+EZfHmo0xXH+GjUrFTlEZMTbKYtw4tgv8UfkGUskqHarQpu25Y3MLMXWb8hhKYlZBkaUY2XZLFNV5C3jyU9VKx/D26MMKUl80imvGOmIbyOMCL8i6kQrl7Z9lnkPeFgJbiUP+K+iLJbR8STltha7toQ60mtjLe00fCdkxFUDLS7SmnJVc5D58f0aGFYBGBzYreToOQCDHWqIq9hQo0EN8amGWlfG3WFNb3Pzrr7ci07D+8N/lXFlNkuJ9CyFNv4HfVC1n6h7m5+K2sMEAPQ/6DkAAABwACsrAAAAV9A4AAAAcIDGAQAAgAM0DgAAABygcQAADBSwssLK6orcCVxh+xS+wcrqT6/qWQX2VXCYwMoqsC13zPvgaBxgZe2OY2cW7VE9q8C+CrpF/k5hZZXAygorqx5S4zCtrNxraFfPo+KHNtMU9djgHsYMNd3q3r7PxXpHHY3O0kWP+tpOXPTNw+/xf3C8gJVVwysdWFlFFcLKevBWVr4KClLPbljq3mN7LHXkU19evV97nYPjT1QcGu3EkbCy9hbXew6wsnZvAj0uVlaVIHl3glpHUR6n9aiv9j8RMCzAyuoEVlZbPFhZD8fKqnZp3eq52hRxcwmKxaZoUtTHhkjPte6V8tX09WodhWJZSnjU14elkG8eYIiAlVXDJx1YWQ8JHneHlRWHBgDDCKysvsDKCgAYTtBzAAAA4ABWVgAAAK6gcQAAAOAAjQMAAAAHaBwAAAA4QOMAABgoYGWFldUVuRO4wvYpy4OVtTOM/GBWBYMCrKwC23LHvA+OxgFW1u4YFuNoJ9vZq7oFQB5LsLJKYGV1iQcr6+FYWRm3/PghQLl9vJ0h//Lb91VZ+gwA6A5YWTW80oGV1cWiCiurFp43qVdWVsYtP5V25bfvKwD2Q1Qcbu3EkbCy9hbXew6wsvpbSv04LlbWdvl1Wn4A9gOsrE5gZbXFg5X1cKysnvmJ//n7hujWtit/badVt9UdtQMOQIfAyqrhkw6srIcE/1UUrKw4NAAYRmBl9QVWVgDAcIKeAwAAAAewsgIAAHAFjQMAAAAHaBwAAAA4QOMAAADAARoHAMBAASsrrKyuyJ3AFbZPoRusrAdHP5cNDA+wsgpsyx3zPjgaB1hZu+O4WVnb1Uuv6g2AIMjjDVZWCayssLLqITXcLKkHZWXl3pl/PTcpoa6PifVKvqohEoBeACurhlc6sLKKKoSV9eCtrHwV5F/P1npzyxeAXhIVh2o7cSSsrL3F9Z4DrKxOS2lQjouVVaVd3p3+wADoFFhZncDKaosHK+vhWFlDDWu9OOpZMa42oi965gtAT4CVVcMnHVhZDwked4eVFYcGAMMIrKy+wMoKABhO0HMAAADgAFZWAAAArqBxAAAA4ACNAwAAAAdoHAAAADhA4wAAAIJO5Jluxla5XJkfdDPrwDUOvNH9aGUNQr/aSg0F8lHUCQD9gp88Uzsha+ccL2OrdCsp84NuZnU0DrCyDi/HzSwLQCdYLK5se5XfGXlBOs16jcmcvKr3NLba5vlp5EE2s8LKGtjKKsrnMJ7atskWJjw7T7H1darJbY1Rqa4pMgKbW+119JI1/e30PM00xbY0uDc1Q019+zuxwrKl9dVJcbDplllplg211pkGV0u9Wi2ssi586tlznbHPXcoHwGFj6nbE/4n6NXp/7RbdS89SrPQhFetjlDixSu9/sEnxtI+xVZkfZDMrrKwu6XlZVN2Np9ZtsocxjYvTvK1FGYcJbG611VEQ+2knVli7pdXAa51Rr6514VPPXuv86huA48qgmFld7znAyuq0lAYxjzrCiL3O3cq5pDgpKuXsxNyqbl+QMnSTtmFpNfBbx/TKwupX3wD0FVVxNTSZo4zo+XoZW+1wz3+QzayOxoHvK3DDoFpZeRk3GOE/V+QyPzS1rqbNLYiTonLBbMGu1w0aT6WbOA6Unc7pqQpgO25qXztqmL29NdF5O0+T9ZLlAOG/QpiLiuZeXHkv++RpryNGTV8epDkxP5ejSb1QHaVtUyAb+K0zCFIX7WhX3wAcJntrC1KsaXwzawsLUlDJv+WFq2J6c5N/eOKib072dPndJ0vKzWLLvG3EQE1Xhrv6r1p+Ynpt4aq8Ga191lrpid6B/f6qXzpLV410xLcRRoS/Ksoul8uev3XeC7iVPOCbUL2wlLoZUL3oVZ5udJt2J+UHABwP2K2ExsGHkOhNGCP7m3zF0AHyLxzEFX2SOvvLqv3k2Y6gafON9XeSERLX9VTfeJfwF0wADBdoHAAAADiAlRUAAIAraBwAAAA4QOMAAADAARoHAAAADtA4AACAAFZWKwPXOPBGw8p6sAxKOQHoJbCyWnE0DrCyAgCGEVhZrcDKOqxWVtft0eqNLY+5ZExsm6jXyy5W1qZ3PQEwqMDK2gJW1iG2srpvj1JvcttEvd6MmBcxxnq/egIA+AMraxvs4YLGU+kmjh+c3rBYWfdjVvWrJwCOJUNoZXUZVrpMp279zGJlffzsFyn0aJeenHmOTn7ya7mcUbsnsXSa+0Gi+yW6Om9m5VBINtmk5RvWbo0l3Fsi3D1tyKT4cbB4tZFWN6u2HfeNY5avNuLsYon/5Xd5lFIXXqXwnW1RhhHKXpqike0Rmjo3Kta1dhB3D6eiMYpNTdJEc4NWja6cUrZGImUJs1L+AzUTl+lrzWW6Ub5rliecnqe0uNo+e1aUeblJUx55yu1T6qgRtab/f5dEeXMJisWmaHKiSRurFXpJnPSDpO23PVzO3PkUjY2JehXp2uuVy+VVTwAMLFXt+Da/5aQx3FOl0oqY3tmhUKMpfvOvUbOiDR2VS2U5bKSxY86HMrMUW78hh58kSroy3MqyPr8jVq2IU4hYLz/VVno7ZfH7aqUu8UmnvGKkI76NMCL8iii7XM5p2edd4GEluJU84JtQsLICAIYRdis5eg7AYIca4go81GhQQ3w2N+/qy4PBJ+NM/iIlRa/huug1BGN/efpzkGkDAI4T6DkAAABwACsrAAAAV9A4AAAAcIDGAQAAgAM0DgAAABygcQAAAEHnVtY45fP84JqYDmnxNJOqZmyFlfWQ4Y3uFyurkQYspgAMPh1bWatEpeuLtLi4RcnCtDwPJLf0+dwcEaysh0ysf6ysfgeTwX7St9PLtAAAVjq2su5taidsFprVa1KJtFEU58q9NdqgCEWrsLIOiZXVKIvVVDofWydDxbEesm9DkxJqeWMifdWEqocPxxM0e0FP06g/WxnkAaqkNTp70WJ8XQ/POsvnkRYAwImp2xH/B7ay8jsccmdp+dotGtFUqlK3oSl1PqQGrKzH38rKuJlKVZzlsaZvN6Ea4deWxPLftdJwKwNfpahpuRlf7eVrtz0AgO6Rw0GpmjnkUxM/MxYc84XcuDjfeHlVYWVtgz1c0Hgq3cTxg9Pbj220XXnsJlQ1fDQiZuR3wDJ4GF9V9rs9AAAdFytrLDVJkUhOu2HMN4h5eW6O5uZyROJCrSouZ2FlFdtx3K2snJanqVRP6wZ38+zl2Wml34i+aDGhXlsdEeG1YZ+JCdFgrIp6EPXiWYZGK63qXafx1V6+sk9aAAAbhu1UsZ76WVm3ri/SjVu3xGmJzyNV8Vsvi+kylcsl4p8arKzHFO4aWiym40nKbS3SQpsb0N3iZm91lMFmUlXj8D2RAh1c+QAAwwPcSj7wGH+1xkMy2od7lb2G/1b6Cnft5q/Q+IZT620vg9EwcKPBfwOdrC8HUoEDAECnoOcAAADAAnoOAAAAXEHjAAAAwAEaBwAAAA7QOAAAAHCAxgEAAASwsloZuMaBNxpWVo2jyheA4wisrFYcjQOsrME5bCvrYTGIZQZgvxgXW/wNKyusrANjZWXMujXW6TZGM199ue92G/WshvWp43LV/fF6AI4bpm5H/A8rK6ysjvT61crK2NfFfJZ7bbdrWJ86BgC4wxdrsLJ2QFSce4KYUu3hgsZT6SaOH5xeP1tZ7euMrLyWu9FJWACADqyssLL2s5WVt9eyrjFu5uu23G27PcOqdayUmS2UAAwFhu1UsZ7CygoccNew362sAABwELBbydFzAAY71AiFxFVCgxriUw3pN33MFnv/SCvrbJYS6VkKbfwP+qBqP/Fby7C5eVdfDgAABwd6DgAAABzAygoAAMAVNA4AAAAcoHEAAADgAI0DAAAAB2gcAADgENHcZf1vZx24xoE3tl+srPshnm9pfgEAg4N2Ug52/nENG3W3qnLYfrKzWhoHfjra7k968KW8XGZ8jpxY/1hZAQDDh2polecPNrjy1b04j7Aih6/GtW+bzVVhEOys5kNwrOS+P/1Porl4SppYDUK7n9LJ6jqd/OQ39OSZ5+nk7Q/1NWKdzZp6rK2sQcrrue16eZpa+mxhfXVS7FjVwtquvtyWGXENw6qevlv5AQC9obatGFpnsvRi8zbd3grRuDiPfHxtlaJvvkVTzf+g94ublrAGXlbVfrKzWqysu6+/LX1Kpz56T77PgeGeAhtZQ81PqTnztjSz2hkWK2uQ8rYrj7HebmFtt93GVYFbXavlnbbN262yAIDeEt2HyLLf7axm4/B47Av0+Llz8n0OD194WS5jfTfDw03hzzQRXzu4soKYUu3hgsZT6SaOH/YdbTeititvu/Ko61ULa7fbwHHV8pJt3s0GCQDYJ4qhtbhcp8ilnLiqT1EuNS0uInNEy+/Kk7W82auEdaOf7azmsNKjv39Zvr+Bh5TufeUbchiJld3cUDw89wadWfkxhe5b3T5qt+S4W1llXm3KW26z7Vp5tWEf1cIaaLtdltkNrjdWQ57lBwD0ipahVVpTxXS5yvbUqpjVXgJkfFvCGgyAnRVuJR9gRAUADCtwK/nA74et1niIRvugYQAADBNoHHzY29wUjYL2AQCAYQKNAwAAAAdoHAAAADhA4wAAAMABGgcAAAAO0DgAAEAfwaocU6YXEH4fPT9oJx1P8y2pp2Z05XXO+XhGs7V6MXCNwyBZWdWyGvm12/Gd2lp7tR1HbakFAHQHe9/mxreoWCUqXV+kxcUtSham5bkmuaXP5+bkb1ydp9q4qetxw3xCmmFNxu4r37SI99jK2nz9bfnNH3XdURCKz1B2ZHXfVtadKj/VyOnlaX6m6Xz6sAeoZTXz85FdMaOJBI1UKr6OFrXMRrpB8NvWTtJhDrLeABh0MuKiMLa+TjUp7IzRejhN8+lRimcvUza8SusxRchZeUmEUaSeIynKJWOmZPPOeo0aomfgFb80eo4SjV+K3+9d+UR1KC7OMSMVOjHxItVvlKi6V6VwOkuvjhNtKPMjH65SKJ2gsssPn5+QhpU1qJXVLIvI63KCwmxUVfMyjKhmWZqUUMsauyjyWxfNQkuDYWDUmaut1TCuim2ZT4cpnhD5TU3ShC1d7WCx1bHlgLpj3daYKK/tYGulY9smW31wj0jdD6OzF20/hFlnXdm2B40KOM7URGMwGytRPT1LI6s3qPyHMm2PxsRv5ywlz9ZptfEiJeqLtPDBXYrnOcwiLYkwVfGz4AvIRP0avb92i+5x/JI4oVd94osTfbSi6Tr4ZUGF3FlavnaLRjSlq7zQZOUOe/nqyjyVPqSGOJ+ExMWo/dcIK6tLen5WU60sIq+bEdOeaDeutspiTdsPI67d1moxrkrjYk3bBo907XW8J8qyvEW0Va8Tv+9DLY91XUxPQUPdJrf64KfH1bRMm+Q079OiDGOvq3Z1C8CxQvwo6uNzlIqI8444G/P7HVK1IhVLdXEmshJEvukX34AvMgupmvlCoJoIyD9tvpgbF7E2bPPtfK9m4wArq5Zet1bT/ZRFjavaWtWyyLdBlaKUe6cgGslg+B1QQQ62wPUhfwjTNJfUfghu7KduARg09vbWaIsmrUbU1BzN8ct/5FwLNrsmxe86L28qe180ecWvit8wX/DGUmJdJCd673yfMyN6BmJ5TsRhU6woB//W1fmqOJMkI1uev0WzcTix+6lsDPjzKJakJ2c+J5dzQ8GNxqmPfirn2yE3tKBtaEGcLPQLSQf2CgkaT6WbOA589Lt2WG+bz7vntZ+yaHHn5F8aJMWVhrFMLQv/lcFcVFz+iyv9WhsNsIrlgLLF8zrYDHzrQ0mLfwglOk+T9VLrh2Crq3Z1C8BxY23pKi2sab+HTXFxt7C0REsLV+mq6JXviR6+sY7fx7Bwld9MqY2iqOvWFhZoTfym/OKzXZV7KXT9XboqwvMrRheW1miT0xW9iCURl996KfNR5tWevhuwsnrAXS+LlXU8SbmtxdYO2QeOtAfA+NquzHwDjhYX5YHM92cK1Ju6AgAcPrCy+mC3svKFcq8YROOrV5m50eBeTbK+LBsGAMDxAD0HAAAAFtBzAAAA4AoaBwAAAA7QOAAAAHCAxgEAAIADNA4AANBHtJNzuqFZWUP6Xw+2bKuwsnZBLy2kvSoTAAB0imllpWkqFFKUZFcOLxfnOFhZu6CXVtZelQkAcDw4EivrH6q0vt6kWCpKW6UKJWZTBCurI45e6T23srrZSsN0YuplzzRkGTwsp9q6gPUCmykAA8ORWVlDo5TQGwdYWV3jaFZROd1TK6uWrjXcONV80mDfqZflVFvXvl5gMwVgwDgCK6sdWFk7jOMHpxfEHGoPpxah23UG9m0KWiYAQP9wFFZWO3L5Pqys5rDSo79/mUZ+/n05pHTvK9+Qw0ihh7uyoXh47g06s/JjCt2/KyMZqG8107opJSrWYzT7ZlYOi2STTVq+IbossdYLbizh3hLh7mnDJ8WPg8WrjSQoFd2Swyu17bhvHLN8tRGzq2WuF//L7/IopS68SuE726IMI5S9NEUj2yM0dW5UrGudpdVt5Xwt4bbOWspkWdcY946nrPOrF68yAQD6l2p5Rf62mZ0yn2vKVC6t0AqP/1S1372+kkorfA9UG1ZS11X1YSC/+KFGU5w/XqNmpUJ39+6KMGVtmIjTFdNlEVeeNmzzocwsxdZvyOEoOzysBLeSB9z1GjRzKgAA9AK4lXwYRHMqAAD0CjQOPuxtbopGQfsAAMAwgcYBAACAAzQOAAAAHKBxAAAA4ACNAwAAAAcWtxIAABx3pPU0tt56ziAA0noaalJ65iJls3EKr1fk8wdsOZ3l+W0xv2OdD72UodFazVRTaB631rNKPJ8frWjai3iG8hdnKZtOUzy8TZXaqEjrokgrTWmxLJ2OSz0Qp+WVTmVUSS/EdtaXKFSpUUPJRw3v9nyDgUWfMSj0yoDaSyurnXZpH2TebnSan6EMPuhy9mpfAnCQmNZTcS4uXdetpoVp+TvpyHoajVBkMtnScfN8VDtZF3Ii7cVFWlhYoNL4JSpMV2ltaYEWl+tE9WWxfKn1JLNHOua3zrhuZ7Uvd8x7YGkcWJPBPiUVNrHyMuNz5MRSFOHK2qcBdXNtgZbW9rRWuMcnJyNtL9qt7zXd5tdJvK7qsUf7EgwfbD1lF5kmqszIK/v5vLj6nr8iT5pSlKlfeGhh+EKnpaeIJOfEPIfR3mngF5+mxUl2qyiffZIn6JiYr9doOkm0UdRUGRsUoZxtPlotUX3c6sSu31ymerIgy27A/rT6ctE8+VdZAJe0xrPjlk6vgZU1qJXV2C7VqOqb9rrU6s6nwxRPxKg5OksX1WleHwpWVyryIFbUveFZmxp4O+2aplEeU/Orbpt9X4xoahFZfrWcHjZZ+34pSweAhnaMtLfZqnEAaMeRWU/jGXGVf5aWr93q2HqqKXg+pGvrMZp9rUklkQf/zpoTKWp8qMVjQqEYaUmL8+RoSxdk4JWOqQQSCal2VlUp1IrfmncDVlaX9LwMqPZ10qjqm7Z2gSEOY7FOXE4o08Y+CVpXKnsi7PKWuJCp1ykyHmP5o7zI0Oqz6JmmgVo3BvZ9Ycd12332i50gNlsAOuIIrKdy+CdVM4d4urWe7m2K3zDlaE6eE+SmWDsK3CURPZN22NPpNWbjACurlp6XAdW+Lki2mzxmWIpS7p0CRXmsUp82joNuyu84iG0/koOox2623Y1epQPAUVhPYymxLpKTQ1Q8BEW8vEvraVVcVNLkf9Vmisu0kXxHS1d8CskNWr4e7NdhT6d+XkunULhkrZvzBb3c2tCvfd4NWFkDWlk9jao+aYfT85QWV/5nzzZFWbKU0KfX62fpRbH+BncLA2xzqxSiwRbd1KlojGJTkzTR3KCV8h/Esgs0cXuRflkVVzN+daKXi9NWkXGUfWEMKxnhuZztbLK1nVY9VnfsXWAtrKMOFZstAJ1y2NbTLXGBd+PWLXG4c9gq7XRqPVXLRDtUXlnW53fEKrEtnK78iLRlGAGnaf99+KRTXjHSadUNh18R26+VW9s2y7wLsLL6wF3DfrCyHkQ5DnLb+qXeAADdw1ZWPOfgyQ41xJV+qNGghvhsblp7TYfHQZTjILetX+oNANAt6DkAAABwgPc5AAAAcAWNAwAAAAdoHAAAADhA4wAAAMAB/loJADBUsNIFVlZYWT05SONou7T3k3evtl9F/lhEeWBhBcAJrKwCWFl7w4FaWTvY/k63DRZWMCjAyupMp9fAyjpAVla+8rZsf0yUVzG0rtfUOm1SLOdhSoWFFQw4sLLCyupr//SO0zKPHicrK1+5qOW1G1qtdWoNqwILKxh4YGWFldWPbuL4wen1u5VVxX5AB02vXbhuttWNXqUDgB1YWTVgZVXiDbuVVe1m2g2t11ZHrHbVqrspFRZWcByAlZWBlfXQ4a7hcbGyHuS29Es9AQB6B6ysvhwnKyssrACA4KDnAAAAwAGsrAAAAFxB4wAAAMABGgcAAAAO0DgAAABwgL9WAgAMFax4gZUVVlZPem0gPWijqR15gB9SfvE8/zAONq8gefRq36sc9n4zOIhtAQcDrKwCWFm7Z1+mVRCMHu17lSPbbwewLcMErKzOdHoNrKxBraxmWURelxMUXhVltuXlMLE203TRKz2jnjzMp6qNlXEzqeaSMTP8nXXRfeQDXLW0irLYDanheIJmL+jlt5XBrXwc/tVJcTC6hPevX7eyWLcvSB5GmfhKu92+HxVd+pmmyLvBV+Uz1HQ7HuxlEOt9Dbq2fbiduOibh/OYsda/lg4MtfsFVlZYWX1toN5xem9lZbSyiLxuRsyGXc2LsZhYfdKz52U3n9qvCNxMqmp43iS7pVULo5XPqKu1JRHmd3KV7/YGCS/L7FG/7mWxbl8nZbIbaY249n3vhuV48KhjL4OufR969cbtx4GBWv+tdGCo3TewssLK6kc3cfzg9LysrEFRTaw5n/TsebXbjCDbGvQHEo2IGfntX7524f2KE+TH1mmZVNS4vcDLoGvfh+1/su50UnegPbCyasDKqsQ7Kisrp5U7n6KxMZHXhHdeqol1eblJU51aXpVtbYXWwruaVJXwjUTKYmnlrrERRqsrbVhjYkKcsFdFnYt94LW9gcL7mGk/PutdFuuxErxMahfbbd9XmyJuLkGx2BRNin20IdJzPR6UMtT09V4GXfs+/LAU8s1DRc3Psb9hqN03sLIysLIeOtw1tNhGx5OU21qkhS5vXjrSa2Mv7TR8J/DNPFpcpDXliuYg8+uWfiyTH4NWXgC8gJXVF6tttBpqXfl2R6f20t7aTvmvMa7Miivi9CyFNv4HfVC1n7T60a46aMbXQSsvAO6g5wAAAMABrKwAAABcQeMAAADAARoHAAAADtA4AAAAcIC/VgIADBWGMqWTvzyElXUA4I2GlVXUAx/gh5ifH+22fT9106v9rXLY+8rgILYFHDzsNYOVFVbWrhlmK2u7bd9X3fRof6vAxDr4wMrqTKfXwMoKK2vw8vnWpY/ZlKd5faj9Pla3m6+0YWIFbsDKCiurJR6srIdrZXWUz7cubduuTBvHoFEGv32sbjdMrMATWFlhZfWjmzh+cHpBjKB+HCcra6cWUS+zqXHcB9kGP/Yb3w5MrIMLrKwasLIq8WBlPTwrq2v5fOrSy2y6Xj9LL4r1N7gbHGAfq9sNEyvwAlZWBlbWQ4e7hhbDJqysh0K/lCMog1ZeAIIAK6svVsMmrKyHxaCZTQetvAC0Bz0HAAAADmBlBQAA4AoaBwAAAA7QOAAAAHCAxgEAAIADNA4AACDoRMgoLa3xEPGfMmfymp9JLlfm45nWckbzuGX0OW0+rz+UJ62s/FCa+OQz7IPidLR57ZNv5eGRjiU9pRzqcsY+78W+Gge3yoznWW1rXcYFPS5mTS+kr6ePygMA6Aw/IaN2QtbOX+w5k5ZWmqZCIUVJ3X4qvUvKfPU4WVmZ5uvfkW6lna//gBpz39OXkhTzsUZDJbDdMnaMzJoAgGOJcYEn5YniSt2wtvLF7TRrNSZz8qretLRurtHiYslU1djn+UnkQbayOhoH9is9tblOT//nEj05/axc9uTM56SY79RHP5XzBmZlcqsqKjMjeg2iDi3YK9YIy54To6vETiDZLZI9DG2ZtoO03oZ9Z8l0jbz5W3Sf8tyFUqeNfLhrJtJol4eKu77Xnr81jIFTJexdJgBAf6LKGh3Cz/EIBRFusThyi8bN4SCNKl1n19OcJsZkxIV8F84wZzq9xtE4sGxv95Vv0YMv56VriWEzKxtZvd7nYNgyVeOnwSCaNd3tptb83cIwpmFxmi2qxcCWVgDAcDBwVlaVx59P0JkPfiTFe0FQWz7D+OlFd62kNwdh1gyi7/UMI1XC0zSX1FTCQS2tAIA+piquBCdzlInHybC0toNHD46FldWA7yucuvUz+W4Hpnn+u/T42S9S6NEuPTnzHJ385NdyOWMYKDXbptX4qW7aoJk1RxNpT7tpOwPqrWqVmonL9LXmMt0o35V/cRDE0goAOGIM26liPTWsrWJKml2rOztkWFqblQrd3btL5VKZWm7THXMeVlYXeFx/mM2abtZTAAAYFA7MrcT3Gao1Hj7RPv2uMO5VebmR4Z5Csr6MhgEAMNDAygoAAMACrKwAAABcQeMAAADAARoHAAAADtA4AAAAcIDGAQAABLCyWtlX4xDUymrH8CIdlVnVyB8AAAxgZbXiaBwOxMrqQSfx1Z0DAAC9xrhotIs2+SocVlZBr62sjGYo5V6C1hUzsMc3bKVtd44CDKoAgF4DK6tL49BrKysTm2ND6aKo2CVac3n6mOOrtlLeXL+dowKDKgBgkICVVaFdy8jrVVtpJ40oDKoAgANnCK2sDn0G31d4uvILi5WVp9nGev9L/6tsNAx4GKZAi7RYm5M3VOp1vlFSp413RS9CqRB5w+WS6F3crNNW7ToVowUtnvjfjK+vj4xv0eJWUi5fWNszJXby5s87Sdp4b1n0Plq9Bz7x58Qpvx6ZpMn6e/TuVs4RtzYnTvYeYeL5K3SJ3qOrS5vyrwPGRU8hIhruZVHnOaVMC0treo4AgGGGh7nn5lJUuu5/0cjnx7naIi31uVvODdZnDJyVtddpw6AKAABWBtLKCoMqAAAcPLCyAgAAsAArKwAAAFfQOAAAAHCAxgEAAIADNA4AAAAcWBoHfsaBn4J++MLL8kE4/rBriZfdn7qohwIAANDvBJGg+mE2Dnzyf/jCV+nUR+/JB97C22X54YfeeNmDc2/oIY8W/hNUqbbdp+9oP0bY/Va6H9Lv1GW5AACgHUElpmbj8PiZ56VXiRsG5sGX8vLD8DLDuXTkxFIUYYXtktWx1CmGEbaXttdepgUAAJ1iSExVCapVPGqVmBrh3QSj4YmJif+mT1P4M02ZwfCQEhP+c1l+M/e+8g36u98v6XPaVe6V2TiNhbN0YTZMK6WqltnFBMXDCcrOJmh7vUINt3DShDorwsVpNFSh2mj7eKvrIZp+82uUnIjS2L1tqoRmPOKkKRHfpvXRi3Tlsog/JuJn0zQWj1PiQpYSd9ap8pKojNg2nXjVJb14lrKJbSqVd/Qt1StdrAvHE/SqqPT6qigzV3p6lOLZy5QN3wmellrGpi1c40VKUYnWY2raq2K+gzp0yRMAcPyJz2RpZPUafVAs0/ZYgkYqFapWxfRoTJwvzlLy7Md0bfUEJU6s0vsfbMrwLzZv0+2tEI2LcxefQ/ms8de//rXVcwh/9id9iuQ9h/vca3h4T1/ijd2Aahha2cC6uBExX3bhCGcztQaJ51DnesZZNHsW9ZvX6fr1ZRKxpAuFVektaZYzPS8Tq5GXap612l7ZexUsLcYooz2c4YwNYpt1q0OYZAEYXtwkqH5yUrv0VHVFtYaVxp7Xp/jG9CV5n4EFfJ3SzsBqYA8XNJ5KN3H88KsoNa/9VrqKPZyxOUFss/btD5onAOB4UuR3PBTm5DBRMtI6c0RSczTHw0k8oxhmOXzkUo5S0RTlUqo3XGkcHv79y9q36DUYN6XtPFXd0Ke80QpXIH6xTyFZp+WivsKGDPeOFo5fABQ0nko3cRwErCgtr95UuopfOEvaLsgy2eowSJ4AgOMJv+OBXym6tLRAC1eXpDeOX0WwsCSWLVyV9um9vTWxbkHarWV4Mc2jD3bztOlW4j9j5b9WOvnHX9GptX+XKw24weDeBN+UHhZ6aX89SEstAAD0GnYrmTekn6quE508TQ8nZuhE81Oip0/L+d2v/gs9PPeG6En8RgszNOxQIxSiUKNBDfHZ3LyrL++GXqYFAAAHC9+QhpUVAACABVhZAQAAuILGAQAAgAM0DgAAABygcQAAAODA0jjAygoAAMcDWFm75CCsrF5G1X3ltY+4AABgJ6gg1HzO4cF/maWRG//dlO+xkZV7Dize42Us3GMr68k/WZ+iO2xC8RnKjqzu28q6Uy1RuapX1EyzI0ndaEIXWunzBqFYWkrzSrYVRl4qQfPdTzmDcpBpAwAOD/lb7oEglJ9zgJV1P1ZWY1sDGFXnY+tmo8G9H8t2xEQ5zTKLMjji+pfTdzttplYZ1qdOy1U0EAAMKrCy9omV1R7ez6iqsre3acmXMcrsHte/nBzKaztdw/rUKQBgcOmlINRsHGBl9a8oNS+j0u3hjaIEMap6EdTG6pavG52EBQAMNr0UhJqNA6ysnVtZ/cK3M6qq+dpxjduF8ZUJFNanLACAwQFW1kOg1yZVmFkBAIMCrKy+9NqkCjMrAGAwgJUVAACAA1hZAQAAuILGAQAAgAM0DgAAABygcQAAAODA0jjAygoAOO7s11a6Hxmm1PDkM/qcNp+Pa2mF4hlNKio++Uxc/vl7Jq/Na5+8aW3wSseSnoyfkXHU5Yx93g2zcehXK+t+dyQAAARBO+G6Pwiqrttc44fGuvwjz2iEIpPJlr2Z56Na+oUcUWlxkRYWFqg0fokK01VaW1qgxeU6UX1ZPtxmWhs80jG/dcYj49qEbblj3gWzcXj8zPPyITfjyWi2svKH4WW8jq2svcJvRwAAQC+R5xtx5Z0RF5u5SX0Z20rFlXV+/oo4ycZpmq0Ekzntql0Pz0YEDmNZJ3oOfFKW4tErWpgrfLUv0s5fEd/6FXwrvvU8V7+5TPVkwXLRq7nbiubJv8pytKS//cAtnV5iNg4n/+jUZdh5FEvqUxqaWZW7QJoCQ1YWd39EZdgrJ/iOaM2rOxIAALrFTZxplVyyasZLbjlONQ85ZVDhpSrxFKd+us46nrmWlFNcyHfhiXOm00vMxqEbK6vdrMoYdlGHDbR4PeCOSNG0y44EAIBuUU++3dhKOz1v2+OrEk+GnUbLlKM5fdSnuGHrKEyLC/F6TZ/xxp5OL2kNK3VhZfVr7eyVQ3OFwDuCjXP2HQkAAN3iJs5kAttKO5RTBhFeVkWPgyb/qzZTXKaN5DtyJIY/heQGLV8P1iTZ06mf19IpFC5RZKPVMEXOF7T09WEu+7wdU5/Bf5XEN5+518C4WVn5nsPpX/1PfU4bxytcElf5N+u0VbtOxWiBCiR6Dmt7lnWR8S3RuiVF+yYahsgkTdbfo3evR6nwTpI23lumIqUsYRdL4/LmTL3ON13qtPGu6EXYWl4AAAAHA+szYGUFAABgAVZWAAAADmBlBQAA4ABWVgAAAK6gcQAAAOAAjQMAAAAHaBwAAAA4QOMAAAADQidGWFYWSa2RYmeVy5X5eKa13E7fNw5uVla3CoK9FQBw3PEzwkonnf60M3vv5sa3qEjTVCikKKnbWVkLrs5Xa+OU8/D7ORoHflL6UXyKdr7+A2rMfU9fSrR38rR8UK5XqBvSKftS5gIAwIBiMcKyrFR+Z2RvQJWZ0rQ4+W8VaW9zjRYXS6ayyD5PVTE97t46OBqHx8+do6c21+np/1yiJ6eflcuenPkc7b7+Np366Kdy3uCorKxmBbUJBwAAx5X6xnVxkbxANykp+gdVsshMxyNE7b19tLe3SVs07jq05GgcjPc2PPhynkZ+/n257ETzL3Tm5g/lG+FUjtrKyvFgbwUAgN7jes+BXw/KEr7Qw119iTtHbWVV84e9FQAw1Cjm2Ko4z7Z70xvDoz/JyJZDKc6YbiUDvq9w6tbP6MTf/j853zz/XXr87Bcp9GiXnpx5zmJrrW3HafatLMXvxWk0VKHaSIpSVKKSOGHzuuylKRrZHqGpc6P0sei6TEVjFJuapInmBq3eClHqwqsUvrNNxY9HLGFvrIZo9s0ExeNZmpgQjclqxeJTD8XSMp8b6zHfcAAAcKyoaudX81tOlvTzXpVKK2J6Z4dCjSbF0q9Rs1Khu3t3qVwq044Mw+yY86HMLMXWb1C5tVIyMG4lvtkSm46S0RDWRA9kUx/GAgAA0FsGxq3EN02qNR520j5oGAAA4GAZiMaB2dvcFI2C9gEAAHCwDEzjAAAA4PBA4wAAAMABGgcAAAAO0DgAAABwYGkc+BkHfgr64Qsvywfh+MOuJV52f+qiHgoAAMBBsl+RaCf2Vi/MxoFP/g9f+Cqd+ug9+aBbeLssP/ykNC97cO4NPeT+2PdGw74KABhS/ISl6rpeyEnNJ6Qf/JdZGrnx3yn8mfZk9IMv5WXPIfxn0UiIZX/3+yXpXDr5pzW5vltGEwkaqTifZJYbNtOkkv1RPRte8QEAYJCR58CL4pwbT9CrkySNDzUWlqZHKZ69TNnwHTrx6tcoORGlsXvbVAnNyPBsiMgmwnRi6uXWuthFmo+t03psnq5cjtPYWJYuZNM0Fo9T4kKWEnfWqTKq5afF37ace/kJabPncPKPLS2GF49iSX1KI54XXRf9ZRL5+bw0+7VUsiLjK9pVvps9tZeWVgAAGHTcRKJ7a2I6kLB0nGrKOpX6zet0/foyibVUui6mb4rgUS0/VXhqN7OajUP4sz/pUyTvOdwXPQd6eE9f0hmaSnaJFm9GKDm9340ObmkFAIBBxU0kyhfgQYWlnY6m2OPb5Xtm4/B47Hl9im9MX5L3GZ6u/EJfsj/2u9FBLa0AADCoFJfrlCzMyRGTZKR1Voyk5miOR1Z4RjGvcvjIpRyloinKpcRVuLIuCI74NkzxHv9VEt985l4Do9pXDfiew+lf/U99ThsjK+TEibweocnJOr33rmi9pgv0znmi3/1OZCy2ZnlRLIvNmeEiItyGCFebK1BONAv1yCRN1t+jd69HqfBOkjbeW6YipahwSfQWbnKvYosWS+OO+GsuilkAAAD7h8V7ZuPAf8bKf6108o+/olNr/y4DGHCDwb0JfhFQO/ieQ4EWaQGv8QQAgIHEYmXlV4A+Xfl/6OHfvyIbA/5LpSfPfEH2KLhhOPnJb/SQAAAAjjsD8T4HAAAAh8fAvM8BAADA4YLGAQAAgAM0DgAAABygcQAAAOAAjQMAAAwIndhWWVGU0fVGmXzG1GOo8/FMa7mdQ28cDsLK6lZhsLcCAI4bfrZV6aDTrayhUIbmxreoSNNUKKQoyY4iXh7PWOartXHKOR+OljgaB36u4VF8ina+/gNqzH1PX0q0d/K0fFDuoFA3rFN6oacFAIB+hx8ynhcXwi3BKX9nZG9AlZfStDj5bxVpb3ONFhdLpqLIPk9VMT3u3jo4GofHz52jpzbX6en/XKInp5+Vy56c+Rztvv62fFBOpV+srGaFtQkHAADHBU1wukA3KSn6B1WrvHQ8QlTTA/qwt7dJWzTuOrTkaBxYkcEOpQdfztPIz78vl51o/oXO3PyhfCNcEI7KyuqWDwAAgM5xvefA6gyW8IUe7upL9sdhWVnd8gEAgKFAsbJWxXmV39nQDr43kYxsOXTdjPkmOAO+r3Dq1s/oxN+0N8I1z3+XHj/7RQo92qUnZ56z2FobzThlcwmKxaZocqJJG6sV2omlKHc+RWNjYp1YtnyjQuV6jGbf1N44NDEhGgMRrpFI0VQ0RrGpSZpobtDqrRClLrxK4TvbVPx4hLKXpmhke4Smzo3SjdWQI77eBkhCsTSlqEQ31p35qOEAAGCgqZaoxCc141tOlvTzXJVKK2J6Z4dCjSbF0q9Rs1Khu3t3qVwqU+s9bzvmfCgzS7H1G2R/ASe/Ca7nbqXDsLLyPY7YdJSMhrEmeiCbm7ghDQAAvWBg3Up8E6Va42En7YOGAQAAegusrAAAACzAygoAAMAVNA4AAAAcoHEAAADgAI0DAAAAB5bGgZ9x4KegjXdI84ddS7zs/tRFPRQAAICDZN+C0kxwe6sXZuPAJ/+HL3yVTn30nnzQLbxdlh9+UpqXPTj3hh7SHa+NMbxH3QK7KgAAaPgJStV1vZCRmk9IP/gvszRy479T+DPtyegHX8rLnkP4z6KREMv+7vdL0rl08k9rcr2d0USCRirOJ5KNp5eNp/kM5IbMNKlkfzTPhle6AABwnJDnxIvinBtP0KuTJA0PNRaUpkcpnr1M2fAdOvHq1yg5EaWxe9tUCc3I8GyEyCbCdGLq5da62EWaj63TemyerlyO09hYli5k0zQWj1PiQpYSd9apMqrlp8XftpyL+Qlps+dw8o8tLYYXj2JJfUrDzYJqLDOMqgbW5Zl9WVgBAOC4sT9B6TjVlHUq9ZvX6fr1ZRJrqXRdTN8UwaNafqrg1G5mNRuH8Gd/0qdI3nO4L3oO9PCevsQdt42xZxjTFvtuiD1OUAsrAAAcF/YrKO10dMUe3y7fMxuHx2PP61N8Y/qSvM/wdOUX+hJ33DbGq8B+G2JfF9TCCgAAx4Xicp2ShTk5gpKMtJqCSGqO5nikhWcU8yqHj1zKUSqaolxq2rIuCI74Nkx9Bv9VEt985l4Do9pXDfiew+lf/U99ThsqKuTEib0eochknTbevU7F2BwVLokr/5vcDdqixa2kFPEt1mzLRRtQeCdJG+8tU5FS1nWlcUe6ay5KWQAAAL2H9Rlm48B/xsp/rXTyj7+iU2v/LgMYcIPBvQl+ERAAAIDjDTcO5l8rPVVdF92F0/RwYoZOND8levq0nN/96r/Qw3NviJ7Eb7QwAAAAjjUH8j4HAAAAgw2srAAAAFxB4wAAAMABGgcAAAAO0DgAAABwgMYBAAAGhE5sq6FMnjLxEIVCccrkM6YeQ52PZ1rL7fSscThMK6tbBcHeCgA47vjZVqWTTvfZhUIZmhvfoiJNU6GQoiSLmXh5PGOZr9bGKed8OFriaBz4SelH8Sna+foPqDH3PX0p0d7J0/JBuV6hbkin9EJHCwAAg4Zxsc3fV1hWKr8zsjegykxpWpz8t4q0t7lGi4sl08tkn6eqmB53bx0cjcPj587RU5vr9PR/LtGT08/KZU/OfI52X3+bTn30Uzlv4GZPNZYdpJXVrKA24QAA4LhS37guLpIX6CYlRf+gajW2jkeIanpAH/b2NmmLxl2HlhyNAysy2KH04Mt5Gvn59+WyE82/0JmbP5RvhFM5aiurW/4AAAD2j+s9B37JD0v4Qg939SXuHLWV1S1/AAAYShQra7VUl+9saAffm0hGthy6bsZ0KxnwfYVTt35GJ/6mvRGuef679PjZL1Lo0S49OfOcxdZa247T7Jvam4QmJuryzUXFeoyyl6ZoZHuEps6NUqkxLt8Ed2PdtvxWg1IXXqXwnW0qfjxiWXdjNeRIV21MjLfLcZp+4QAA4FhR1d+qaXzLyZJ+3qtSaUVM7+xQqNGkWPo1alYqdHfvLpVLZWq9523HnA9lZim2foPsL+QcGLcS32yJTUfJaAhrtSJtbuKGNAAAHAQD41bimybVGg87aR80DAAAcLAMROPA7G1uikZB+wAAADhYBqZxAAAAcHigcQAAAOAAjQMAAAAHaBwAAAA4QOMAABgqOjGbdmNBNabzYtpuPZXKn3xGn9PmOZw2naH8/DzNi4/UCkl7qjavffIts6pHOpb0FPuqupyxz7uBxgEAcOzRTqaa660TcWenFtS1zT1t+vz/Ip9QdlhPoxGKTCZbpmqeF+E4rUKOqLS4SAsLC1Qav0SF6SqtLS3Q4nKdqL4sli+1nmT2SMf81hnX7av25Y55FxyNQ7dWVrWi7PitAwCAg8Yi+jTEndJoKq6g5bd2FZ4RV+is/ucT/DzbTj3CellQmenCOG3d/H/ltJv1tH5zmerJguUVA5onrmie/KvXbxIlPVzaOm7p9BJH49CRlZUrTnRb8vk8zVkqX+vy5OeviIq1VmJcdJNk90dUbl7vJrXS8X7xBAAAdItqLFVRzaZ8ki1u6Ofk6aQ8WasEsaDyuSwpwhkx3a2nVbouegPJOUNLKi/kTU9ccJzp9BJH49CRlVX2WGpUun5dFLJVUXtrS7S8JTa2XmcBq+eOMWil02o5AQDg0BGtA1/pzyXrprsoODFuU0TrUqDC+QhFzs95XuzubYpzJOVoTh/1MRslA06o3t65bU+nl7jecwhqZd3k8bBSlHLvFERL2oJ7B6lakYqleuulEj6o6eBtbgCAnqMYS/3Y21ujEp2nyXqp/YWqw4JapbWFBXnPYPGmOPfdZPv0tKf1tHp9WcT/r9pMcZk2ku+YN58LyQ1avh6sdbKnUz+vpVMoXKKI6MUYeUfOF7T09SF++7wdh3iP7ys8XfmFxcrK02xjvf+l/1U2GgZ8J318S1SKaOSWF7fEyT1JG+8tUy2VE22ZqJzIpKjk9+jd61Eq6OuKlJI3Xur1CE1O1um9d69TdK6gpNPaGAAAOGz4vgMtLtJaB+chHiafm0vJURT1/MXDTHO1RVoaMB8ci/cGwsoKAAAHjbzJPJejJC3TwtJwO9zQOAAAAHAwMMpuAAAAhwsaBwAAAA7QOAAAAHCAxgEAAIADNA4AAAAcoHEAAIABoRtLrGpnlcuVebs1VmVfjYNbQeN5UaA+eMpZczd5P/0XlE52hh2vuuhV2XqVjsF+thUAcPB0aokt0jQVCilK6nZW1oKr8w5rrIKjcejEytqJ+vbQiaUowprbfT7MYmxjT82yHZbNM+8ebKOadj/uTxh9AWghJaUdWGL3NtdocbFkaozs827WWIPwxMTEf9OnJff+4RKd/u1PiB4/okfPZ+jvfr8kraz3Xvs2nV75sR5KQxY0tk7rIfEDvpigcDxBr04S1VcrpFpB5IbMxmksnKULs2FaKVW1H72IEw8nKDuboO31CjXcwkl17qwIF6fRUIVqo+3jra6HaPrNr1FyIkpj97apEprxiJOmRHyb1kcv0pXLIv6YiJ9N01g8TokLWUrcWafKS7yN23TiVZf04lnKJrapVN7Rt1Q/mdnqomZsqwwfphNTL7fSiom00qMUz16mbHiVttPzNNMU+Ta4VzBDzfUmJZRtKVe1vOTBEGgb/eqzSbGckkbsomV/tk3LbZllW9vUrbEv1bA++9HYdgCGlVAsTSkqiX8pStSv0ftrt+heepZipQ+pWB+jxIlVev+DTYqnsxStlIhPTaHQKCVSUdoqVYh/Qer83b27NJpIU6iirTP461//6uw5dGJlNdBc5NdpbWmJln+nL7RhV+MacZbWlmhxI2J2bRzh5liduyjD8Ys0gsRz6HQ94yyaV90sybp+fZlELM0ye5OUl2E406P6Fm1tifY3krKM2bnVhTX8ONWUtKwGWzf1rjVvA1YBB9tGv/q0pmEQNC23Zfa64S3yqlvXsD77EQBweLjecwhqZTVQXeTRiJgJQFB/uT1cN97z7lzp3nB69VKNarUSLYuTqCraUvMy6sIeXi1KpwZbL4JuY5BwQdNyw29b7XQSFgDQBoclVl/uA48keFljHY0D31fghkG1svIybjDCf67IZXaK/MKJwhzlxYkuGQl2itPiFCifyVMhWSfbezVMZLh3tHB85z1oPJVu4jhQKp7Ti1zKUSqaolxKv6zW0fKy1oVfeCaSmtNeliSm5U7Nifm5HE3yAiaAbjjoNspwSn26pR00LTfabatKoLABth2AYWFP9KoX1vbMb4Y14WyQZd34wlUxvSl62fJegvY+CR5lWFJeMWqZd3mpkcGBiPd4PDw2HSWj4aqJK+PNAVPWBuUwt3WY6hUAcHSweM9xQ7o37FBDtFihRoMa4rO5eVdffhw5zG0dpnoFABwVfEMaym4AAAAWoOwGAADgChoHAAAADtA4AAAAcIDGAQAAgAM0DgAA0EcY/qRO8DKwZvIirXn9mSbbvJ+RlRm4xoE3/qhtq4cBDKkAgCB4GljFOSS5tUiLi1uUzM3Jc4o6Tz5GVsbynAM/Cb37yjelbM/gwZfy1Hz9bfnNH3XdURCKz1B2ZHXfttWdaonKVU4vT/MzTYs8rxt6lY6BUT4AwOCRERewsfV1qknRZYzWw2mLYHM9pog/Ky9Z5aIjKcolY6aA8s56jRqiZ+AVvzR6jhKNX1L5D1VaX29STJfqJWZTVL9RoupelcLpLL0q2owNZX7kw1UKpRNUdjnR8HMOZuPASu770/8k+hJPWRqA0O6ndLK6Tic/+Q09eeZ5Onn7Q32N1jJ5WjmPm23VXt6X1J11xzed9aY2z6bW2QviWzW1+pTdYkh1KRMAoD+picZgNlaienqWRlZviBN3mbZHY+I8cpaSZ+u02niREvVFWvjgLsXzHGaRlkQYFg+zeVU1ro6UxAm96hPfw8A6kkoRcVxRnlg6TdyfqCvzVPqQGi5GVsZiZd0VvQP2KZ366D35PgeGLaxsZA01P6XmzNvSzGrHzcrZuR10AGyrtvJabarsCfJOZ1ovp93U2q7sjF+ZAAB9SnFDuo1SEXHeEWdjP8FmENFlN4LOmgjIomceih8XsTZs8zU9nBdm4/B47Av0+Llz8n0OD194WS5jfTfDw03hzzQRXzuCGj3t4YLGU+kmjh+cXhDbKtNuZ6vpsFHPiKuaWoOU3a9MAID+hCV4WzRJEXFxa/xmVcGmikOG6YFXfC8DqyrxJFEOPlep81Vxue1lZGXMYaVHf/+yfH8DDynd+8o35DASK7u5oXh47g06s/JjCt23unzMF0+Ik5zWTSlRsR6j2Tezcvglm2zS8g3RZYml3MO9JcLd04Zpih8Hi1cbSVAquiWHV2rbcd84ZvlqI62XXRjrxf/yuzxKqQuvUvjOtijDCGUvTdHI9ghNnRsV61pnb5mXUt5GNEVT0RjFpiZporlBq7dCnuncWA2JcmpDQxMTojFZFdvbpp6Mst9Yj3mWCQDQv1TLK/K3zOyU+VxTpnJphVZ4/Keq/c71lVRa4XuM2rCSuq6qDwP5xQ81muL8+Bo1K9rLe8qlsjZMxOmK6bKIK08btvlQZpZi6zfkcJQduJV8OCgDKt+oosVFqdgFAIB+hN1KaBx8CMVFA6FPb7IjvUv4b5DfSUZIdOqovvEu9e17twEAQIDGAQAAgANYWQEAALiCxgEAAIADNA4AAAAcoHEAAADgAI0DAAAABwPXOAyLlRUAALpFOu4CniO9wsLK2mObaj9wHLcJABCczMULniLQ7cRFmmmuU3NmXnxv02iuJQ0ty0e0YWXtzMpqlkXkdVk3q6p56eZV+w6oNLinM0NNUbaX7Brf7bR3fkY96uscWl+LFVZV+IbpxNTLjp0NABgeattjlDixSu9/sEnxmSy92LxNt7dCNC7OCx9fW6Xom2/RVPM/6P3ipiWsAaysHVhZGa0sIq+bEUra8rLHdfFgsahRxtO2veibn33dtK8VVnuOWyvLmmWbAADDjV3eqSuZ2mI2DrCyOiuxEwOqPa6rDtem8fXLz75ONbsy3Sh8AQBDQlVcOU7mKBOPS+tr5FKOUtEU5VLT4uI0R7T8Li1TjvJsgVXCqpiNw4ndT2VjwJ9HsSQ9OfM5uZwbCm40Tn30UznfDqmfLWj62UKyTuIC2RW7pjZoPJVu4jjwqUQ7kfMir7x7Xva4qi53UpzYGbvG1y8/+zq5rTatr5fC12tnAwCGAz7XLFxdoLXNTdrbXJLTPOrAIwubS2J6c8/8VsOqwK3kgcPKOp6k3NYiLRyQNO+gLLAAANApcCv5sLe3SdUaD+toH74YP0js+aFhAAAcJeg5AAAAsICeAwAAAFfQOAAAAHCAxgEAAIADNA4AAAAcoHEAAIABoRNhKL+7np+J4j+Tz+QzpoFBnY9nWsvt7KtxcCtoPC8K5JFZp8CcCgAALTbX+GE29z8wVe2q7K6bG9+iIk1ToZCiZGRcWx7PWOartXFTO2TH0Tg0X/+OdCvtfP0H1Jj7nr5UE/OxRkPFr6C94KDTBwCAQYIFoPPiglmKQOfz4uKZvzOyNzDNtoTJnFgmGohpcfLfKtLe5hotLpZMxY59nqpiety9dXA0DqzKeGpznZ7+zyV6cvpZuYxVGizmsys0zIJyiyUKmhG9BlE+BzKc6MbkuSujh83ntXcyaBupTWfEN/c6NGOr2GAjfTnPvQi9m2RLAwAAhg1fKel4hNwFb1b44dstGncdWnI0DuxW2n3lW/Tgy3ka+fn35TI2s7KRlS2tbhh21LWlJRLlcxCTPZgala4XiWy2UfaJGmZTu7XUwM3g6mdPBQAAsD9c7zk8/nyCznzwIwo93NWX+KPaUaMRhwZOCp4WS1HKvVOgHJ/XvfSxNmupgZo+42czBQCAoUQRbkrxp9t7A2zwqEwysuV6DrW8CY7h+wqnbv1MvtuBaZ7/Lj1+9osUerRLT848Ryc/+bVczoRiaUpRiW6sx2j2Te3FNBMTdaqvViwn/Ux+ntLi6v7s2aY4mTdp6tIUjWyP0NS5USo1xmUaWmNQpdHEBZq4vUi/rO5Z038rS/F72otuih/HKKumwa90AwCA405VP1ca33KypJ9vq1RaEdM7OxRqNCmWfo2alQrd3btL5VKZWq/92jHnQ5lZiq3fIPtLI/llPwfiVoJhFAAABpcDcyvBMAoAAIPNgTQOzN7mpmgUtA8AAIDB4sAaBwAAAIMLGgcAAAAO0DgAAABwgMYBAACAAzQOAAAwIAy9ldVIA1ZWAABoASurjpG+utEHzWHmBQAAnWDKSMX3MbGy8gk3Q/n5KzJ8PC96BHp3Jy/icbfGLQ0tfdtGK7QqSMS9ovU27HlpYTR7q5GH1QjrU8EAANCnHAsr696aWL4lGrJ6nSLj7GF14p2GdaPtaBW0RIs3I9Lo6paXYX2121w1I6x3BQMAwLDies+h11ZW7imkakUqluqt7oyNdmkExS8vu81Vzw4AAAafHltZHY0D31fghkG1svIybjDCf67IZXaKy3VKFubkcE0y4n76j6TmaI6HbMS0LHhOzM/laFJvB3zTUDbaTuR8QcTJUyFZJ+MVEGpeKpxH5FKOUtEU5VIed2F88gIAgKNkb22BFtb2zG9mbWGB1sTJfW9vjRauimlWFsl7CXNyuIiHjpYWlswGwDI/bX13jspAWVkd6Y4nKbe1aFYSAACA/TNwVlZ7unyRDwAAoPccSM8BAADA4HJgPQcAAACDDRoHAAAADtA4AAAAcIDGAQAAgIPwxMTEf9OnAQAAHDFSGxRbp1IHT+lKA2uoSemZi5TNxim8XqGa1BOJ+XSa4uFtqtRGLfPN2Es0WqvRjp6Gyl//+tfB6zloPibNjbQf+tH4apRJc0rBRgsAaI9pYBWNSen6Ii0ublGyMM1OIorUl2lhgQWmm455PyMrY+k58JPQu698k/7u90v6EqIHX8pT8/W35Td/1HVHQSg+Q9mRVelK2g871RKVRWVKGd9Mk0plt/bzcDHLFEtTikodXTkAAPqHjLiAja2vi6v3DM3Px2g9nKb59CjFs5cpG16l9dg8XZlNUyK+TeuVl0SYWXE1H6fRkLjiH0lRLhmjsXCWLsyG6c56jRosFPWIXxo9R4nGL8W5467sBYTi4vwxUqHSVpRS0RCFR0NUre5QaDRhnW80KZZOUJlPOja452A2Dqzkvj/9T0QnnrI0AKHdT+lkdZ1OfvIbevLM83Ty9of6GrGObaazcXMjVsTZTJ5sLybEhiYoO5ugbdG9abiFk5WmVMho+3ir6yGafvNrlJyI0tg90U0KzXjE0St99CJduSzij4n42TSNxeOUuJClxJ11qrzEXbdtOvGqS3rxLGUTotKVBkPaXh07h8sm8r6coPCq2AazvOoy75263rTmx+WV3UnRNKBxAGBwqYnGYDZWonp6lkZWb1D5D2XaHo2J895ZSp6t02rjRUrUF2nhg7sUz3OYRVoSYcQ5W14cJurX6P21W3SP45dK4mTuEz+dpWhFXFhyXH5fQ+4sLV+7RXfvijjNEDVEY/N/zI7Syi8/sM7f+gONJtIUqlQcQ0uWYSVWcrNP6dRH78n3OTBsYWUja6j5KTVn3pZmVjuq1ZSV2YZdVZpSNyJmt8URbo6dHqJCRLi1zb1A8RxaWs84moVVTt+8TtevL5OIJbpcYvomKUIqZ3qqtVXV2LrbXvW8dSOs27JOLbEAgGNAcUO6jVIRcd4RF3nthKCGdNSLIPJSvjAvpGq0oHiUNjc3qVosifOfpuW2z/thNg6Px74g3+Vw7x8u0cMXXpbLWN/N8HBT+DNNxNeOIBvK2MMFjafSTRw/OD3V2qqaCoPsHDdgiQVg+GAJ3hZNUkRcLBrnET8haPKdgnwvDb/W0wuv+IaBNZYS6yI5mpf3ZDMU51EL8T1XuCTLUZ2es86Ly20vIytjDis9+vuX5fsbeEjp3le+IYeRWNnNDcXDc2/QmZUfU+j+XRnJQB0bj6XTRKL7U6zHaPbNrBwuyiabtHxDdFlirWESS7i3RLh72rBS8eNg8WojPG62JYd8attx3zhm+WojlEhFaaukrBf/y+/yKKUuvErhO9uiDCOUvTRFI9sjNHVuVKxrna65+zUVjVFsapImmhuyW5c7n6KxMZH3RCtv+zKRsSOeUT4uvyW/xri1bK3sAQADRrW8Yv6Gd8p8rilTubRCKzz+U1V+3ztlKq3w/UZtWEldV+UhJfHtF1+7d/AabV1fpBu3bonTJIet0o5Ij785jgxrmw9lZim2fkMOR9nhYSW4lTxoZ5bl+y0Fshph3ZYBAMCgAbeSDwdllgUAgEEAPQcAAAAW0HMAAADgChoHAAAADtA4AAAAcIDGAQAAgANYWQEAoI+AlbVLjrOVFQAAOgVWVp1+srL2k9EVANA/wMpqWkiHwMrq2K4mJdSyxEReNiNrB71CAMAxAlZWwbBYWZ15WeMybpZWAMAQAiurk6CmVHu4oPFUuonjB6fnZWXtdV4AgOMLrKxDZGV1zWunFbc24mJp1eMCAIYPWFmPKe2srHZgZAUAHBfgVvIBVlYAwDCDngMAAAAL6DkAAABwBY0DAAAAB2gcAAAAOEDjAAAAwAEaBwAAGBA6EYZKU2s8JP8sP8MPxelPRKvz8UxruZ19NQ5uBY3nWR0brPBeGGnAnAoAAC0219io6v4HptL/ptuqTVMrTVOhkKJkZFxbzu4lZd7PzOpoHJqvf0e6lXa+/gNqzH1PX6qJ+VijoeJX0F5gpK9u9HHguG0PAOBwkO96EBfMUno6nxcXz/ydkb2BaVZrTObEMnFumRYn/60i7W2u0eJiyfQx2ef5Sev6uHvr4HjZD7uVTv/2J0SPH9Gj5zNSp/HkzOfo3mvfptMrP9ZDaRgvpVgPacbScDxBr04S1W1GUu7eqLrZ7fQ8zTTXqdLgdzPMUJNtqrr1VE2jJtO3mVNjM5a0wrNB1LgBjbBuNlaufJttteajz11vWs2u0gzrY5Yty+flAQCgPaYSSPyvmltjpQ+pWB+jxIlVev+DTaupNTTa0gdxGsr83b27rmZW15f9sGxv95Vv0YMv56VriWEzKxtZ2dLqhmEsXVtaouXf6QsV9tbE8i3RkNXrFBmP6UuteKdhtZ/a0ypukDSgapZX0VK65BXECOtlY2XstlX3PDQTrD0tXutnlgUAgH7E9Z7D488n6MwHP5LivSCoxtJoxO4MDKabbZeGgSOtDtS4BnbDqp+N1Y12+l01LbUHBQAAB0ZVXLFO5igTj5Nham0Hj6J4mVkdjQPfV+CGgd/twDTPf1cu4wYj/OeKXGZHKmcLc5QXJ82kOEm7oepmZcFzYn4uR5N6O+CbhrLRjJpWJ2pcA7sil+cjl3KUiqYol3KOv0XOi7D5PBWSdRKdE22Zj37XLy2JbXsAACAIe2sLUu5pfDNrCwu0Js59fC5cuCqmNzf5JCsvmnkUhD1xS8o7Hizz09qIixsH4lbq1GjaTzjKPp6k3BZsqwCA4eHA3EqDbDS1l50v8gEAYNiAlRUAAIAFWFkBAAC4gsYBAACAAzQOAAAAHKBxAAAA4ACNAwAAAAdD0zjw8wv5+XkI7wAAx55O5J5eYS3iPX4SeveVb0rZnsGDL+Wp+frb8ps/6joVmcFM0yKtC8p+4gYlFJ+h7Miq9B8BAMBxJnPxQktWGrLKQLcTF6X4tDnDAtRtGs05RaAs3jMbB1Zy35/+J9GXeMrSAIR2P6WT1XU6+clv6Mkzz9PJ2x/qa8Q6tqamwxRPpCkxNUkTpjmVTaSapdQoiMXAarGiNimmFK6Zdgkvzaju1lOnQdUtXJhOTL0MEyoAYCiobSuG1pksvdi8Tbe3QjQuzoEfX1ul6Jtv0VTzP+j94qYlrIHFyroregfsUzr10XvyfQ4MW1jZyBpqfipambelmVUlJt8XUaPS9et03WYaNSylblitqJsUxFLqZT11GlTdwo1TDSZUAMAQ0q0M1GwcHo99gR4/d06+z+HhCy/LZazvZni4KfyZJuJT2VxaoMVSlHLvFMhDMeeK3YraCUENqrCjAgCGFkXuaZeBxuZyRMvv0jLlKB8XF9ceIlBzWOnR378s39/AQ0r3vvINOYzEym5uKB6ee4POrPyYQvfvykgGmfw8pcWV+9mzTVr/cItevPAqhe9sU23kRe2FFOKM3GjGKZtLUCw2RZMTTdpYrVC5HqPZt7IUv6e/bKc6Sik9bnlrxBF+J5Yy06tti/QuTdHI9ghNnRulUrl12jdfhOEWbuusqJytA72vAQAA/UGVSislqu6I891OWU6Xq+JbnC93ytpLgIxvS1gdHlYaaLfSINtfAQCgXxl4t9Ig218BAKCfGfjnHPY2N0WjoH0AAAD0hqF5CA4AAEBw0DgAAABwgMYBAACAAzQOAAAAHKBxAACAASGemad8xmqF8CKUyVMmHpJ/8p/JZ0ybhDofz7SW2+lZ49BJod2QniYRf7/pMG5pxPOiojwqAQAABoHNtQVaWnP/k33VrhoKZWhufIuKNE2FQoqSEek6EmEylvlqbZxyHnoLR+PQfP070q208/UfUGPue/pSTczHGg0vjEJ3oop1w2/j7Xjl1UkaAAAwKBgX0VIyOp8XF8H8nZG9gencJEUmc2KZOCdOi5P/VpH2NtdocbFEdT2+fZ6qYnrcvXVwNA7sV3pqc52e/s8lenL6WbnsyZnPSTHfqY9+KucNZEFF9yTPXRRZaGsB5cmbNyDP4awncW7Z5uf5Cl/r+hiYG2+L27YyFOxpZESvQQQFAIBjQ33jurgIXqCblBT9g6pFYBobj7ATtS38IPEWjbsOLTkaB5bt7b7yLXrw5bx0LTFsZmUjK1taVVpW1qIutrMV0MegajWzOq/y7XFjYplfZbjBadSXr9Pa0hKJoAAAAALies/h8ecTdOaDH0nxnh/trKx+BtV2ZtZeWFXVPKIRMQMAAMcVxa5aLdUpYkjnfOARnGRky9Vu7Wgc+L4CNwz8bgemef67chk3GOE/V+QyA7ayzkVF96Feb/VgfFSxKrwuKRoV+7CSgV9cEw/VrIHMozAnh6aSEXOUDQAABpK9tQVaWNszv5m1hQVaEyf3vb01WrgqplklJO8lzMnRGh46WlpYMhsAy/w0j+AU5XI7h2ZlPUiD6kGmDQAAwwZbWS3vkD5YdqghWrFQo0EN8dnctL4bYn8cZNoAADBcDPz7HAAAAPSegX+fAwAAgIMBjQMAAAAbRP8/O0HYprdtGKcAAAAASUVORK5CYII=;" vertex="1" parent="kmTCp-gQ4Pqmv0-tDAnt-6">
          <mxGeometry y="793" width="391" height="800" as="geometry" />
        </mxCell>
        <mxCell id="kmTCp-gQ4Pqmv0-tDAnt-14" value="" style="rounded=0;whiteSpace=wrap;html=1;strokeColor=#FFFFFF;" vertex="1" parent="kmTCp-gQ4Pqmv0-tDAnt-6">
          <mxGeometry x="1" y="94" width="390" height="10" as="geometry" />
        </mxCell>
        <mxCell id="kmTCp-gQ4Pqmv0-tDAnt-24" value="" style="rounded=0;whiteSpace=wrap;html=1;strokeColor=#FFFFFF;" vertex="1" parent="kmTCp-gQ4Pqmv0-tDAnt-6">
          <mxGeometry y="150" width="390" height="10" as="geometry" />
        </mxCell>
        <mxCell id="kmTCp-gQ4Pqmv0-tDAnt-25" value="" style="rounded=0;whiteSpace=wrap;html=1;strokeColor=#FFFFFF;" vertex="1" parent="kmTCp-gQ4Pqmv0-tDAnt-6">
          <mxGeometry y="162" width="390" height="10" as="geometry" />
        </mxCell>
        <mxCell id="kmTCp-gQ4Pqmv0-tDAnt-26" value="" style="rounded=0;whiteSpace=wrap;html=1;strokeColor=#FFFFFF;" vertex="1" parent="kmTCp-gQ4Pqmv0-tDAnt-6">
          <mxGeometry y="220" width="390" height="10" as="geometry" />
        </mxCell>
        <mxCell id="kmTCp-gQ4Pqmv0-tDAnt-31" value="" style="rounded=0;whiteSpace=wrap;html=1;strokeColor=#FFFFFF;" vertex="1" parent="kmTCp-gQ4Pqmv0-tDAnt-6">
          <mxGeometry y="386" width="390" height="10" as="geometry" />
        </mxCell>
        <mxCell id="kmTCp-gQ4Pqmv0-tDAnt-32" value="" style="rounded=0;whiteSpace=wrap;html=1;strokeColor=#FFFFFF;" vertex="1" parent="kmTCp-gQ4Pqmv0-tDAnt-6">
          <mxGeometry y="416" width="390" height="10" as="geometry" />
        </mxCell>
        <mxCell id="kmTCp-gQ4Pqmv0-tDAnt-33" value="" style="rounded=0;whiteSpace=wrap;html=1;strokeColor=#FFFFFF;" vertex="1" parent="kmTCp-gQ4Pqmv0-tDAnt-6">
          <mxGeometry y="457" width="390" height="10" as="geometry" />
        </mxCell>
        <mxCell id="kmTCp-gQ4Pqmv0-tDAnt-7" value="" style="shape=image;verticalLabelPosition=bottom;labelBackgroundColor=default;verticalAlign=top;aspect=fixed;imageAspect=0;image=data:image/png,iVBORw0KGgoAAAANSUhEUgAAALkAAAKbCAYAAACpVitIAAAAAXNSR0IArs4c6QAAAARnQU1BAACxjwv8YQUAAAAJcEhZcwAADsMAAA7DAcdvqGQAAFrsSURBVHhe7b1vbBvXnff7pZS4aS1pu20pkmmb2maKIqJIaXvrmnHQrEOBWjzFtXWL7caGhAK3SPsiu8BaWPTFA+xT4AGeLrAvioX9Yp/nxXPfSk/dLZ7E3QAXV/Tl+mZhx0QuNqJJObfoUrG3TcR/26C1RDtOUt3f78wMOTOcoShKlqXD38eQZ+bMmXPOnPnNmUPOl79f4Kc//ekmhIfOn/3ZnyEQCJhbBpubm/iHf/gHc0t4WATwvf8pRr4HbP73b3kaeeD7r5hbwsMicOTIETHyPeCdd97xNPKjR4+aW8LDYsBcCnsAG7X9T9gbZCQXtEdGckF7DuRI/tm/uGSu+fPvf3/WXBP6nf4y8i89hxe/dRxP0up7b76Cn167w4l47sVv4bhKfAUXfgrndu4E5r/FG/ZjTL70omNfDt/CCVygPCqpxXPzmKf0C+50O66yHPUIO6J/5uTKiN7FK2RpyrRf/Ft8693/iFc+P48TOTJM06a+9KJzu6OBdmO8TDf5ui1rL+E+O5GjG/9g33CDn/70p/+zua41X/qTNP7gyj/g+m+N7d+u3EPyT5/C//X/fR7fmRrEL2/8Crzrt59OOrbxVBJJrGFt4NP49G9/a6RZqH03QFkN2FCf4u3nMD//p3hq8Cl8emAFvxpJ4n87/hQ+M5jGd/7ULJsN6LsxPPVUGunYGm7cfcZRz/j8PJ66cQO/Apf1FG6sPevM/+nv4m+p/VaZV7gR7jI5z19Qns9QnnQSn3nqKcS+k0bslzew8mmPvI7yBvDcd8/gf/nyF/GZe2tY+ZXjzA8UB/KDJ09Xtvpz8wWaCbzrNSBdu4D/+Apwgozqxec8tonw57+AL3yB/r5kbNsJnybDVnlbO7/04nGa6fC05aewZh3lN39K2xfwjziOL3CeE9Sg997Fu+++Bzx5giZNznquvQkcp/qNsq555reXyU31zPOPlOenr+Bf8B5yP6X1f6Rd1ICty7uDa6/8C8r/cvCnTgfSyHm+vdWfG8tomjx3nC7yr431O9fw0wtk2cdfVBfbvV1+9xquXaM/j2td/keaYlxgg27t9L2hbHCe93K/xq9/ncMrr/xUTaEc9VCD3/v8izjxJBknbXvld9NNHovt5D3o9M9XiNdewZvH/1aNuvz3t6ffwys01+Q5uJH2Mp58Lwe4tvniW6P1/IvqFtiSa6+8h+N/y6P7i7AN8A44z5Mv0wfVL5zAt04Yd5+znmt4F1/FkzS6chu88rvpJo9FV3nvvAt89Vt0Dt2d936lb79C/BLNn18+/ib+m/lBtDu+RMfRdMLc+vWv6Vidh0BNkDee24VGNWtcuyMWfiAQIxe0R17rC9ojenJBewKnTp0SIxe0RqYrgvaIkQvaI0YuaI8YeR8QmZzD9KTz96V+BCanMRkJIBCIYHJ6EhHzd6n27chkK50JRKYxR/sseHuayjDWJzE9N4c5+puejJjlGNvG33SrDp9yHOXZ2mFPZ9zbFj0ZOXfaj+acHTA9/yPMT9NJcEOtE6DGTLryWkSm5/Gj+dYJeuEuq1NewZ+15QUsLXt/v6D6mK6bWg9MIj1aRR4TmJ2NIxYcNdLJUO3b5cooUhNq1SAURHAshjnrRuLtkFH2bAooLC5iYWEBhdGzmJ0oY3lpAYvZGlDLUvoS1qzfu/qU01yajJrtcKe3bZs4jLxx6q/wUWQcG+m/NlOAzcc/iXtf/665ZVCuZPGzbL7VODtU0TNBav/KClaqFeQ75d0KV1k9lbHL8IWb/9EcJg/QDReggYYNh5fzNHJOq+WkGpwmUmNkWCk1ymKCjKeax+baMhYXCyAzVLi3Uab1UbuV0zW6mkUtNuvol3A8SHbcuvblzFUg5jzOjVc5O+Uxc6n4RPEyBusl3Dv+v5spwL3nXsbAb98ztwzC8bP49tgtVC4BZ//ieXwOdZVu/M/UUK1UUCmXEU6fb+ZNnX0ez3yujvrrl6DUJ58bw9nzdDylvf73F5FBGuepPFVQ7We4uMKZTCohelr8BcZu/T0uFuKUbwy3fnYLY99u5b9UOwV1eP1zvmW687z9NhB8htbf/hl+mB3tmPf1v+cT5vMFvv1fZoEfLmJ5H9x426G2klGjejU2R+N1HvnsLcTiBUpbo6crD7tmxg5sbq6hirh6srYGnjIyNDrPpsPIV40UGqNQLRvr3dNezk5xjOTKwGnUHvo/f2imAJ+6+nfmWjvxFF1wNo4fXsLrLQsn430ep86exdnZ1l3LeZ8hw/lP/+kCLiytGYn1W7h08e/p2M+px8wE5cHbr+PqVbK8Z07Ro5PyfI4eQbEYXYgKCrfqdF/EEabe+xwdi5gzf4o6dasyW3l+hrfZXFcu4uLP2NJHkfbNa5VHF+DS63QPvI2fHUADf9hsri0hi5Rx3Yg8DVKOgXsiRndZxdzwx13OTnEY+f0/OoePPxdF4MN7ZorBY+WiudZO3avR9dfJMC7iwsKymbBdVnD1Z1dR4DuZjCzLczq6McqFW6iT0adiz+DtqxkaTSyM/CvN56kX3eSx2E7eA06ZepGmK5ORCPVvzXNO64bn7rFg1XP6WM5kqbxnjI18Fiux883PVbOxFWQz3Q3t7nJqp4xyZmfPIkhPI6vu4KlZ8zOb8bnCvc0MHjlypPnzt/tfPYdPXfuvCHxwV23zHH1gvYoHX57C4796U6Uxw9Ekvh6s4bU3Gxj/D9/E/5o4hsOf+xRw503kNo4idaSBN3OrWLfnfe0Ojn3zPyCZSCE58jaZ0bhKfzNXRSj5dRy+/U+4UnwMyW8+j6+NjmKUyli5fRhf/9rX8PVUCqlUBL/5x8u4HXkRf/zM2/h//kcB+Zoz/+1aEGNblNnKs4GjNB/FrX+iJ3RctZnbOL5FeYXSMKKpP8Yfc3v+qUgP1wMAzaEL3FBrqVYLZtvLKNyg9fV1BDYaCCeeRWN1FXc376JUKKlraLDe3A5MTiFcvIKStdNWrsp3I2tur9OuGyhQXcZfuVXeeon6slW6okM5pRtWObS08lD+G9R2lc5lubdN5LW+oD3yPbmgPWLkgvaIkQvaI0YuaI/8aELQHvl2RdAema4I2iNGLmiPGLmgPWLkgvY8MiO3/yBCaZkFoQvsP/LYCitvU6DFCsSB373nUCA++Mo0Gs+9rJaf+MWSmbo7BJ5OIl5bxELmJkpll1DnEaE65WSjXTgk7BsmZ04jdiSEkft1rAZOYm4mikgkiWS0jnp0BicbRTROztGyjuHUCyqvMnL+9c8HE9+mcf0xPFb9hVkcXfR77+PxchEfReI49MusmUrp/MuSqQhGBpM4PTWIG4UyItNccBGrGxFMz51Eo7iKDc53jvKNUL5kAiORCKKnk4jeoXxDccRRQz0wjOGNDTxNI3q4WEQlMEmjexjFesJxAsXhmbY6lVG68/jVN+yR11ZerhjAxBmjU7gD98uNJzip1EcQHcjh1WtriJxM4mjjNm5XAxil6/bO5RxCZ17CeOM1vJpfa+ZV0xXr1z8Pjn1D/fzt7pkfq7+Bxm/orngZh0qvqwrsGL8wWcBVxDr+VKl2NYNMJotbZNCFDK1fRVOzHBwNIRSiv3BLYB9Ox9RPpvinU6hVUa3WKGMclKWtTs88PvVtVd4EyupXMrVbWfUrGWH/w788qhUqqFQKyGYzvrJnZeQfjzyJjz97TCV8+MXjGP75D9QfM0hTmEO7PFWxqFXzWF5exvLaprLy2mga8SAZJ7W2mxPo9iSZ7eQV9jG2H3nkszUEz6YQD8WRik/QAJkCshfVr4rUr/bNvMrIB2hawkb9xFuX8FE4pspi2OCfeOsn5lZn1K9KUmmkqaIxMqhusP+KY3NzGVWMNX/14T4BL7rJY9FVXlsHCvsTtpOFCws0MK6pn8nx+tIyLZeWsbZE6zRgWksrr7zWF7RHvicXtEeMXNAeMXJBe8TIBe0RIxe0R4xc0B4x8j5AXDc/IixPq92iOsDWWUL3iOtmG926bn4k0Algxeis/aItsRvIfqbfXTc7jJxdNz+2VsTvP/mHZooh3nI7AHV3FsMqRPVooY6bNh9BKt885aN98zwCT9P6vJGPCcbSVAYZCuXhkzJGayM/G49Rj7FuEEYkElFlT1K6OkapFumCeR7rbKNnHp/2bVVem4EcEDqJ0sKjNJBs7XQWhuvmUceUhUxYuVyOpVn6ZsDjUq+um+3l7BSHkW/HdfNuqBCNMpaweDVoKBA9lYKGR1tGVIv7G21dN+8mfOd3UgqKavEhIK6bvV03B8IJxFFQxhVOJOiTRQGlRhjJVBTh8DjG2O0yu24O8w8jKF9lCNF4CNWCLY3dJZ+KY2QkgiTlz15ZRalGZZwdx1B9COPHhlHYGG3Ww3Vy/mg0gUSkjpulf8Vw9DSO3F7E9fImKnUqx+dYq415v/I92nel6N8Wq7zK+jDip09g8E5duT7et1gukW2ukcV1syBoxCP7ClEQ9goxckF7xMgF7REjF7RHjFzQHjFyQXvEyPsAUSHuMepEbCctPHxEhWhjT1SI1BBRE+4tLC4TFaJJtyrErRWAxmNnem7e1rnGPgNREz4qRIXYpQqxqS6b8FEA5jPIVukEazUER43GippQf/RSISoF4ATSMW8FINKziFfyyBdqrUecDVET7iP6QIXoEGitf/NHSoXIHm4ZnqPzFOaDr/yJSrcTmZ7HWVzCBRqdeUowe5bmX1d55K7SXRij+5AMPDiGsdolXKymMAsayenDD08Xzp8iw2Pr5w8edPwklRWrXjT2u8parMaax/LUhiaHyIfTnnkW82G6v+L0QYeMeWLWSKt453WUxx+0zsewcimrfOz1Kzx1S6ep/+hJ6GXAFnwN05VF5W/wINCzCtEykOUOnSEI+4GevkLk7zljNAqLgQsHAdGTC9rT00guCAcJMXJBe8TIBe0RIxe0R4xceOTw9+6W/IOXPakmI9OG2nEy0qaS3JdGbuhNqMH0x3oSv5O2OqUT7rKE/c/2VZNpzMYLWFpYwMLyWptK0uF3hd9wss+Ve89+H4dW/1mlsQrx/te+g8ffXVbb3aIa02N0Y3e05vVygZbmTht2/y9+SOTnvUMNOolBRKJhNIan8D2/wMFP0/knhhFJnkNyMEdXsOWLh5fFMJUTLqplp4DCq+FjiG5cR+NYEkPVBobDYTL8CtkL+4+JomQajcPI2ZEQR2T+YHymGWb83vN/iYHG+w79Cp9MW3RkVh42G34HAydajWkkjHDQbdGapxKIRuooNpzhowsbRx3GqzqPT7rCSsUpRAYjGA6sojIURyoWbrbjTrGCDTagtrIk8vNeEEkkcBRF5DIllMNxRG9fxuXrNYzEh1C4nMHN+3Ekhwq4uVxCfZgN8jBih2vIWdfbNHL7Mlq7jFeXb+J+YgrhwhvI12wRmRNJhFYLqIZSGN/I4Up+A8++9CwauZsIRBMIrK4qZ0aO6cpOfCFuLi/ZlIesqdla2WcpE72UgpbQxj7FMJSKi1TmkiHuIuztYG2RZ1mietwTOH7mYiGE1PlZOk9/2DlsJwHf9qFyKmVDAlwLKjuw4zDynfhC3EnDvZSCtat0A7h+WMH5ttIne5Ylqsc9geUe6RCNcDTQbSWoDcbTSLOO39zuGg/VZDmzgmBqVv1mgOUmLLizqyQdRs6/CrKrDXmOzkb/4NjzZkpnHA13N6ZDtOZuIytzvhiNEuzumT9Re+FVll1+KZGfHx78szYVHZl/0kZPLlZ68ui6ZP7EbdNM4xF/YWmJ0i8oFauV7rdUZdOAx1ope0Rm4xdKaXpa5o0BUZVL6ebvHCxEuyJoj3xPLmiPGLmgPWLkgvaIkQvaI0YuaI8YuaA9YuTCI8cS2llLLVSISgvCDTJf24vKULCzL1SIqqIdqOhEZagnalDSRYU4OXO6WdHw1IxT1Tc4ZTYsiuS5KAZzq6jwRReVofZopUK0q+ia/u5segFDddc50rKoDPVDXxWiUvW1/CJ64akMFJWhduxXFWJvEZk3bJGI7/4rGtFzeKGRxZXS3Wbk5G4jLavyzLk3R0GeeimJyP3WdMXK1ymqskRq3h+US/zZqkRdUFKfs4zr24rkzKpBTlunfIVSidJv4AZ/brHy+i3VaqcI0tdx/SZ9JlPlUrorYvSuqBDtfhF5fm051BSE/cCOvkK04r+IX0RhPyN6ckF75I2noD1i5IL2iJEL2iNGLmhP08j5RVDjuT/Hh188rl4I8ZK3+RW/IOwWkelp9Za5V7ajULRQRs6G/OEXv6ZeBPFLH369z0vefnDsG+oG8GOnjRYExq4udGPf10mh6Id648lvNIeu/I2ZBDz4yjQG/72k1lmo9SD6vOONp53haBRDq6ttr7f7VYkntGMJ4AYjUZwYA2os2uvgVnA1YHcbOIiB8eM25eFMS6HYpYiu+Vp/8HdGWEOGpyuWkVvY9++s0XUx/D4jcjKJodxlXMuXUB8xB8WyXYn4Di7nBlrqQsp/tHEbt6sBjB45jGK2hpC5rym/pv/9VI61Y/bjQ8Z0ZfB376rGMDwXx4f3zS2DgXu/MdcMWIlXy2awvLSE7C0jrZMvRLdyzxmuWtAdu/AuFDQkWZ2UiDsVwbmPV0b+8cjn1U428Pt/dBaHVl9X2xa//+RnzDWDnTa6UyBUQT+Ue7/ZtKESDLasw8+tYJurvW261XMfr17r87co/CHz7pkf44m3LrXNv639FjxdmU2R4daCCI7VsHIxg0p61hmFORNqRjnO06PFHhV5YWl7vs4FYScoI+dvT/jbleGf/8BMbsGGzz+F4/DjgnAQaQq0+GvEj//g83j8395Uc3Sewnz41HEMNH5Do/tPVGZBOIiIClHQHnmtL2iPGLmgPWLkgvaIkQvaI0beB/TkW1D9frflU9C+7fY1aAioJs0tY3vajOkUiEwaPgpNHzvW74It135zc9OtOnzKcZRna4c9nXFvW/Rk5FyRavg0NZq9X9k60K9B3cLHWx0wvY1ju/Gb2K9s37fgBGZn44ixPoPTyVDt225fg/xKOzgWa/U/b4eMsvmlYWHR8LFTGD2L2YmyCqC1mK0BtawRRMt6A+5TTnNpMmq2w53etm3iMHL2s8IR4DbSf22mGL4Q2auWg3AcQW4gR9py49egbqHjwfE9qVMyBSA1m97WTbJT7BddF6wBgJfzNHJOq+WkGoQm+LX6WMrwZDZB16qax+baMhYXC015hnub/aGwQyk7tatZ1GKzDtm1oXHKN424zG7IlLs1f7zK2SkOI+e3mo+tFfH7T/6hmQLce+7lNo9ajo4xYe1Kp5FUdTSNzGp0VqM1dTYfYz4N5s0ngx3u3GwtiHjYND77McrXIT8CneEOVWRormdu3nZhrXq89nW46BrSyaVdeJQGmK1cXxHKHRtGXYNPGRnWqKTZcZ4Bj1dbeURrp72cneIw8l58ISrozktVaWTvIGYPqwG9gkImD3j6E6TR2+vJYOJWMk54+E1knGpIo6Ossr33iR/D3WJzjfoXKZryGNtNP5kWEzHq8K3vInc5O8Vh5DuJyEw3dkfsziBTbK9dSCl5ZI2PGaMBjwr2Y1i65jVKdFJD7r6jSQ3w8C24FfwUtfsatFPOZKm8Z4yNfBYrsfPNz1izsRVkM90N7e5yaqeMcmZnzzYDDTP2QMRe24zjtf76N3+k1IYDvzV+IMFzdJ7CfPCVP2lXIcYLanTkRz67hVuk/2dHs1gk+0ufp4bQaKksceWiGuH5E/UojcJBupmz1P6UTZW4WI01XctxeedPkUHzgE2HX720qEZqVaf9mMJoc7taySAfovqpjOyoSw1ZTTXLZiP322e5ulMfukz1pIr620fwoJJOx5UX305yaL5G6Qo9RW1P0P2MaFcE7enpK0RBOEiIkQvaI0YuaI8YuaA9YuSC9oiRC9ojRt4HiAqxB7giXxWi/SRsb526YbvOHFWnmJ31MLQmvTiX3I+ICtHGbqgQw+kURgvGSXXSoljYO3nbzhzppCzF4na1Jo6La1u304tzyf2INRDxUlSIu6BCNKQQE85HkK960NnJzYthHcOqQfNx5r5ALcKIUDnNPPNGXaw8nJ6m9Xlamo+8VjsmbfXa1402tFSLZntcikf3OR0kRIW4CyrETerAi1kgPjtLRtEe7dipHlzzVP0ZIwBfjCUsrgSbj0Z3JGXGHo2Z6S6S8igqzXqX29rgVkS6I0W7z8l5sfuXvlIh8uMts0iWHuPIyHReXagH7WxnBHBEY+4Al9mN8tELd3vcZXUSM+17+kCF2FtE5uEo4qGqEf2WXenWFrG4cQZziTrq0RnMJCkt/nUcpnn75dyQI4LxlVzAGXW53IpeXBk62ox6PHWG8gxGkIwZUZ2tiMgcobcZ+ZjS7NGYCxvG8V1FUr650aq3HGhrA9fjFyk6/46rrNJ2bplHwLYjHK/i7ubdViRlRSuysjvisb1cle9G1txep1036FLRfvVXbpW3Xmp34d2hnNINqxxaWnko/w1qu0rnstzbJqJCFLSnp68QBeEgIUYuaI8YuaA9YuSC9oiRC9ojRi5ojxh5HyAqxB7givaDCpFxd6LQjqgQbRw0FaK7E7erROwXmkIzWooK8YCpEN2dyHR77FbKQuMY+7rreFf+g4KoEA+YCtGrE7s9ditlIXexXY3Ydrwrv/OC9yeiQnwIKsQK2Zf76dftse58vL0dlaI7v5ci70AgvhC37wuR70B26KmsuXYJiwVnNOY2H4bllu/BfMjwTbhYSdNcm/Ks0DHsO3GRjG7C8HXo9FsYxgSdNI3Jql21lSwyFaqvm2PDVIe9HWhte/ln7HS8LlGmeY4uvhAF4QDS01eIgnCQECMXtEeMXNAeMXJBe8TIBe0RIxe0R4y8DxAVYg9wRX4qRGY3lYE9KRNVR7Q6bzfYTpn7zYeiqBBt7IYK0X1ifspAe+e6se/ryR8htS82Nua8ENukrX1blLnjNj9ErIGIl6JC3AUVovvEGGUAqnONZcTVuc5Iye595gVqK6P9olmoNlxqdSi/iudOM5SHdHEd9XVx8Ql3mbupptxLRIW4CypErxMzDN+uDHR2rjNSskf5RHsZRrpbHcjGlwrWUKCrtYJTao5mqeEM5SGNVI76jM7sdPG9ynSqGHfu01EH+kaF2IsysJtIyV2PCtSRwVpVOQHliLdBDsxPvV0bZUUkGSqV0U19DjzK7KY9vY1ke4z4Qty+L8Q3Mu9gYOolTCWiSCQSiAzWcb041O7bcL3lA3EjdBTjoTDC42M40lhB7ma7b8Ju/SOGp+K4ffkKlstlVFbrCJ+Oo5G7jkD0NI7cXsT18iaGowlnfZYPRVs5FVv7wieOtpW5+loDJ3bJp+NDvw8sH4PWUq2KL0RB0IaevkIUhIOEGLmgPWLkgvaIkQvaI0YuaI8YuaA9YuR9gKgQe4Ar6icV4nbK228KREZUiDZEhejDAVYgMk3BGC1FhaipCrGVj46dp8dx81gqm59GVtl8DrzNdXJ7zMdiW3kHVIHIiApRUxViKx8dezXYHEwsX4dctsNfo3oaVlDI5KnLJ0SB2CWiQuxwRz90FeIWcNl2v4ZqzlgIIXV+FhM6KxAZ8YW4fV+Iixmys278E/KHG9MHYiWeovuWDDw4hrHaJVzMhHr2j0i9oJbL1Ak850yfj6NAo/fZU8CtW3QsGZ/7WHU+Nr+GK9T6URrVuR76H1V3eZeA1C75c+Ry9wvq/MQX4sHEuhHZuIT+o6evEAXhICF6ckF7ZCQXtEeMXNAeMXJBe8TIBe0RIxe0pycj71Zp120+S+8hCFuhNEG2t5mdsPI2/a7wK/2B373neKX/4CvTaDz3slp+4hdLZiqwXi6g5PN2VhV8sqH8Xlj57GleKN8tpi8SQejE5MxpxI6EMHK/jtXASczNRBGJJJGM1lGPzuBko4jGyTla1jGcekHlVUbOctoPJr5N4/pjeKz6C7M4Mr577+PxchEfReI49MusmUrpPPKGiyiG5zA/FcHIYBKnpwaRKwYwccYoWDUiPEP56hg40UprJIyGrG6wJv0kGsWWw51igG4GW6P9bgqhf6nURxAdyOHVa2uInEziaOM2blcDGCX7eudyDqEzL2G88Rpeza8186rpCstpWa/y4Ng3lJ787pkfq7+Bxm/orngZh0qvqwq86CTdNPBK88atBuzmRwpC/+IW1vlNBJSRfzzyJD7+7DGV8OEXj2P45z9Qf8wgTWEO2aYqDxN3ozuJhIQ+xaaazGdrCJ5NIR6KIxWfQDidArIXlUxXSazNvMrIB2hawkb9xFuX8FE4pspi2OCfeOsn5laX2BrRxC3nTKWRpgaNkVHbcTdaENxsbi5j4cKC0vGz7pzXWbPPEbHXlmh9bbO5tPKKdkXQHvmeXNAeMXJBe8TIBe0RIxe0R4xc0B4xckF7xMgF7dmxkUemDY9UvbLbikZBb/ZMhWhnOBrF0Oqqr25gK7araBT6m71TIbLxUeGDkShOjAG13CoqZppVYXF4BnOJQUSiYTRWw5iZm1Kh/lQ4wKdZvZhANGLmcygao0ieo7JzDYTbFI2Uz1Iqcr6pKOrFVWzQKG9XQ94Qza627JkK0fLzt7y0hOytVpqfP0E4fAcaKgLLD6Edp79Cb/ViP/oYFLx5qCpEu5+/EPtdU0tnhXZ/gilb/p1ir1voQ3pQIarpykdPHVeebAca7+PBl19ozr/Z4A/deaMZodmiUo9g6owxNTlypKamK/laGMmz4xiqD2H82DAGo1NI0Ih6+HCDjN4VvXioFZW4+asg+j91Ko6RkQiSR9qjNu+7KMfCI6IVQVpFdab1UpmjO5dpk9ZVsrG08u4bFaL4KxQeFvI9uaA9oicXtEdGckF7xMgF7REjF7RHjFzQHjFyQXv2jZHvlT/E7URXthBfjfuHXlSITSNnFeLvP/UZc8uA1YeWjuWg0tYpux2tWdhTHIGB+draggxzqEx+nW8sW0GEe1MhqojENlXhsI8y8FwEIyNJnE4mMEKVRk8nEb1TxKpSIdoVh1SGjz9EVin6lmPVa8/bwTdjqbyulGtD2Tdx+EQYhUJZjdJuBaOKEJ0YRiR5DsnBnJIccNsGp+YQLhZRUecfRnFwqqW0bCQwY2uL+HF8OOydCtGlKvRVBl7NIJPJ4hZqKjYkh1a3gqF6RUhm3GpGDjXrV45n3g6+GTtHa24pGJ0RolvBbpsRhif4/PMI25WWrraIH8eHz56pEJndVAZ223BmO3kVXUZr9o0QTVZeG51AOkY3ClXG7sjsSkt7W8SP40OiBxWiMvLt+kLkwmN0YafpsT5JhantWWN7lgyABrkt4fDQ0/QB0J1/O/4Qu8pr6xQO7X6VRt3l5WXk6clQGzNGfy+C8TTSPKcztxn2rVegJ8BYraCMeJJuhnSIhnO6YbLbaLfQOwfGF+JBVhzux3DhQmf2zVeI+x3jq8c5xGpZMfADhqgQBe2RkVzQHjFyQXvEyAXtESMXtEeMXHjkWAI4a7kdl4AsweB3NaxjmZ7j4yN0/KTjjfO+MXJDbEONpD8W3/idaDeKQHdZwsFibZlf8Hh/6WcX3LFMIz1aRR5pzMYLWFpYwMLyGsqVUYcAr+kLkWmc+ivlY+Xes9/HodV/Vmks3rr/te/g8XeX1bYbValPtOVO+xj7/sDTScRri1jI3FRCKj/fh91Eb3aXtR/Yqi90QA1AlmBteArf8xXoUV94COCsJbsM7C4Y8jFEN66jcSyJoWoDw+EwGX6FbKeBcCKKkmlADiMfWK8qFeIH4zNNB0P3nv9L5XTosXJRbTOtk0kgOj6GI81KT9oaf2eLSMwNRO0NhuE8yDJeVQefaMWleByKIxULN0/8TrGCDTYguwJwg8uqoR4YxvDGBp6mEd2hHqwnOqoXlRLRVeZuqyF1JJJI0FUsIpcpoRyOI3r7Mi5fr2EkPoTC5Qxu3o8jOVTAzeUS6sNskIcRO1xDTl2vlpHbl9HaZby6fBP3E1MIF95AvmZTISaSCK0WUA2lML6Rw5X8Bp596Vk0cjcRINsMrK6Ce9oxXRmsl3Dv699V3rQsPnX178y1Fi31XQYZm8rPqd5jbUm7L8MW7b4OWc/inmK4FY+MXTXIokYvNWJwNKSEWCHasNSDRln5LdWLrER8mGpIXbEL1jqpd3wFcD1D5VTK2NxcI9sLKpuw4zBy/uHEx5+LOtw3M/ZRnPE7mZ02vnaVphg0r7IbQjcKRy81Yq1qCLHUjaHUg2nEWWZLO7tRLz5UNaSm2AVrFTPNDy8BXFfYBHcq8DFZdDmzgmCKBX+G7CJPVhkLVptKUMd05f5Xz+FT1/5r0/chz9F5CvPgy1N4/FdvqjSGT8byc1h8o4qjpr/CjdBRjNPQGeYpTGMFuZuBpi/DUnUIyVQU4fA4xo40sJLz9nXYnK6Yc2/l+9DHj6Ll99Dth7GwQR88TtGjjh5ZiUgdN0v/iuHoaRy5vYjr5U3ly9Gdv5syVZ7KEKLxEKqFlg9GbuNW5VVs56r8+GlImX0Qsl/CQkl9pjKu5TpKvK0yGGnsq7BQKlH6DdzgzyhWXr+lWrX8W7Z8IQY2eO5N05PV67h+kz5/qXIpfZKmNsUrpj9EsiXRrgi6I9+TC9ojRi5ojxi5oD1i5IL2iJEL2iNGLmhP08j5RVDjuT9Xv9DnF0K85G1+xS8Iu8VeBTe2o4ycDfnDL35NvQjilz78ep+XvM0Oh/gG8KOXRls/ClZKwS792gl6o7RCPrZg39dJoeiHeuPJbzSHrvyNmWT4QBz895JaZ6HWg+jzjjeedvwiMndS3UWmZ3CssIhXr9803lB1yNtpH7PVfuHRo67RjCu4scMVn1PM54y0PIiB8eM25aEtuHGXgrnma332lGXB0xXLyC3s+3fW6DreqB7F6RMDhoKQRnWnfLJ3JaOu6r6DjvI/mbuMa/kS6iPmoFi2KxHfweXcgI+Pw8MoZmsImfvsITH9VI61Y04fiWq6Mvi7d1VjGJ6L48P75pbBwL3fmGsGrLpzR2TupEBsU+nlF3ExC8RnZ5F2RV7eqZJR2H/YRXZWcONOYr6dCt7cxysj/3jk82onG/j9PzqLQ6tOB5+//6TTpfNOG83qsM21ZWQWydJjaYertt2XYQqPGsONYNpQCQZbV9WhROzg49C+rxvcxyuBFn+Lwh8y2ZMt+0N0z7+t/RY8XZlNkeHWggiO1bByMYNKehYp1vUGxzBWu4SLmRBmz8ewcomlj3HMnqXR/yqPzlVkEVMOMuk0qZBLWLTlrcRTncsx6x2jei9RvWVMNPezfzxBcKOMnL894W9XLE+2dtjw+adwnyheNlME4WDRlNry14gf/8Hn8fi/vanm6DyF+fCp48pHuZdnW0E4KIieXNAeea0vaI8YuaA9YuSC9oiRC9ojRi48cizXf9ZyX/hCZBWhKpADhPo0yGqwIGyXfeELMRA5ieRQDgtLazvyWSjoRct94P7yhegYyfmt5mNrRfz+k39ophiBbN0etRyhn80R24jSzKO68fhggrE0bVND54zHh7oLbWGiBb2wB+9l8/Jzq+cXDNiLTu72wqNBro4I0r8K8vkK4mdZC1VGFaPNKYvDyLv1heil/OvFZ6FELdYLrXwhemFXJvrhpUYU9GG/+kJ0vNZf/+aPlNqQ4+wzPEfnKcwHX/mTdhUiTfR5Ts7TFQ48u1ihyb+pNKxWMsiHZpsBaa0Ar/lwKw+rETmKriD0Cn8Bkk7TLJ6mQvYBk20yXaFZhTmjEO2KoD3yPbmgPWLkgvaIkQvaI0YuaI8YuaA9YuSC9oiRC9rzSL8nD0QmkU7F1Fuv2koWmTwwkU4h1nwNVkM2C6SU/4oaVtihkfkFv9Cf2F9EboWVt6lC5Ff6A797z/FKn30iNp57WS2t4LW7hWpAagO5xSsqclcj8T2cGf6/kbl2E8V6BHFWOb6ax4YZXXnxSgPhM2dU0FkRNvYvkzOnfd0P1qOGG8HGyTla1jGcMhSLarrCctqPIuP48Ng3VEEWj/3q/8Wnrv83BD5yuo3j16bzrCY0FYYMi26mWbyutObThuqQ988bqsN5VihO0/q8kc9wNZdvvo4ts0SNI8r6wOIbZgvRmqA5DhWiS/CHDD/2zyMF2r+21syrjJzltKxXYTfNbOzsUIj/2OdK4+TLOFRyuo1j3BGM/fCTW3Yj6LJ45tR5ulnmlfjG0iMIglvw52dOysg/HnkSH3/2mEpgf4jsScvypsXebA/t8lSFsUKBN5mIUYu9tWtvX72ICxcudDUPEzSng8/EMH2eQ/YijeMpNVuw8iojH7j3vjJq9oP4UZiMzYQNvlvvWUr2mEojTRWNNT84diCfxUrsvOGIn/5mYyvIZmS2LXRmc3MZCxcWlN/LzbUltc6/YWBFK+vZ+UlvLa28okIUtEe+Jxe0R4xc0B4xckF7xMgF7REjF7RHjFzQHjFyQXscbuL2GlYhTs9MIZlIIDJoCm5ODqNguvdiEdf08Co4Dq07r8Ts7E/YJroNTmzl3TcqRDbawNNJpI6PInq/qHwo8jYHHy0G2hWLM8M58bPYh/SiQlRGzirEDya+TZOXx/BY9RdmcWRk997H4+UiPorEceiXWTOV0lldaHPEeIOsjVWIzmjJq9jgfD5OHxtxjtJ7Bfm7rReu7CQ0ejuLWuwMhotFVMKGA0iOsGvPu7F6H/GpMApi5X1HpT7iE7k5hHcu5xA68xLGG6/h1fxaM6+ak+8vFWIZGQ5umm5parejWBT6h32vQqzU/OXjLLxhJVlaeUndnmJR0JweVIhquvLRU8eVJ9uBxvt48OUXmvNvNvhDd95QPsvt2H2Ph+mDIM0bUGqEkUxFEQ6PY+xIAyu5Vayb041CZQjReAjVQivtjes1DEy9hKlEFAnrgyeONsvdWK3T1OabOHz7n1DIO/OmYjW8tngT8tGzHymjcKOA8jpd/fWSWi+VaVkq0yatq2RjaeU9kCpEjm5xNraCS4utXxYJgh8itRW0R14GCdojRi5ojxi5oD1i5IL2iJEL2iNG3gf0FOE4EMHkdCuysX3bHfFYCaFon4US1vHLGLU+aQQ2ZudSHBJTlWNsG3+GIyojr3c5jvJs7bCnM+5ti56M3PCSRQ2cbsXxtFANtZ3UbrGdCyU42X6E4wnMzsYRCxqvnNlQ7dvuiMf8fj04FmvZAW+HjLJnU0BhcRELCwsojJ7F7EQZyxwKMVsDallKX2q96/App7k0GTXb4U5v2zZxGDlHe2Ptykb6r80Uw4Ucx/Z0EI4jyA30cvZDFWHFOCl7nM+d0ulCCZ2xBiK3ez8erOyBhzFBxlPNY3NtGYuLBVgxNt3bKNP6qFOTUbvKwrpZh45pu64AGa9ydorDyHuJyGzBKkT7iG5hjOzcscZSPe78/Cbang5uX4v2C8WPtGl+ZNnXrXq4HVTGVnX0K91FOO6MCgpri3hssFvCuvZydorDyHuOyEx3XqpKI7s50gZPzTanK8bdzB27hMWVoPMx56LGTwDz6eCncrSHtqZ+bq27nD96PLUU9jqE3WW3hHXucnaKw8h3EpHZMDiD2tXWdKW3u9kfe2jrUGaxuc4uzO2yS9EodolHhOOt4Lm7PeKxnTJ7lh17xtjYgStAdzm1U0Y5s7NnEaQB0KrbGlCtp7N7m3FoV3YUkZn+nx3NYrGaakZibuYlC6ytUAfSjZxdzKDMkZnpA0mtFsTYWA2XLlLaRCuCs1WmI5qzuX9ldBajNFpzWXw8zHXlrN8W7XmxMNqxDqEdntp5RTh2w9fHHvF4vyMCLUF7evoKURAOEmLkgvaIkQvaI0YuaI8YuaA9YuSC9oiR9wGiQuwBrmi3VYiPUmXovhC6ISpEG49ShbiXKkPHhXVdiN1UTu4XrIGIl6JC3DUVYhiRSKT5SOFH0uQ0LedpSWl+CkHnhWjlt8qwFIYqj0+kZ8+8qjzvC+u+EEyzDJty0l2OykcjnzH6m494z7q926GOd+XfC0SFuFsqxNEQQiH6o3ZaKsTlpSXQYV1hXIglLF4Nqhufy7ArDPn0/XwseubtcGG9LoTVZrdy0q2MDKdjlG9R5Vte2/Spm54QPspKd36n0Rw8+kuFSI+85eVldeHtRhQK0kYPcBndOHZktpOX8fLJ2O0I5M633brd+TuJoh4afaBCdDjhv//Vc0ptaPk+5Dn6wHoVD748hcd/9aZKYwLDUcRDVeUIXflFrC1iceMM5hJ1FDaOInUqjmg0gUSkjiu5IUydMXxIHzlSQy232tlvIv3Px4+MRJCkfdkrlL9G+c+OY6g+hPFjw1THqK+PxStFn7zUt5bfxsr6MOKnT2DwTh2lm++0+WS8XuQ2J2md2hAz2tBsn62cPLVr6iXKdz+C4cAq8u/41+3lP5KPd+Q3gw/sOjSH5nqbS7VaMG/Clm/BwEaD2vYsGquruLt5F6VCyeZvcr25HZicQrh4xfQ3SNjKVfluZM3tddp1g06V9qu/cqs89mPodqTfoZzSDascWlp5KP8NartK57Lc2yZ7qkKM0Nw5RFOL5Q4jFs9dRQ4r7CY9fYUoCAcJ0ZML2iMjuaA9YuSC9oiRC9ojRi5ojxh5HyAqxB7ginxViPaT6EGP0akT3Ih/xO4QFaKN3VAhcpi50YJxUr14qmLxj28nuLAunv1CdcN28x90rIHILRLjAUVUiMR2VYiGFGLC+QhSHWssOd1XhUiPIeXX0HaCxoXhffzUYOPkx99886LNURvs7fHK0/HC9hmiQtwFFeImdeDFLBCfnSUjMpR23fhCtPs4dI/clpJvk8rI0k1UrbGXLKsTnBfKK0+nCyvsHn2lQuTHW2aRLD2WVn44u7mb7T4O/R5V/ASIV/LIF2qtR6eLbvIINsQX4vZ9IfIdyM43qTq6ay+R4cbpwweN5lv4QgylWz4Om3moDrtvRTbgFJluLTiGMSr7orlvMU8flM7HsHIpi0qc6vfIw8c3/SryBysz//KajOYWPJUTX4iCcADp6StEQThIiJEL2iNGLmiPGLmgPWLkgvaIkQvaI0YuaM8jM3JD02K8CfPSkBi6lN0T6Qh6sB1xnZW36XeFX+kP/O49xyv9B1+ZRuO5l9XyE79YMlN3h8DTSeWvZSFzE6Wyy/8GYfdTIggWkzOnETsSwsj9OlYDJzE3Y/j0SUbrqEdncLJRROPkHC3rGE69oPIqI2c57QcT36Zx/TE8Vv2FWRwZ2r338Xi5iI8icRz6ZdZMpXRW9E1FMDKYxOmpQdwgS+RX7lzB6gYrC0+iUVzFBuc7R/lGKF8ygZFIBNHTSUTvUL4hdtZTQz0wjOGNDWwov4JTyqEPO+qp0P5ULNys406xQuXRnZkYRiR5DsnBHIrh9naou5dOfDASxdRpWuaoLDPN3RltbZ1KIBqptzu9EfYNlfoIogM5vHptDZGTSRxt3MbtagCjZMzvXM4hdOYljDdew6v5tWZeNV1hOS3rVR4c+4bSk98982P1N9D4Dd0VL+NQ6XVVgR23Xz8//HwWMg6fiS6/goy9Dj5kK4Wh5V/Q7XvR7XPQT4Mk0ZoPFizl7cYtnzLyj0eexMefPaYSPvzicQz//AfqjxmkKcyhXZ6qWPj5TPSjG4WhvRzL96K7MyRa8wHGpprMZ2mwO5tCPERP/fiE+sEOsheVSFD9DM7Mq4x8gKYlbNRPvHUJH4VjqiyGDf6Jt35ibnVGyTRTaaSpojHDtrbELovkBsfOswbd+I2hH8E41cE/ejC33ahyZtPKHXIsaNwK7s7opa3C/mBzcxkLFxaUepR157zOT/+FpWUl12ZlpLW08mqtQrSktZ18Lwr6o52R88/fzsdoXk5jfW3lIt3lYuD9jujJBe2RN56C9oiRC9ojRi5ojxi5oD1i5IL2PFIj30+RkDmekZ88wfDP6O+TURSTe0cvKsSmkbMK8fef+oy5ZcDqQ0vHsttwAw5MJORwHLGxMV/vX92wnYsj+ONwCch9yi4Ap4235iz74Nf5xrLlDvCRqRAb8SSGcleQv9v6ml41mtWCg1Ekp6Kob6VkfLrTPiprG4rFE2NQ4RfdikVWJLLabSj7Jg6fCKswfUYk5u0oJu9g4IQh+2SJqJe0WOiOA6VC9BJk+flN7KRk9Nu3W4rFCBl0Kkhlo4IVnFIjxfYVk6yfEf+Lu82+VyHuJBJyN+yWYrE8EUOQjJ4lwWCDjYe7amc39Qs9cJBUiOzQ0e4MkudYhoLQUCLOxmrI5s3MPbIbikV2xHo1Y0iC89Tm2lgcFT5uu4pJ28URekdUiILgwSP9ClEQ9gIxckF7xMgF7REjF7RHjFzQHjFyQXvEyPsAicjcA1yRX0RmN9Z+iZ786JCIzDZ2IyKzH5062o2944WdYw00SljXKXCvRGRu4RXRmLUaqiOVQo9Hbecr72ZHswHb5JFbdrywq9iFZBKR2WS7EZm9FHp23Co/PpVOHS8cHPomIvNWdy/v70YeKewRNuGYRGTuMiKzisB8luZiV2uoVjLIhyjd2s/LSrq5P0gfcharMZUuEZMfPTxVlIjMgnAA6ekrREE4SIiRC9ojRi5ojxi5oD1i5IL2iJEL2iNGLjxympIPc9mTajIybYgGJyNtKsmHYuR7oTjs1Y+iXUG5E0RV+fDYvmoyrV5OLi0sYGF5rU0l2YzIzPAbzsAHd3Hv2e/j0Oo/qzRWId7/2nfw+LvLarsb1ssFlB7i+3r1xjW1gdziFVy/6R3R2Y9A5CSSQ7kdx+u0zlF1+smGBLgl1EicGEQkGkZjeArf69KFXwEcuLjQXLJLv7lwsc21X64YwMSZlru91fAxRDeuo3EsiaFqA8PhMBl+ha5NA+FEFCXTCB1GPrBeVb4QPxifaYYZv/f8X2Kg8b5Dv6IurEeEYyPcs+GjUDUyYOTrFB25ODzT7qNQKRltvgaHncfUQuPd+1Hs1ElW2Oq2Y4zIzKptHfwwzoXrDh+H7jDY/Wb4kUQCR1FELlNCORxH9PZlXL5ew0h8CIXLGdy8H6cBpoCbyyXUh9kgDyN2uIbcxlGHkduX0dplvLp8E/cTUwgX3kC+ZvOFmEgitFpANZTC+EYOV/IbePalZ9HI3UQgmkBgdRV8BRzTlW5ViG4lIVhMkzqPFLIOPUM3vgbdKkTlo9ClZHQfw5tuEZhVV5sfxU7SUt9jWpGZO/lhZFmouzynH8X+ms6w56rFQohMYZb62p/dd6FH5VTKhgS4FmyLuO0w8m5ViN0qCe2KRF9fgyrViVvJ6D6G+mZX/Cj2ckwn3O3sJHLSEf5ZWzo0Sp1Q21KWvpULP188VJPlzAqCqVnD3V8tqwR+dpWkY7py/6vnlNqQ5+UMz9F5CvPgy1N4/FdvqjSmUo8geZamDPUhjB8bRi16AqHc/4Fc6IwxXRkyHjdXimFMnTEe30eO0N1G05V8Lew4trAxajyayNjC9LhDoaDyTL2UROS+MV3Jv+M85o1MEQNTL2GK5l0JOiYyWMf14hDVRcfQFCcZayB7hR5V9Mh0l10ZiiIeqqqpBJ9Hp2MC4YSxXhlCNB5CtWDbT/+rZWkY8dMnMHinTu0ccp7bw/xgsg8pl/hzSom6uaQ+s3Af0qcXlHhbZTDS1ilfoVSi9Bu4wVM6K6/fUq0WzAGxjMINWl9fR2CD5940PVm9bnw2U+VS+iRNbYpXYM0W90yFKNGRhUfFQzVyiY4s7AdETy5oj7zxFLRHjFzQHjFyQXvEyAXtESPvA8QXYg/YlXyWPNLCcRLbVPptV9nnd1IPk4OoPhRfiDZ2wxcih5kbLRgn1Y3Sz97J2/GXqPA5qV6wt8PNjtq4D7DrtcUX4i74QjSkBRPOR5Dd96HDV6Kzk5sXwzqG8liPM/cFsqP2zRt1zHPZ07Q+T0t+1DWPo7IoD3cet1XtU08kLt/dDjZqfszOU3t2p437BfGFuAu+EDepAy9mgbiKx2lEPbYr8yYcCsO19rKIbhSF7ju9Y9RmdRyVdTXoM5A4L3Y30ZR7aaPu9I0vRIYfb5lFsvRYWsli7co8lp1tdXf3NgLsHt1IQR91G3eNPvCF2JMKMTDcUvIppV5tEYsbZzCXMH5AMZOktPjXcZjm7ZdzTmXelVzAoTCslFsqvsqQIZ431ItdKArdikAftWDqVBwjI1TWEaOsciOMZCqKcHgcY5S2kqP86612bISOYjwURnh8DEcaK8jdDPTcxn1xH2xb1beKu5t3W+pBRUtN6Fb52ctV+W5kze112nWDuoH2q79yq7z1krIfBx3KKd2wyqGllYfy36C2q3Quy71tor12hefJlkNRoT/p6StEQThIiApR0B4ZyQXtESMXtEeMXNAeMXJBe8TI+xRLnmDHT3zmpUw8SErEfWHk6sTMk7XH/vTC72TdeHXkpM9FFAws8Zm6HuYbQz9l4kFSIjqMvGsV4m5DDcPKolK6IbWFAs3vZF2wiMjdkcvmRRQMgrE03fRk0KZwzRjdnYI0P2Uiv108KEpEh5F3q0J0Kgm5c4xHjKHa81L5mR3IeXjkVSM3jcg80to0BmyYzGg67SjPUPc587ox8lCZaumtALQe0caTo1V/N+XriLdwrTtl4kFSIjqMvGtfiC5fhU7VnnfDwmrAraCQycNQbTn9IT5z6jzm5+eVm68l9p3oKs/un9CPbhWAbmUk19BN+cLW7EclosPIt+ML0X53dqPaszuDTLGNufwhvn31Ii5cuKAMrZvydgK3fyt/jP0AK/ZYez8bq4FmFC26UCYeJCWi47X+tiIy26IuV+JkuGSOteAYxmqXcJGjMtOHjVotiLGxGi5dzCCUnsUojZxBupGz1PaUT1Rmho3cUV411dzPU6D0eTpJGuXpdGguf9FIpymHO7Izu6RTbXVHj+4QFVpwovrbI0oz9+VBicos2hVBe/bFV4iC8DARIxe0R4xc0B4xckF7xMgF7REjF7RHjFx45DTlFuayJ9+NkWlD6Ti5SxGZrcbshK1OxEtF6KU27AarLqPdTuWiUc9kVwrFg+gH8SCyLyIyN6Oi7eB9+NZRm9dVNLFiPYI4R1B+Nd/y2bFNmtGTVbvfQPHwOcQbOeU3hCM0T4VWkbl23bM9qlPNiMsPO9L0QUcNItpEZCZjScXCzcrvFCvYYGPoGN34pOPEnCdi5mm0RzS2HBkZkZu9yxqcmkO4WERFqSPDKA4mPOuyOvGN1REk44bhRk5SBxXeaEWRrtijQVNnpeydOtNqs98FdEWPtju50R2tIjIzdsUf63f8fQMa6r5OSkUrj1sd6J6e+JVlKd0MdWR+a1Uka6FV+ZNIBWuOJ5JTYentq5Hx87241TnojFYRmb3YSjfczYm51YFeCjemrSyy8too+100DHarurgzCtQZcTJo2NRsTG/65xbdnoOO8Geo/RiR2WHk/Ksgu9qQ5+hs9A+OPW+m+JNnkbvyZOsh3TTZ6sS4jODZFE1P4kjFO40FzrI2N5dRBa3b5Zdb1KU6hk5rxdVOdR40Elk/CLF3ajds5xx0g3+JxU9A9XM2esqzqpMHlCXz523s8ZjTeMRfWFqi9Au4oJ7MZl6fpSqbPlSyqpSv9cIFWqenrPHrpDToWa5+WrekyqX0CeOJbiEqREF75HtyQXvEyAXtESMXtEeMXNAeMXJBe8TIBe0RI+8DelL1mcI1t5CNtyUis0+DusGd39oWheDO2L6qTyIys0DDNyKzb4O6gN+OVXAKcUtuQvXEKMXPh6H9Ah3ESMl7hTUQ8VIiMu9CRGY/VEfTqOzlC9HofGO9XLiFoGnlqpMK5dZFUipDHrH5keq8QI4L6Red2VVvP2IX1klEZpPtRmT2YytfiE1fhKIQPLD0VURmL7byhWghCsE9pg8iMvfuC9HtX5D+nx3NYjEDT1+F/Im6W1+I3Imz/yWGlR+a/gytOmw+DNkHY75MH5DOU75LWeRDhr9E1Q5e5sNI04elAjWoPGGmuXwgLiy1fu0kcL97+z10w9fjoPhBZESFKGhPT18hCsJBQoxc0B4xckF7xMgF7REjF7RHjFzQHjHyPsWSQdjxE7n1fUTmyDR1gMfrca9OFPY3EpFZ0A6JyGziGZGZ73R6xEzSKE794UjrZ4XfQUMiMpt4RmRWd2eGHjlLoP5oprmVhUL/oWVE5lCQNtSS2i5Rjg8UEpGZ6KhCNCMuB8dqWLmYQT4sUY51xE+ZeJCUiKJCFLRnx18hCsJ+R4xc0B4xckF7xMgF7REjF7RHjFzQHjFyQXsemZEbWhd+C2bKOEW1KHSBspsutVFW3mawWn6lP/C79xyv9B98ZRqN515WSyt47W4ReDqJeG0Ri1caCJ85g3CN/RPtLMqzoD+TM6dbwYMDzuDG9egMTjaKaJyco2Udw2agYWXkLKf9YOLbNK4/piIyWwTuvY/Hy0V8FInj0C+zZiql06hrDwd9gyyTfSFyBasb7PH2JBpWRGa/yMVDRtTdm+W7CCcSGKVB/PAGh5ymu88VTdldl9C/VOq2iMwnkzjauI3b1QBGyZjfuZxD6MxLGG+8hlfza828arrCclrWqzw49g2lJ7975sfqb6DxG7orXsah0uuqAjt2x5GddL9+fgmZZ06dx/z8PDjAaKZqpHlFU+62LqG/6FYUqIz845En8fFnj6mED794HMM//4H6YwZpCnNol6cqFm9fvYgLFy44XEB3E7lZ6GNsCkl3YOBwOgVkLyqJrvoJnJlXGfkATUvYqJ946xI+CsdUWQwb/BNv/cTc6oySZKbSSFNFY4b6tmd6DkktaI89IjNrznldRYFeWlZOZVkVaS2tvKJCFLRHvicXtEeMXNAeMXJBe8TIBe0RIxe0R4xc0B4xckF7ejLynSgGrWO3G0FZIi4LTC8qxKaRswrx95/6jLllwOpDS8ey23QTQdl+QhJxWWAcAYrZPmyuCVkSwq/zjWXLp2NvKsRwQikIiwGqhKWOg1Ekp6Kos/IwwFGTpygtguHAKipPUx6bqrBAR6pjw9SwcNFYJgYRiYbRGE5gppn3DgZOGFJJJasMzxj5vepktaMoFfuCPVUhMpZPROU0ciWoXPk6oyZveqoK7dgjNa858rJnsPaIy151MqJU7D/2RIXo5bHUnbaVqtAeqZkfO1spEL3qFPqIHlSIarry0VPHlSfbgcb7ePDlF5q/AmKDP3TnDQQ+uKu2LazpypViGFNnkmpqkow1kL2yilKN0l6itPvGdGWDGjAeCiM8PoYjjRXkNo6qY61py2BiDgkaeQ8fbuB24zCO2PPeDCB++gQG79RRGTKO86pzPWyUxbMU/gEGCgVxOKotZRRu0PVdXwfWS2q9VKZlqUybtK6SjaWVV1SIgvbI9+SC9oiRC9ojRi5ojxi5oD1i5IL2iJEL2tM0ctauNJ77c/XdOAfH4iVvfzA+Y+YQhJ3jF9y4W3oR6ikjZ0P+8ItfU8GvHv/VmyrUIS95m1/18w3gR6+NNkJHt8JNb4XXye20w4T9Qyd14U6FeuqN54MvT2Hoyt+YSYb6cPDfS2qd334+iD6vjN6L4WgUQ6urbW8YVcNONlAwXj21EYicxNQLYzh6P9eV/8P1Mr/ZMjdM/Or2Yqv2CA8P1fczUQxGojgxBtRyq6hwJGg/MZ7Dx+EgBsaPtwv12H2gnwvCYaM+y0di0+Ena1QseLpiGbmFff/OGl1XhsYKsqHsmzh8IowCWTnHhXSoFzfcakZTtWiqEB11m+2xyi8OzzhUibliABNnWu0plcXQ9xJ1rXOXcS1fQn3EHJjKtD4cput+GLHD7+BybsBHXXgYxWwNIXOfJSlhWUj09mVcvl7DSHwIhcsZ3LwfR3KogNoxpzpRTVcGf/euagzDc3F8eN/cMhi49xtzzcArIrNTbehUELqjNUfIoFPBGjW0ghWcUmIat3rRvW3hVbe7fNY62lWJEzTWeykahb3BLqqzght3Eu51qy70w328MvKPRz6vdrKB3/+jszi06pTW/v6Tzh9T7LjREzEEyShDoRDtoJsiHnaUybi3LbzqbitfpQr7BVYLxmbTSmUao8HNwuEOsIO60L6vG9zHK4EWf4vCHzJZQ87+EN3zb2u/BU9X3BGZK+lZpMi8a8ExjNUu4WImhNnzMaxcyiJPjxZ7tOaVYAxYXMTy5qb6AJo+Tw+gS0DKzFOtZOiYVoRntR2aVRGeFyuUvo1o0JNzc6quPI3nVnvYj57QPygj529P+NsVS0Nuhw3/0Oo/q/DjgnAQaUpt+WvEj//g83j8395Uc3Sewnz41HH166BuPdsKwn5E9OSC9shrfUF7xMgF7REjF7RHjFzQHjHyPmA7yr3ApBk8WAnoJpsCOvt2ZLKVziiZB+2z4G3lEkKtT2JaBSXmNkTMcoxtK1hxsw6fchzl2dphT2fc2xY9GTlXpBo+TY2mDrT7RfRr6G6ynTLFh2Jn5Z5xvYw3iawfSo9WjRdns3HEWJ/B6WSo9u1yZbTp1EkR4hdzsZYd8HbIKJtf3BUWF7GwsIDC6FnMTpSxzL52sjWglqX0Jaxtmm3zKae5NBk12+FOb9s2cRh549RfKQ9aG+m/NlMAdiF37+vfNbdMwnEEuYG20IRN/Brqwt6528anTC/EhyL1tTkQqSDD7DtQLSfVYGX3LYgJMp5qHptry1hcLDTlGe5tlGl91G7lZK9Xs6jFZh3SZ0NnlG8acZmDuMacx7nxKmenOIyc32o+tlbE7z/5h2aK4ULOHoqccXSMCWtXLMP2aig/BnmEn56bp3zOzjUcNBqPyGnz8WVcEPNpwTeEzbGjG/d+dVG5Ln6sWRfYysPtcNTRuuj9QCfhWng0yB77tmRzcw1VjDqmLGTCyLBGJd1yBUhjkaf+qDPt5ewUh5HzjyV41GZvWhafuvp35lqLNkUfGXSqSiN7c8Rsb2gnlaIftRV6zNHTwktlaMe9nwcky7+i1ceWelF8KD48OK4mu2hLm7OJ/Ipr4J6IUYdvfRe5y9kpDiNnDQtryd0j92PlornWAVeD3A3dyidiJ3hE6KQydO9Xcz7Tv6LVx72NKn2ATeGnAg53MQ3kuXssWG3NpW2UM1kq7xljI5/FSuw8PTnpaUp/s7EVZDPdXQR3ObVTRjmzs2cRpIHJqjt4atYo33zCu7cZx2v99W/+SKkN2cMtw3N0nsJ88JU/aVchxgtqlOVHvlIH0v+zo1ksVlNNBSBPP9Ln/wLBqz9EdnQLlaKpLBwbq+HSRZbjGqpDVQ7X51IZnj/F+akx9NlgseBSOdKoPEqjOosdszxqc/uUepHyrJjpi846LLUiKyP7FXW90nF6AraMyAu+5unKoop6fBAQ7YqgPT19hSgIBwkxckF7xMgF7REjF7RHjFzQHjFyQXvEyPsAUSH2AFfkq0K0nwTt34kK0K/RXoja0B9RIdrYDRUih5kbLRgnxft3pAL0abQXojb0xxqI3II0HpBEhUhsV4VoSCEmWo8gq4N5xOAOtpSC5jZ7tp2bN7zTuvO4aSuDy6ZHl6gNu0dUiLugQtykDryYBeKzs2RUzrvaoRQ0VYFb+TS0I2rD/U1fqRD58ZZZJEuPpZuGyne1XSnIDvC269PQvV/UhruAqBC3r0LkOzClbJYt8lJTlahUgHYlYWG0K5+GojbcO3iOLirEh4QYnvAweWRGzt/Hno/RiEsjfm3lIs2XxcCFh4PoyQXt6ellkCAcJMTIBe0RIxe0R4xc0B4xckF7HomReykGt6si5BdSolDsP5Q2yUPX5IWVtxmsll/pD/zuPccrfY7M3HjuZbXkyMy7hVd0Za+0TgSeTqrApL1GcxYOJpMzp32DINejMzjZKKJxco6WdQynjADFyshZTvvBxLdpXH8Mj1V/YRZHhnTvfTxeLuKjSByHfpk1UymdRkYj4nEUyXNRDKqIzJyWQDRSR7HhrLy4+jQ8oyuHaZkYRCQaRmN4CjO2iMsRLnsqinpxFRvN+owIyzc4grMVmdc0XnXXuqIy91q2sH+p1Ed8IjeH8M7lHEJnXsJ44zW8ml9r5lXTFZbTsl7lwbFvKD05hzXkP4781jj5Mg6VnMFrGUPVt4TFq8Gm0szPd+GEX3TlXVQRikKx/9hK0GehjPzjkSfx8WePqQSOyszxPK2YnhxT/9A2pyqdFId21nZRRSgKxT6hQ+Rm/sEOsheVSFB9XjPzqunKR08dVxrygcb7ePDlF5rzbzb4Q3feQOCDu2rbgqcKqVNxjIxEkDzSQPbKKtbD8eb0oVKn9LPjGKoPYfzYMK7kAph6KYnIfXO6MmTkHUzMIUEj5+HDDRRrh3GU0q4Uw5g6Q3lpapOMtZcdTiSAQgEVSuM2RKMJJGiKdCU35KhzMDrVc9lyH+xnyijcoGu0vk4ftkpqvVSmJX3oWi/Ruko2llbenrQrlryWpauCsN+R78kF7REVoqA9MpIL2iNGLmiPGLmgPWLkgvaIkQva80iN3O0MUhC24sCoEBluwGxqA7nFK7h+8yZKZfWKqifUyZxsoGC85hI05hGoEFvKPfaFyBWsbrDH25NoWAq/c5RvhPIlExiJRBA9nUT0DjUknsRQ7gryd1tf06uozYlhRJLnkBzMKZViU9noUBUmMNPMdwcDJ4yT4RPfyc0i7H8egQpxa+Ve7WoGmUwWt1BTnpnYsSm7IvMSSzmjNhsO5prKRpuqcM2Rz8M3o9AXuEV5fpojZeS7rULshkqt3Ytvp6jNdsUie7XtNbqzcMDpQYWojHyApiVs1E+8dQkfhWOqLIYN/om3fmJudUY5i0ylkaaKxugO2wp26Gh3Bml98AzGqQx2Da22WrBj/3SIhm0avanpzny2Exf0ZnNzGQsXFrC8tqa83/I6/z5gYWlZDYTsn9FaWnlFuyJoj3xPLmiPGLmgPWLkgvaIkQvaI0YuaI8YuaA9YuR9wHbc5ElEZhOuyDcis0+DuoWPd78gehS4z4vxSrNou5gd8u41EpHZxm5EZPZtULfQ8VhZxOJiFtVY6kB4tHJfzK00NHbD2gusG46XEpF5FyIy+6E6mkZ1FT1ZjdbU2XyM+TSYN58MdqzbwxjdnfntkZiNC0d53JGdt4jK7CyH8vL63HzzPIKxtKNcC3d73BfTTntbnIbF/aYeyerpaG+rea6uunaKXVgnEZlNthuR2Q+7ihAuv4V8OpbakOGAo7Pnz3IQThX2cCs/h26/jN36PPRXNloKSGe5Fu728KbfxWxvi9Ow/PDzK7mdqd9e01cRmb2wqwg5mG0niWTtKk1XLl5Vgi++qDwibOXn0E63I0ivykZ3e+gQ36dwb6NZC3ddnYLI9oRN3CYRmbuMyLyYAdI0CgdVGGW6QisXjUjIZETN6MnU/pQr8rLlds4qr7nOZW4RifnsKeDWLdqm6lQEZo7s3EVUZqRnm+Ws1Gi0JvOuBccwVruEi9WUigbtKNcsoy26dKaCCep8Pp6prWSRoZGomdfdFv5gdz6GlUtZ+pBH52ZGph4bq+HSRWdbVV/b6mK13cOCp0wSkXkfYr8pBMGLnr5CFISDhOjJBe2RkVzQHjFyQXvEyAXtESMXtEeMvA8QFeIuwd9Xe2lXWBPCnbYbGCfY6hShO0SFaKNrFeJ2GA1u9ca/e8LU0WNjzg7uAvuF7EesAYiXokLsUoXo7iwLP9UeowxNHWMs1WNvKwUerTdVgrRPddqlVke583or9yY9VZP9iqgQu1QhMm5FXyutXbXHtKvxzB0eePk/ZL1HKlhDgbZXcKo597KrF72Ve6OoiK/EPUF/FeIW9HJX21WCE9RBQTLcUIgmXSyHjfvf6VxXN44gBUJUiD4qRJoauBV9+YlZl2qvgDh96hijmdwlP2WgSmOb9Vbg2ZWL9D+qVA/ry3l6kz4fR4GeGClLrWdrk/rA41AJoqn6Yx96gjeqX0WFKAgHj137ClEQ9iti5IL2iJEL2iNGLmiPGLmgPWLkgvaIkfcBokLsAa7Izxci4z6xTkSm23Uuwu4iKkQbu+EL0evE3DeBsLdYAxEvRYW4C74Q/U7M6GBz9OfRgzqbteFUlMJKs/s7tPILu4eoEHfBF2KnE7OrBFmRuLy0BCpK4VQOtvtHFPY/feMLsZsTs98IIVZzqSVlE+Xg3iMqxN58Idr9AgJ0Yov5dv9+pvowOFbDysUM8qxI9PGPKOwNPEcXFaIgHEB6+gpREA4SYuSC9oiRC9ojRi5ojxi5oD1i5IL2iJEL2jN45MiR/2yudw1LN0+Giyh5vLwyFIozSEbqKJTWzdR2DMnkDKaSCSQS/BfB4GASCZ9yBYFRGqeTjY62ZWHlbb4M4lf6h36xhIHGb1QG5sFXpvEB/THDP/+BWm6F/W1oN2w3v9DfTM7N41SwhltXs8hUWpHzgsgqvUu8sIhCfJaWWVRTZ1VeNZKznPaDiW/T5OUxPFb9hVkcGeC99/F4uYiPInEc+mXWTKV0GsnnaMQthucwPxXBCI3Ap6cGkSsGMHHmBcSOhDByv47VwEnMzUQRGYwiORVFvbiKDT42MYhINIzGagXrQ1HEQ1V1ZzbLDdAdyMdFkkhG6ygOz1A9CUS3eDoI+lOpjyA6kMOr19YQOZnE0cZt3K4GMEo2987lHEJnXsJ44zW8ml9r5lVzcpbTsl7lwbFvKD353TM/Vn88qjdOvoxDpddVBV50lG6aakO7/0NHFGQffYQoEoVu6FbUp4z845En8fFnj6mED794XE1NrOnJ4O/eU9OYXvCS3dr9G/oJ40WRKPhiU03mszUEz9IUJRRHKj6BcJrmLtmLatqifgZn5lVGPkDTEjbqJ966hI/CMVUWwwb/xFs/Mbe2DzciNjsLdtc8G6shm6c51fQc0iEazms1X32+u/GCYLG5uYyFCwvKpyXrznmdZwocqZoHUFZGWksrr6gQBe2R78kF7REjF7RHjFzQHjFyQXvEyAXtESMXtEeMXNCeR2LkhgKx3Znk5OTWjim347zSzlb+GZVuRtzZ7XuUsrBLr2pW3qaRswrx95/6jLllwCpES8eym7CbsQpOoRmlkCMtU8qyj2NK+4l1cl7ph1I6evhn3E6HCfsDu4tCdf1srgWt4MfGsuXnsWcVol19eKNQNir0UBzOn6N8I5QvmcAIVRw9nUT0ThE3qyNIxg1dMKvJhgpvYPVpU4VYmaTGT1FZEQwHGginbMrG8ExLAelT9uqw2RZTxVgLjWModwX5u8bNsbF6H/GpBAaOjrXKxVGkYuHmOd0pVrBhnZOoIfcNe6pCdEdk9lIcqnxXM8hksriFmvLMxP4/lSsy9owajNOUZdKItGxTYYXTMSprUZXFGoU234smfmW7VYy82e6fsdpWrv2cuImihtzf7LkK0Utx2AmeshRqQcTJoGHzbcdstyw37pPP9Oh4UtSQ+5BHqUL0UhxuRZmsL/g82bgrryrrvFEWRz2wn1g3tKkY/RxPblGuqCH3H6JCFAQPHslXiIKwl4iRC9ojRi5ojxi5oD1i5IL2iJEL2iNGLjxyLHGctewpgnRk2hDgTUbaIkY/MiPfTtTmnfAoFI/Czth+BOm0cjW4tLCAheW1tojRDoefHO0t8MFd3Hv2+zi0+s8qjcVb97/2HTz+7rLaZlRFXTpd9IKPn01tILd4Bddv3kSp3H053dZt5btZWkMgeg7xRg58SCByElOhVWSuXfd2WGorf71cEOej20CNxJYLwOEpfM9PQPc09XFiGJHkOSQHcyggTv8KzSWL77pyQxg+hujGdTSOJTFUbWA4HCbDr9B1ayCciKJkXjyHkQ+sV5UK8YPxGXzC1Kvce/4vMdB43xHLc3LmdLOi4akZhItFVOiumpsLozg4ZTYsiuS5KAZzq6iw4XRQBTLKuLxUjB1PsqUKLA6ftHXcHQycaOW7uTqwZ4rHflYnRhIJHEURuUwJ5XAc0duXcfl6DSPxIRQuZ3DzfhzJoQJuLpdQH2aDPIzY4RpyG0cdRm5fRmuX8eryTdxPTCFM1y1fs6kQE0mEVguohlIY38jhSn4Dz770LBq5mzSwJRBYXQVfDcd0pZeIzM3gtBOsHDREKIaabwmLV4NqXzeqQF8VYwdfi8Z+QxW4Scdlq1RurYbgqLONe6l4dIbi7i/sLgA7KX1Y7x2v5JEv1Frx+ncElVMpK9FftRZUClI7DiPvKSIzWXltdALpmNN47LjVfHRuTlUgsVPlYaeO20vFY6cgr7rTjQtAi2A8jTT/qMHc7hqbqM6KIK2EfqlZ9eOJWC1Lc/QJR8Rox3Tl/lfPgSMv87yc4Tk6T2EefHkKj//qTZXGBDaGET99AoN36ijf/Vc0aM77QiOLK6W7CIQTSJ2K06M9guSRBrJXVlGqhZE8S1OU+hDGjw3jjUwRA1MvYYrmTeyAPzJYx/XiEKbOJNW0IRkzjlunR556bJERhikfCgVU1lt1V4bMxxztH6bH03gojPD4GI40VpC7GWi1cX0dG6uDSH53FCv/o6Aks9xOPvZKMYypl6je+zxdoalV2aN8+l8tK0OIxkOoFlpt4+Pt51bo40l8ucSfYUp0mUrq84wx6K2jxNsqg5G2TvkKpRKl38ANnt5Zef2WatW4brSGwg1ap2sa2OC5N01PVq8bn+1UuewCnKY2xSvqMxizKyrEybk5YHERy3Tn8IcPCRcu7Cd29BWi8XWc8YhgAxeE/YjoyQXtkTeegvaIkQvaI0YuaI8YuaA9YuTCI0dbFaIb4+vI6b5+LS4Y7AsVYi/Y1X1eKHXgC2M4ej/XfMslHCy0UiHyyfgqDT2jLycQ5dftVuOsSM025Z5SB2bfxOETYRTIylUdXSr/DB+Frc5QvhnpMWbvSCvK82AkiqnT3urIflYQ7gZaqRAZL6Whf/TlDDI2dV+7cs9UB1LeFZwyXHxxHV0q/wwfhS21IvtmdKoSw832LS9R+i1VvCgIdxl9VYgmXmo+v5N2K/fKEzEEydhCIWoeG2XTp7M3bceb6XbcHWlvXyhIG2rpLKefFYS7gV4qRB+loVtF+DRVmqDR8fDhBopvVHHUVPfl3xlyKPcGjozi9uUrWC6XUVmtI3w6jsbtw/Too0dWN8q/jVHj8UZGbKkVN6Jxhyrxco5VjsbU5MgRMnyaruRd6sh+VhDuBlqpEHm+fJCVhnbVpKA/ffM9OX8QnVc/nJ7H6IoYeD8hKkRBe+SNp6A9AXzvf8pIvgds/vdvmWtOAt9/xVwTHg7A/w/yXC1yWVvbiAAAAABJRU5ErkJggg==;" vertex="1" parent="1">
          <mxGeometry x="360" y="-250" width="185" height="667" as="geometry" />
        </mxCell>
        <mxCell id="kmTCp-gQ4Pqmv0-tDAnt-8" value="" style="endArrow=none;html=1;rounded=0;exitX=0.997;exitY=0.031;exitDx=0;exitDy=0;exitPerimeter=0;entryX=0.01;entryY=0.037;entryDx=0;entryDy=0;entryPerimeter=0;" edge="1" parent="1" source="kmTCp-gQ4Pqmv0-tDAnt-4" target="kmTCp-gQ4Pqmv0-tDAnt-7">
          <mxGeometry width="50" height="50" relative="1" as="geometry">
            <mxPoint x="240" y="-20" as="sourcePoint" />
            <mxPoint x="290" y="-70" as="targetPoint" />
          </mxGeometry>
        </mxCell>
        <mxCell id="kmTCp-gQ4Pqmv0-tDAnt-9" value="" style="endArrow=none;html=1;rounded=0;exitX=0.99;exitY=0.052;exitDx=0;exitDy=0;exitPerimeter=0;entryX=-0.001;entryY=0.295;entryDx=0;entryDy=0;entryPerimeter=0;" edge="1" parent="1" source="kmTCp-gQ4Pqmv0-tDAnt-4" target="kmTCp-gQ4Pqmv0-tDAnt-7">
          <mxGeometry width="50" height="50" relative="1" as="geometry">
            <mxPoint x="201" y="-150" as="sourcePoint" />
            <mxPoint x="310" y="-120" as="targetPoint" />
          </mxGeometry>
        </mxCell>
        <mxCell id="kmTCp-gQ4Pqmv0-tDAnt-10" value="" style="endArrow=none;html=1;rounded=0;exitX=0.992;exitY=0.071;exitDx=0;exitDy=0;exitPerimeter=0;entryX=-0.008;entryY=0.066;entryDx=0;entryDy=0;entryPerimeter=0;" edge="1" parent="1" source="kmTCp-gQ4Pqmv0-tDAnt-4" target="kmTCp-gQ4Pqmv0-tDAnt-7">
          <mxGeometry width="50" height="50" relative="1" as="geometry">
            <mxPoint x="240" y="-90" as="sourcePoint" />
            <mxPoint x="290" y="-140" as="targetPoint" />
          </mxGeometry>
        </mxCell>
        <mxCell id="kmTCp-gQ4Pqmv0-tDAnt-11" value="" style="endArrow=none;html=1;rounded=0;exitX=0.992;exitY=0.085;exitDx=0;exitDy=0;exitPerimeter=0;entryX=0.003;entryY=0.128;entryDx=0;entryDy=0;entryPerimeter=0;" edge="1" parent="1" source="kmTCp-gQ4Pqmv0-tDAnt-4" target="kmTCp-gQ4Pqmv0-tDAnt-7">
          <mxGeometry width="50" height="50" relative="1" as="geometry">
            <mxPoint x="240" y="-90" as="sourcePoint" />
            <mxPoint x="320" y="-160" as="targetPoint" />
          </mxGeometry>
        </mxCell>
        <mxCell id="kmTCp-gQ4Pqmv0-tDAnt-12" value="" style="endArrow=none;html=1;rounded=0;exitX=0.994;exitY=0.106;exitDx=0;exitDy=0;exitPerimeter=0;entryX=0.003;entryY=0.359;entryDx=0;entryDy=0;entryPerimeter=0;" edge="1" parent="1" source="kmTCp-gQ4Pqmv0-tDAnt-4" target="kmTCp-gQ4Pqmv0-tDAnt-7">
          <mxGeometry width="50" height="50" relative="1" as="geometry">
            <mxPoint x="240" y="-90" as="sourcePoint" />
            <mxPoint x="290" y="-140" as="targetPoint" />
          </mxGeometry>
        </mxCell>
        <mxCell id="kmTCp-gQ4Pqmv0-tDAnt-21" value="" style="rounded=0;whiteSpace=wrap;html=1;strokeColor=#FFFFFF;" vertex="1" parent="1">
          <mxGeometry x="-199" y="-163" width="390" height="10" as="geometry" />
        </mxCell>
        <mxCell id="kmTCp-gQ4Pqmv0-tDAnt-22" value="" style="endArrow=none;html=1;rounded=0;exitX=0.994;exitY=0.157;exitDx=0;exitDy=0;exitPerimeter=0;" edge="1" parent="1" source="kmTCp-gQ4Pqmv0-tDAnt-4">
          <mxGeometry width="50" height="50" relative="1" as="geometry">
            <mxPoint x="230" y="-60" as="sourcePoint" />
            <mxPoint x="360" y="-164" as="targetPoint" />
          </mxGeometry>
        </mxCell>
        <mxCell id="kmTCp-gQ4Pqmv0-tDAnt-23" value="" style="endArrow=none;html=1;rounded=0;exitX=0.992;exitY=0.177;exitDx=0;exitDy=0;exitPerimeter=0;entryX=-0.012;entryY=0.21;entryDx=0;entryDy=0;entryPerimeter=0;" edge="1" parent="1" source="kmTCp-gQ4Pqmv0-tDAnt-4" target="kmTCp-gQ4Pqmv0-tDAnt-7">
          <mxGeometry width="50" height="50" relative="1" as="geometry">
            <mxPoint x="200" y="-135" as="sourcePoint" />
            <mxPoint x="370" y="-154" as="targetPoint" />
          </mxGeometry>
        </mxCell>
        <mxCell id="kmTCp-gQ4Pqmv0-tDAnt-27" value="" style="endArrow=none;html=1;rounded=0;exitX=0.996;exitY=0.405;exitDx=0;exitDy=0;exitPerimeter=0;entryX=-0.001;entryY=0.464;entryDx=0;entryDy=0;entryPerimeter=0;" edge="1" parent="1" source="kmTCp-gQ4Pqmv0-tDAnt-4" target="kmTCp-gQ4Pqmv0-tDAnt-7">
          <mxGeometry width="50" height="50" relative="1" as="geometry">
            <mxPoint x="240" y="50" as="sourcePoint" />
            <mxPoint x="290" as="targetPoint" />
          </mxGeometry>
        </mxCell>
        <mxCell id="kmTCp-gQ4Pqmv0-tDAnt-28" value="" style="endArrow=none;html=1;rounded=0;exitX=0.994;exitY=0.441;exitDx=0;exitDy=0;exitPerimeter=0;entryX=-0.001;entryY=0.568;entryDx=0;entryDy=0;entryPerimeter=0;" edge="1" parent="1" source="kmTCp-gQ4Pqmv0-tDAnt-4" target="kmTCp-gQ4Pqmv0-tDAnt-7">
          <mxGeometry width="50" height="50" relative="1" as="geometry">
            <mxPoint x="199" y="61" as="sourcePoint" />
            <mxPoint x="370" y="69" as="targetPoint" />
          </mxGeometry>
        </mxCell>
        <mxCell id="kmTCp-gQ4Pqmv0-tDAnt-29" value="" style="endArrow=none;html=1;rounded=0;entryX=-0.004;entryY=0.149;entryDx=0;entryDy=0;entryPerimeter=0;exitX=0.998;exitY=0.457;exitDx=0;exitDy=0;exitPerimeter=0;" edge="1" parent="1" source="kmTCp-gQ4Pqmv0-tDAnt-4" target="kmTCp-gQ4Pqmv0-tDAnt-7">
          <mxGeometry width="50" height="50" relative="1" as="geometry">
            <mxPoint x="220" y="20" as="sourcePoint" />
            <mxPoint x="370" y="69" as="targetPoint" />
          </mxGeometry>
        </mxCell>
        <mxCell id="kmTCp-gQ4Pqmv0-tDAnt-30" value="" style="endArrow=none;html=1;rounded=0;entryX=-0.004;entryY=0.319;entryDx=0;entryDy=0;entryPerimeter=0;exitX=0.998;exitY=0.473;exitDx=0;exitDy=0;exitPerimeter=0;" edge="1" parent="1" source="kmTCp-gQ4Pqmv0-tDAnt-4" target="kmTCp-gQ4Pqmv0-tDAnt-7">
          <mxGeometry width="50" height="50" relative="1" as="geometry">
            <mxPoint x="210" y="140" as="sourcePoint" />
            <mxPoint x="370" y="139" as="targetPoint" />
          </mxGeometry>
        </mxCell>
      </root>
    </mxGraphModel>
  </diagram>
</mxfile>
